<?xml version="1.0" encoding="UTF-8"?>
<svg version="1.1" xmlns="http://www.w3.org/2000/svg" width="409" height="418">
<path d="M0 0 C7.19113092 1.09292518 11.58325623 9.33229073 15.62255859 14.77246094 C33.78354097 39.8225801 44.80713285 68.30085657 53 98 C53.36013184 97.26233398 53.36013184 97.26233398 53.72753906 96.50976562 C61.58072322 80.59654016 71.35161627 62.76945317 86 52 C89.10252495 51.851967 90.22724451 53.18672543 92.62890625 55.16015625 C93.61864564 56.1154523 94.59581724 57.083879 95.5625 58.0625 C96.08408691 58.58763184 96.60567383 59.11276367 97.14306641 59.65380859 C103.35051543 66.11966726 108.18316687 73.47550402 113 81 C113.58523438 81.88429688 114.17046875 82.76859375 114.7734375 83.6796875 C119.06320973 90.42075815 122.13956092 97.70753096 125.19482422 105.06738281 C125.90749427 106.77796381 126.64163035 108.47956686 127.37890625 110.1796875 C132.83326292 123.34537603 135.65203002 137.51221687 137.75 151.5625 C137.92329834 152.69075195 137.92329834 152.69075195 138.10009766 153.84179688 C139.37698848 163.1656188 139.59530437 172.60644461 140 182 C141.27415771 182.19634033 142.54831543 182.39268066 143.86108398 182.5949707 C148.67175513 183.336772 153.48204608 184.08101502 158.29223633 184.82592773 C160.35854257 185.14558529 162.42494603 185.46461516 164.49145508 185.78295898 C177.0215128 187.71370071 189.52706695 189.72750092 202 192 C201.67 192.66 201.34 193.32 201 194 C193.49499543 194.11626987 186.0341254 193.95805699 178.5390625 193.59765625 C177.22551788 193.53473892 177.22551788 193.53473892 175.88543701 193.47055054 C172.27591425 193.2950994 168.6665945 193.11628336 165.05761719 192.92993164 C113.93789193 190.31751325 62.70822509 190.84238152 11.54035223 190.87143058 C4.12227447 190.87520371 -3.29578993 190.8738403 -10.71386719 190.86962891 C-87.44327615 190.66903492 -87.44327615 190.66903492 -164.125 193.0625 C-167.85658977 193.24485152 -171.58834017 193.42331001 -175.3203125 193.59765625 C-176.17224182 193.63758698 -177.02417114 193.6775177 -177.9019165 193.71865845 C-184.6060454 194.01708172 -191.28881671 194.10483797 -198 194 C-198 193.34 -198 192.68 -198 192 C-185.12410628 189.58208408 -172.18432128 187.63286251 -159.22680664 185.71411133 C-158.51765106 185.60840317 -157.80849548 185.50269501 -157.07785034 185.39378357 C-155.12334375 185.10256922 -153.16849326 184.81366571 -151.21362305 184.52490234 C-148.75089803 184.12264915 -146.4097902 183.62283274 -144 183 C-142.58465222 182.93543121 -141.16662311 182.91388961 -139.75 182.9375 C-137.89375 182.9684375 -137.89375 182.9684375 -136 183 C-136.03480469 182.20722656 -136.06960937 181.41445312 -136.10546875 180.59765625 C-137.11915598 136.91256363 -122.7041731 90.98998631 -92.36499023 58.99560547 C-91.83204346 58.44018066 -91.29909668 57.88475586 -90.75 57.3125 C-90.24218994 56.76996582 -89.73437988 56.22743164 -89.21118164 55.66845703 C-85.5981956 52.01664737 -85.5981956 52.01664737 -82.89453125 51.94140625 C-68.98475535 59.71367278 -55.34925968 82.31032317 -50 97 C-48.25424769 94.38137154 -47.52823082 92.82667399 -46.703125 89.89453125 C-46.47028809 89.0847583 -46.23745117 88.27498535 -45.99755859 87.44067383 C-45.75086426 86.57337646 -45.50416992 85.7060791 -45.25 84.8125 C-35.89110711 53.05405216 -21.27251725 25.345978 0 0 Z M1 38 C-5.08778375 48.38098271 -10.60356546 58.78625813 -15 70 C-15.25346191 70.64501465 -15.50692383 71.2900293 -15.76806641 71.95458984 C-23.98682324 93.42802795 -28.51146773 117.19995065 -31 140 C-31.13019531 141.16660156 -31.26039063 142.33320313 -31.39453125 143.53515625 C-32.24355683 152.67067147 -32.09257552 161.83502358 -32 171 C-30.86175781 170.9278125 -29.72351563 170.855625 -28.55078125 170.78125 C-7.05519394 169.57811476 14.47974842 169.90931499 36 170 C36.14788052 160.80978808 35.82241489 151.82269889 34.8125 142.6875 C34.68085449 141.48544922 34.54920898 140.28339844 34.41357422 139.04492188 C32.99612936 126.86799984 30.69383742 114.95173359 28 103 C27.71020264 101.6706543 27.71020264 101.6706543 27.41455078 100.31445312 C22.8035581 79.32867765 15.34777 55.83173661 3 38 C2.34 38 1.68 38 1 38 Z M-84 87 C-89.21885135 93.46744751 -92.86389277 100.34665222 -96 108 C-96.40992187 108.93972656 -96.81984375 109.87945312 -97.2421875 110.84765625 C-105.10203187 129.76498353 -109.11967411 151.42266727 -109.0234375 171.859375 C-109.02174561 172.5488623 -109.02005371 173.23834961 -109.01831055 173.94873047 C-109.01393335 175.63249235 -109.00720921 177.31624786 -109 179 C-103.96824291 178.47090884 -98.93694651 177.93767784 -93.90600586 177.40087891 C-92.20039256 177.21944776 -90.49466589 177.03907876 -88.78881836 176.85986328 C-78.81295814 175.81100632 -68.89630969 174.65849963 -59 173 C-59.63703699 141.56222432 -67.30557749 114.21294547 -83 87 C-83.33 87 -83.66 87 -84 87 Z M87 87 C79.32952209 96.24969395 74.63352498 108.64154183 71 120 C70.60039062 121.20785156 70.20078125 122.41570312 69.7890625 123.66015625 C64.91004852 139.24439922 61.72591821 156.65308849 62 173 C62.90987671 173.11275269 62.90987671 173.11275269 63.83813477 173.2277832 C66.74634879 173.58861666 69.65443879 173.95043704 72.5625 174.3125 C73.63338867 174.44567627 74.70427734 174.57885254 75.80761719 174.71606445 C81.39906869 175.41438225 86.98830828 176.12576191 92.57421875 176.8671875 C93.6118335 177.00471436 94.64944824 177.14224121 95.71850586 177.28393555 C97.70790221 177.54877183 99.69700967 177.81578929 101.68579102 178.08520508 C102.58869873 178.20532959 103.49160645 178.3254541 104.421875 178.44921875 C105.21174805 178.55580811 106.00162109 178.66239746 106.81542969 178.7722168 C109.29700301 179.06913792 109.29700301 179.06913792 113 179 C113.15885363 170.99642447 112.78633904 163.24860643 111.75 155.3125 C111.61722656 154.27593262 111.48445313 153.23936523 111.34765625 152.17138672 C110.14872807 143.2742947 108.34522606 134.65929621 106 126 C105.75378906 125.05125 105.50757813 124.1025 105.25390625 123.125 C103.4965379 116.77067378 100.86921093 110.92379223 98 105 C97.49984375 103.95972656 96.9996875 102.91945313 96.484375 101.84765625 C93.95091175 96.67196997 91.46439363 91.6191915 88 87 C87.67 87 87.34 87 87 87 Z " fill="#09756E" transform="translate(199,16)"/>
<path d="M0 0 C0.03867187 1.76923828 0.03867187 1.76923828 0.078125 3.57421875 C1.08830541 37.03179943 6.14498487 71.57463628 25 100 C28.35524401 96.10672132 30.68543478 92.13844023 32.9375 87.5625 C33.28594971 86.85512695 33.63439941 86.14775391 33.9934082 85.41894531 C46.96341852 58.57117424 50.03852884 29.42101739 51 0 C59.58 0 68.16 0 77 0 C77.8521928 50.84750372 64.56568515 96.6436814 29 134 C28.34 134.66 27.68 135.32 27 136 C22.98473287 135.78550923 20.94908264 133.31891609 18.25 130.5625 C17.45078125 129.75941406 16.6515625 128.95632813 15.828125 128.12890625 C14 126 14 126 14 124 C13.34 124 12.68 124 12 124 C10.21306728 121.70295144 8.56229367 119.40891876 6.9375 117 C6.4523291 116.28755127 5.9671582 115.57510254 5.46728516 114.84106445 C-6.16643009 97.50070973 -6.16643009 97.50070973 -9 89 C-9.36351562 90.23492187 -9.72703125 91.46984375 -10.1015625 92.7421875 C-20.02859169 126.28720411 -20.02859169 126.28720411 -28 142 C-28.3496582 142.69512695 -28.69931641 143.39025391 -29.05957031 144.10644531 C-35.78990711 157.40644774 -43.4506657 169.51311961 -53 181 C-53.57105469 181.71800781 -54.14210937 182.43601562 -54.73046875 183.17578125 C-56.08372331 184.84312453 -57.5335744 186.43126564 -59 188 C-59.99 188 -60.98 188 -62 188 C-65.35074016 184.64240761 -68.12539815 180.76760608 -71 177 C-72.18335938 175.47826172 -72.18335938 175.47826172 -73.390625 173.92578125 C-91.93795224 149.45068607 -103.86208241 119.68959926 -111 90 C-112.49983116 92.24974674 -113.7796212 94.39358816 -115.03125 96.7734375 C-123.14784549 111.97167105 -132.54412838 124.1219781 -145 136 C-163.12108629 128.54593614 -175.87708291 101.33150631 -183.04785156 84.54736328 C-194.03478957 57.39393077 -198.46662934 29.16433392 -198 0 C-189.09 0 -180.18 0 -171 0 C-170.896875 3.691875 -170.79375 7.38375 -170.6875 11.1875 C-169.53796471 42.5446096 -163.17816538 71.96448807 -147 99 C-146.34 99 -145.68 99 -145 99 C-128.68656168 72.12837191 -122.55336297 43.00869153 -121.4375 11.8125 C-121.293125 7.914375 -121.14875 4.01625 -121 0 C-112.09 0 -103.18 0 -94 0 C-93.95101562 2.40152344 -93.90203125 4.80304688 -93.8515625 7.27734375 C-93.79717369 9.66728672 -93.74001741 12.05714915 -93.68261719 14.44702148 C-93.64491135 16.07684032 -93.60997086 17.70672606 -93.578125 19.33666992 C-93.35408636 30.67512547 -92.52898432 41.76321372 -91 53 C-90.81219971 54.44209839 -90.81219971 54.44209839 -90.62060547 55.91333008 C-89.04306075 67.75653212 -86.8301183 79.39411146 -84 91 C-83.76539063 91.96808594 -83.53078125 92.93617188 -83.2890625 93.93359375 C-78.60138856 112.0500748 -72.16703218 129.80087557 -62.28515625 145.7421875 C-61 148 -61 148 -61 150 C-60.34 150 -59.68 150 -59 150 C-58.76667969 149.37351562 -58.53335938 148.74703125 -58.29296875 148.1015625 C-56.86743753 144.68201027 -55.25650188 141.38686788 -53.62426758 138.06225586 C-40.08795162 110.33208096 -32.95534738 81.56262478 -29 51 C-28.88817383 50.18901855 -28.77634766 49.37803711 -28.66113281 48.54248047 C-26.46395116 32.46562605 -26.3691029 16.20001647 -26 0 C-22.04204914 -0.19625099 -18.08363065 -0.38051982 -14.125 -0.5625 C-12.43310547 -0.64661133 -12.43310547 -0.64661133 -10.70703125 -0.73242188 C-9.09248047 -0.80493164 -9.09248047 -0.80493164 -7.4453125 -0.87890625 C-5.95281982 -0.94960327 -5.95281982 -0.94960327 -4.43017578 -1.02172852 C-2 -1 -2 -1 0 0 Z " fill="#F7A435" transform="translate(261,214)"/>
<path d="M0 0 C0.33 0 0.66 0 1 0 C1 5.28 1 10.56 1 16 C-0.65 16 -2.3 16 -4 16 C-4.495 17.485 -4.495 17.485 -5 19 C-8.3 19.33 -11.6 19.66 -15 20 C-15 20.33 -15 20.66 -15 21 C-13.7320972 20.99907821 -12.46419439 20.99815641 -11.15787029 20.99720669 C19.28863475 20.97530747 49.73513758 20.95894129 80.18164866 20.94893467 C83.97078988 20.94768472 87.75993107 20.94639033 91.54907227 20.94506836 C92.30307608 20.94480605 93.05707989 20.94454374 93.8339323 20.94427348 C104.38673336 20.94051043 114.93953063 20.93435891 125.49232922 20.92626567 C143.66806267 20.91232881 161.84379213 20.90306316 180.01953125 20.90234375 C180.72428441 20.90230518 181.42903758 20.90226661 182.1551469 20.90222687 C224.77597752 20.90066586 267.38835989 21.02887205 310 22 C310 21.34 310 20.68 310 20 C328.82004556 21.92710706 328.82004556 21.92710706 338 24 C337.67 24.66 337.34 25.32 337 26 C329.49499543 26.11626987 322.0341254 25.95805699 314.5390625 25.59765625 C313.66336609 25.55571136 312.78766968 25.51376648 311.88543701 25.47055054 C308.27591425 25.2950994 304.6665945 25.11628336 301.05761719 24.92993164 C249.93789193 22.31751325 198.70822509 22.84238152 147.54035223 22.87143058 C140.12227447 22.87520371 132.70421007 22.8738403 125.28613281 22.86962891 C48.55672385 22.66903492 48.55672385 22.66903492 -28.125 25.0625 C-31.85658977 25.24485152 -35.58834017 25.42331001 -39.3203125 25.59765625 C-40.59820648 25.65755234 -40.59820648 25.65755234 -41.9019165 25.71865845 C-48.6060454 26.01708172 -55.28881671 26.10483797 -62 26 C-62 25.34 -62 24.68 -62 24 C-49.12410628 21.58208408 -36.18432128 19.63286251 -23.22680664 17.71411133 C-22.51765106 17.60840317 -21.80849548 17.50269501 -21.07785034 17.39378357 C-19.12334375 17.10256922 -17.16849326 16.81366571 -15.21362305 16.52490234 C-12.75089803 16.12264915 -10.4097902 15.62283274 -8 15 C-6.58465222 14.93543121 -5.16662311 14.91388961 -3.75 14.9375 C-1.89375 14.9684375 -1.89375 14.9684375 0 15 C0 10.05 0 5.1 0 0 Z " fill="#98C3C1" transform="translate(63,184)"/>
<path d="M0 0 C0.33 0 0.66 0 1 0 C1 5.28 1 10.56 1 16 C-0.65 16 -2.3 16 -4 16 C-4.495 17.485 -4.495 17.485 -5 19 C-8.3 19.33 -11.6 19.66 -15 20 C-15 20.66 -15 21.32 -15 22 C-21.14128825 26.09419216 -29.97736113 25.27319147 -37.1875 25.5625 C-38.19820557 25.6049585 -39.20891113 25.64741699 -40.25024414 25.69116211 C-47.50513935 25.98010216 -54.73911594 26.12542794 -62 26 C-62 25.34 -62 24.68 -62 24 C-49.12410628 21.58208408 -36.18432128 19.63286251 -23.22680664 17.71411133 C-22.51765106 17.60840317 -21.80849548 17.50269501 -21.07785034 17.39378357 C-19.12334375 17.10256922 -17.16849326 16.81366571 -15.21362305 16.52490234 C-12.75089803 16.12264915 -10.4097902 15.62283274 -8 15 C-6.58465222 14.93543121 -5.16662311 14.91388961 -3.75 14.9375 C-1.89375 14.9684375 -1.89375 14.9684375 0 15 C0 10.05 0 5.1 0 0 Z " fill="#358681" transform="translate(63,184)"/>
<path d="M0 0 C18.82004556 1.92710706 18.82004556 1.92710706 28 4 C27.67 4.66 27.34 5.32 27 6 C19.8949322 6.09925039 12.83064769 5.99406506 5.734375 5.6328125 C4.58251961 5.57439682 4.58251961 5.57439682 3.40739441 5.51480103 C1.74101823 5.42979404 0.07465206 5.34459093 -1.59170532 5.25921631 C-25.81986886 4.03594535 -50.06225527 3.45259412 -74.3125 2.875 C-75.24342972 2.8527964 -76.17435944 2.8305928 -77.13349915 2.80771637 C-88.75549809 2.53105317 -100.377659 2.26189497 -112 2 C-112 1.67 -112 1.34 -112 1 C-84.89036646 0.85975916 -57.79336728 1.07485499 -30.6875 1.5 C-29.5435206 1.51793673 -29.5435206 1.51793673 -28.37643051 1.53623581 C-18.91752342 1.68507323 -9.4587208 1.83974711 0 2 C0 1.34 0 0.68 0 0 Z " fill="#66A5A0" transform="translate(373,204)"/>
<path d="M0 0 C6.44070471 -0.10655578 12.62641289 0.03794912 19 1 C19 1.66 19 2.32 19 3 C21.64 3 24.28 3 27 3 C27 3.33 27 3.66 27 4 C7.98769941 4.20083416 -10.99940064 3.58698754 -30 3 C-30 2.67 -30 2.34 -30 2 C-15.15 1.505 -15.15 1.505 0 1 C0 0.67 0 0.34 0 0 Z " fill="#04665F" transform="translate(354,203)"/>
<path d="M0 0 C2.87173456 1.22005557 4.16274954 3.3398286 5.94921875 5.828125 C3.63921875 5.168125 1.32921875 4.508125 -1.05078125 3.828125 C-1.46440918 4.25222656 -1.87803711 4.67632812 -2.30419922 5.11328125 C-4.17286046 7.02339833 -6.04917628 8.92581311 -7.92578125 10.828125 C-8.57675781 11.49585937 -9.22773437 12.16359375 -9.8984375 12.8515625 C-10.52363281 13.48320313 -11.14882812 14.11484375 -11.79296875 14.765625 C-12.36901855 15.35214844 -12.94506836 15.93867187 -13.53857422 16.54296875 C-15.05078125 17.828125 -15.05078125 17.828125 -17.05078125 17.828125 C-17.13328125 18.446875 -17.21578125 19.065625 -17.30078125 19.703125 C-18.05078125 21.828125 -18.05078125 21.828125 -20.11328125 23.078125 C-20.75265625 23.325625 -21.39203125 23.573125 -22.05078125 23.828125 C-20.61719087 19.30361433 -18.08363633 16.32150513 -14.86328125 12.953125 C-14.37077881 12.43081299 -13.87827637 11.90850098 -13.37084961 11.37036133 C-12.38777129 10.33097841 -11.40159033 9.29452 -10.41210938 8.26123047 C-9.2250715 7.01160487 -8.06512826 5.73635244 -6.91015625 4.45703125 C-6.3171875 3.81636719 -5.72421875 3.17570312 -5.11328125 2.515625 C-4.60925781 1.96261719 -4.10523437 1.40960938 -3.5859375 0.83984375 C-2.05078125 -0.171875 -2.05078125 -0.171875 0 0 Z " fill="#15736B" transform="translate(116.05078125,68.171875)"/>
<path d="M0 0 C-2.97 0.66 -5.94 1.32 -9 2 C-3.39 2.33 2.22 2.66 8 3 C8 3.33 8 3.66 8 4 C-16.77626887 5.19388403 -16.77626887 5.19388403 -28 5 C-28 4.34 -28 3.68 -28 3 C-25.31275296 2.51937876 -22.62521967 2.04046504 -19.9375 1.5625 C-19.18533203 1.42779297 -18.43316406 1.29308594 -17.65820312 1.15429688 C-15.44024453 0.76063323 -13.22055282 0.37872622 -11 0 C-9.74316406 -0.21785156 -8.48632812 -0.43570313 -7.19140625 -0.66015625 C-4 -1 -4 -1 0 0 Z " fill="#8ABBB8" transform="translate(29,205)"/>
<path d="M0 0 C5.91260345 -0.25706972 11.23918159 0.7017874 17 2 C16.67 2.66 16.34 3.32 16 4 C3.98174054 4.20760909 -7.99917584 3.57827885 -20 3 C-20 2.67 -20 2.34 -20 2 C-10.1 1.505 -10.1 1.505 0 1 C0 0.67 0 0.34 0 0 Z " fill="#93C1BE" transform="translate(384,206)"/>
<path d="M0 0 C0.99 0.33 1.98 0.66 3 1 C2.34 1 1.68 1 1 1 C0.67 2.32 0.34 3.64 0 5 C-0.66 5 -1.32 5 -2 5 C-2.1546875 5.86625 -2.1546875 5.86625 -2.3125 6.75 C-3.10896465 9.35661158 -4.19065277 10.9735311 -6 13 C-6.66 13 -7.32 13 -8 13 C-8.20625 13.7425 -8.4125 14.485 -8.625 15.25 C-10.39615589 18.79231177 -12.63427951 20.02446841 -16 22 C-14.35956423 18.33314358 -12.10667147 15.32074584 -9.6875 12.125 C-9.28668213 11.59487305 -8.88586426 11.06474609 -8.47290039 10.51855469 C-5.74303395 6.92584067 -2.94382833 3.41863935 0 0 Z " fill="#3B8984" transform="translate(199,16)"/>
<path d="M0 0 C2 3 2 3 3 6 C2.67 6.66 2.34 7.32 2 8 C1.84266751 10.98763355 1.74138585 13.95541151 1.68359375 16.9453125 C1.66281265 17.8303244 1.64203156 18.7153363 1.62062073 19.62716675 C1.55513402 22.45969741 1.49624438 25.29232225 1.4375 28.125 C1.39431394 30.04297857 1.35069963 31.96094754 1.30664062 33.87890625 C1.19945353 38.58584051 1.0981836 43.29286967 1 48 C0.67 48 0.34 48 0 48 C0 32.16 0 16.32 0 0 Z " fill="#00726B" transform="translate(0,368)"/>
<path d="M0 0 C0.99 0 1.98 0 3 0 C0.28522278 5.88201731 -3.29968017 10.56080905 -8 15 C-7.43768609 11.06380262 -6.38314183 8.20807554 -4 5 C-3.01 5 -2.02 5 -1 5 C-0.67 3.35 -0.34 1.7 0 0 Z " fill="#F8B65D" transform="translate(308,321)"/>
<path d="M0 0 C0.66 0 1.32 0 2 0 C2 0.99 2 1.98 2 3 C2.99 3 3.98 3 5 3 C5.86355778 4.95421035 6.71559934 6.91351347 7.5625 8.875 C8.03816406 9.96554687 8.51382813 11.05609375 9.00390625 12.1796875 C9.33261719 13.11039062 9.66132812 14.04109375 10 15 C9.67 15.66 9.34 16.32 9 17 C7.68085608 14.92062051 6.36961787 12.83691981 5.0625 10.75 C4.68931641 10.16347656 4.31613281 9.57695312 3.93164062 8.97265625 C2.1034339 6.04093735 0.53724618 3.44519771 0 0 Z " fill="#F7B358" transform="translate(84,309)"/>
<path d="M0 0 C1.56447023 3.12894046 0.18097756 5.34617299 -0.8125 8.625 C-2.33055323 13.73070152 -3.75711609 18.82131703 -5 24 C-5.33 24 -5.66 24 -6 24 C-5.42085333 17.98673249 -4.77662055 11.99107278 -4 6 C-3.01 5.67 -2.02 5.34 -1 5 C-0.67 3.35 -0.34 1.7 0 0 Z " fill="#5DA09B" transform="translate(181,93)"/>
<path d="M0 0 C1.91821088 5.72722962 0.29588981 12.59042584 -1.8046875 18.1171875 C-2.625 19.75 -2.625 19.75 -4 22 C-4.66 22 -5.32 22 -6 22 C-4.47536437 14.50387484 -2.31993846 7.28640866 0 0 Z " fill="#F9BC6A" transform="translate(224,308)"/>
<path d="M0 0 C0.33 0.66 0.66 1.32 1 2 C0.28735352 3.69580078 0.28735352 3.69580078 -0.87109375 5.6953125 C-1.28037109 6.41074219 -1.68964844 7.12617188 -2.11132812 7.86328125 C-2.54896484 8.60964844 -2.98660156 9.35601562 -3.4375 10.125 C-3.87126953 10.87910156 -4.30503906 11.63320313 -4.75195312 12.41015625 C-5.82748966 14.27757134 -6.91284139 16.13932697 -8 18 C-8.66 16.68 -9.32 15.36 -10 14 C-8.68 13.34 -7.36 12.68 -6 12 C-6.33 11.01 -6.66 10.02 -7 9 C-6.34 9 -5.68 9 -5 9 C-5 8.34 -5 7.68 -5 7 C-4.34 7 -3.68 7 -3 7 C-2.814375 5.5459375 -2.814375 5.5459375 -2.625 4.0625 C-2.41875 3.051875 -2.2125 2.04125 -2 1 C-1.34 0.67 -0.68 0.34 0 0 Z " fill="#F8B964" transform="translate(146,307)"/>
<path d="M0 0 C0.33 0 0.66 0 1 0 C1.28307925 7.24997422 0.50974035 13.90961228 -1 21 C-1.33 21 -1.66 21 -2 21 C-2.19517554 19.06325815 -2.38087873 17.12555991 -2.5625 15.1875 C-2.66691406 14.10855469 -2.77132813 13.02960938 -2.87890625 11.91796875 C-3 9 -3 9 -2 6 C-1.34 6 -0.68 6 0 6 C0 4.02 0 2.04 0 0 Z " fill="#F8BA66" transform="translate(336,239)"/>
<path d="M0 0 C0.99 0.33 1.98 0.66 3 1 C3.59732819 3.76264289 4 6.16032769 4 9 C4.66 9 5.32 9 6 9 C6.28875 9.78375 6.5775 10.5675 6.875 11.375 C7.84912254 14.09671632 7.84912254 14.09671632 10 16 C9.34 16 8.68 16 8 16 C7.67 16.66 7.34 17.32 7 18 C5.82625827 15.56568361 4.66084237 13.12795818 3.5 10.6875 C3.16613281 9.99720703 2.83226562 9.30691406 2.48828125 8.59570312 C0 3.33984375 0 3.33984375 0 0 Z " fill="#F8BA67" transform="translate(163,341)"/>
<path d="M0 0 C0.66 0 1.32 0 2 0 C0.26375242 6.4188547 -1.85180745 12.13784836 -5 18 C-5.33 18 -5.66 18 -6 18 C-6 16.35 -6 14.7 -6 13 C-5.34 13 -4.68 13 -4 13 C-4 11.02 -4 9.04 -4 7 C-3.01 6.67 -2.02 6.34 -1 6 C-0.67 4.02 -0.34 2.04 0 0 Z " fill="#F9BA68" transform="translate(324,290)"/>
<path d="M0 0 C1 3 1 3 -0.21484375 5.91796875 C-0.78332031 6.99691406 -1.35179687 8.07585937 -1.9375 9.1875 C-2.50339844 10.27417969 -3.06929687 11.36085938 -3.65234375 12.48046875 C-4.09707031 13.31191406 -4.54179687 14.14335937 -5 15 C-5.66 13.68 -6.32 12.36 -7 11 C-6.34 11 -5.68 11 -5 11 C-4.87625 10.46375 -4.7525 9.9275 -4.625 9.375 C-3.87394317 6.52098405 -3.04340771 3.76196159 -2 1 C-1.34 0.67 -0.68 0.34 0 0 Z " fill="#F8B964" transform="translate(236,345)"/>
<path d="M0 0 C4.4008703 3.82180842 5.80805531 6.47371099 7 12 C0.75324675 5.92207792 0.75324675 5.92207792 -1 3 C-0.67 2.01 -0.34 1.02 0 0 Z " fill="#F8B458" transform="translate(187,383)"/>
<path d="M0 0 C0.99 0.33 1.98 0.66 3 1 C1.6062718 5.43458973 -0.60582235 7.87378374 -4 11 C-3.39301257 6.87248551 -1.96189209 3.6678852 0 0 Z " fill="#F7AE4C" transform="translate(134,323)"/>
<path d="M0 0 C1.21527577 3.64582731 0.65504434 4.48903009 -0.8125 7.9375 C-1.16957031 8.79214844 -1.52664062 9.64679688 -1.89453125 10.52734375 C-2.87404331 12.71826649 -3.90516039 14.86481506 -5 17 C-5.33 14.69 -5.66 12.38 -6 10 C-5.01 9.67 -4.02 9.34 -3 9 C-3 6.69 -3 4.38 -3 2 C-2.01 2 -1.02 2 0 2 C0 1.34 0 0.68 0 0 Z " fill="#589D99" transform="translate(102,124)"/>
<path d="M0 0 C3.62462885 0.42597134 5.2926498 1.96337959 7.75 4.5625 C8.36359375 5.20316406 8.9771875 5.84382813 9.609375 6.50390625 C10.06828125 6.99761719 10.5271875 7.49132812 11 8 C10.01 8.495 10.01 8.495 9 9 C6.875 8.0625 6.875 8.0625 5 7 C5 6.01 5 5.02 5 4 C4.01 4 3.02 4 2 4 C1.67 3.34 1.34 2.68 1 2 C0.34 1.67 -0.32 1.34 -1 1 C-0.67 0.67 -0.34 0.34 0 0 Z " fill="#478E89" transform="translate(285,68)"/>
<path d="M0 0 C0.66 0.33 1.32 0.66 2 1 C-0.31 4.3 -2.62 7.6 -5 11 C-5.33 9.68 -5.66 8.36 -6 7 C-5.34 7 -4.68 7 -4 7 C-4.33 6.01 -4.66 5.02 -5 4 C-3.35 2.68 -1.7 1.36 0 0 Z " fill="#4D9691" transform="translate(114,102)"/>
<path d="M0 0 C3.23630934 1.61815467 4.72495356 4.68198143 6 8 C5.25 10.4375 5.25 10.4375 4 12 C1.24331998 8.04476345 0.4682121 4.77576339 0 0 Z " fill="#F8B254" transform="translate(279,304)"/>
<path d="M0 0 C0.33 0 0.66 0 1 0 C1.08119503 2.24940295 1.13927819 4.49964871 1.1875 6.75 C1.22230469 8.00296875 1.25710937 9.2559375 1.29296875 10.546875 C0.98802939 14.14109357 0.45605371 15.44725126 -2 18 C-1.33333333 12 -0.66666667 6 0 0 Z " fill="#F9C47C" transform="translate(232,265)"/>
<path d="M0 0 C0.33 0 0.66 0 1 0 C2.58444052 6.39014027 3.20287276 11.50448709 2 18 C1.67 18 1.34 18 1 18 C-0.0712828 11.97403427 -0.09945415 6.11090483 0 0 Z " fill="#7CB3AF" transform="translate(233,154)"/>
<path d="M0 0 C3.39417765 3.12621626 5.6062718 5.56541027 7 10 C5.109375 9.78515625 5.109375 9.78515625 3 9 C1.953125 6.93359375 1.953125 6.93359375 1.25 4.4375 C1.00765625 3.61121094 0.7653125 2.78492187 0.515625 1.93359375 C0.34546875 1.29550781 0.1753125 0.65742187 0 0 Z " fill="#44908B" transform="translate(304,87)"/>
<path d="M0 0 C1.90389849 2.85584773 2.69462177 4.9311762 3.625 8.1875 C4.01558594 9.53908203 4.01558594 9.53908203 4.4140625 10.91796875 C4.60742188 11.60503906 4.80078125 12.29210937 5 13 C3.046875 12.2109375 3.046875 12.2109375 1 11 C0.16354169 7.23593762 0 3.85635778 0 0 Z " fill="#559B96" transform="translate(240,80)"/>
<path d="M0 0 C3.19199167 2.41556126 5.74716687 4.68003538 8 8 C7.67 8.66 7.34 9.32 7 10 C4.625 8.9375 4.625 8.9375 2 7 C0.6875 3.3125 0.6875 3.3125 0 0 Z " fill="#519993" transform="translate(296,77)"/>
<path d="M0 0 C2.475 0.495 2.475 0.495 5 1 C5 1.66 5 2.32 5 3 C5.66 3 6.32 3 7 3 C7 3.99 7 4.98 7 6 C7.66 6.33 8.32 6.66 9 7 C6.62051228 6.82374165 5.29774151 6.30280227 3.62109375 4.59765625 C2.37884514 3.09350908 1.18623944 1.54870149 0 0 Z " fill="#F8B65D" transform="translate(279,343)"/>
<path d="M0 0 C0.33 0 0.66 0 1 0 C1.08133791 1.91595968 1.13934367 3.83291932 1.1875 5.75 C1.22230469 6.81734375 1.25710937 7.8846875 1.29296875 8.984375 C0.97082786 12.30027855 0.22851086 13.59016673 -2 16 C-1.42978066 10.6496441 -0.79265639 5.32212148 0 0 Z " fill="#F9C075" transform="translate(138,250)"/>
<path d="M0 0 C3.09592835 3.5087188 4.74194623 6.49197399 6 11 C5.01 10.34 4.02 9.68 3 9 C3 8.34 3 7.68 3 7 C2.01 6.67 1.02 6.34 0 6 C0 4.02 0 2.04 0 0 Z " fill="#4D9791" transform="translate(314,102)"/>
<path d="M0 0 C0.66 0.99 1.32 1.98 2 3 C0.35 5.64 -1.3 8.28 -3 11 C-4 9 -4 9 -3.1875 5.5 C-2 2 -2 2 0 0 Z " fill="#408E88" transform="translate(283,103)"/>
<path d="M0 0 C0.66 0 1.32 0 2 0 C1.52797514 4.24822374 -0.96655518 6.19989709 -4 9 C-4.33 8.01 -4.66 7.02 -5 6 C-4.01 6 -3.02 6 -2 6 C-1.855625 5.195625 -1.71125 4.39125 -1.5625 3.5625 C-1 1 -1 1 0 0 Z " fill="#F7B255" transform="translate(215,381)"/>
<path d="M0 0 C0.99 0 1.98 0 3 0 C2.54803755 1.60597325 2.08817673 3.20972508 1.625 4.8125 C1.36976563 5.70582031 1.11453125 6.59914063 0.8515625 7.51953125 C0 10 0 10 -2 13 C-1.85966889 11.02043559 -1.7125877 9.04134859 -1.5625 7.0625 C-1.48128906 5.96035156 -1.40007812 4.85820312 -1.31640625 3.72265625 C-1 1 -1 1 0 0 Z " fill="#F9C073" transform="translate(241,328)"/>
<path d="M0 0 C0.99 0 1.98 0 3 0 C3.33 2.64 3.66 5.28 4 8 C4.99 8.33 5.98 8.66 7 9 C6.01 9.33 5.02 9.66 4 10 C0 3.375 0 3.375 0 0 Z " fill="#F8B862" transform="translate(253,303)"/>
<path d="M0 0 C0.66 0.33 1.32 0.66 2 1 C0.8125 3.5 0.8125 3.5 -1 6 C-3.6875 6.3125 -3.6875 6.3125 -6 6 C-4.60755361 3.21510722 -2.44008012 1.87698471 0 0 Z " fill="#F7AC47" transform="translate(291,310)"/>
<path d="M0 0 C4.51617599 -0.07654536 8.59085217 -0.10228696 13 1 C12.34 1.66 11.68 2.32 11 3 C6.90823045 2.69690596 3.53834904 2.12300942 0 0 Z " fill="#71ACA8" transform="translate(261,189)"/>
<path d="M0 0 C0 3.78176921 -1.07555275 5.76967782 -3 9 C-5.1875 10.375 -5.1875 10.375 -7 11 C-5.5140084 6.40693504 -3.14985318 3.56430755 0 0 Z " fill="#60A19C" transform="translate(101,81)"/>
<path d="M0 0 C0 3.19633438 -0.33810135 4.34096216 -2 7 C-4.125 8.75 -4.125 8.75 -6 10 C-4.79157144 5.56909529 -3.48331435 3.01887244 0 0 Z " fill="#1F7A73" transform="translate(106,76)"/>
<path d="M0 0 C0.99 0 1.98 0 3 0 C1.90931332 3.77545388 1.0916909 6.47043472 -2 9 C-2.33 7.68 -2.66 6.36 -3 5 C-1.68 4.34 -0.36 3.68 1 3 C0.67 2.01 0.34 1.02 0 0 Z " fill="#F8B65D" transform="translate(226,362)"/>
<path d="M0 0 C0.99 0.33 1.98 0.66 3 1 C1.02 5.455 1.02 5.455 -1 10 C-2.10191901 5.59232396 -1.58706842 4.1077065 0 0 Z " fill="#509791" transform="translate(105,114)"/>
<path d="M0 0 C2.475 0.99 2.475 0.99 5 2 C5.33 4.97 5.66 7.94 6 11 C3.84733158 8.84733158 3.06525538 7.15226256 1.875 4.375 C1.52179688 3.55773437 1.16859375 2.74046875 0.8046875 1.8984375 C0.53914063 1.27195312 0.27359375 0.64546875 0 0 Z " fill="#67A5A0" transform="translate(292,112)"/>
<path d="M0 0 C0.66 0 1.32 0 2 0 C2 0.66 2 1.32 2 2 C2.66 2 3.32 2 4 2 C4.12375 2.804375 4.2475 3.60875 4.375 4.4375 C4.684375 5.7059375 4.684375 5.7059375 5 7 C5.66 7.33 6.32 7.66 7 8 C6.34 8.66 5.68 9.32 5 10 C3.35 6.7 1.7 3.4 0 0 Z " fill="#F7B254" transform="translate(174,365)"/>
<path d="M0 0 C0.66 0 1.32 0 2 0 C1.45773019 3.79588866 -0.20127563 5.47211993 -3 8 C-2.45276317 4.62537285 -1.9451 2.91765 0 0 Z " fill="#F7AE4B" transform="translate(303,328)"/>
<path d="M0 0 C0 2.31 0 4.62 0 7 C-0.99 5.68 -1.98 4.36 -3 3 C-3.66 3.99 -4.32 4.98 -5 6 C-5 4.35 -5 2.7 -5 1 C-3 0 -3 0 0 0 Z " fill="#F9C075" transform="translate(152,301)"/>
<path d="M0 0 C0.33 0 0.66 0 1 0 C1.33 3.3 1.66 6.6 2 10 C1.01 10.33 0.02 10.66 -1 11 C-0.67 7.37 -0.34 3.74 0 0 Z " fill="#F8B964" transform="translate(229,284)"/>
<path d="M0 0 C0.33 0 0.66 0 1 0 C0.28571429 8.57142857 0.28571429 8.57142857 -3 12 C-2.49202991 7.6822542 -1.80317221 3.96697886 0 0 Z " fill="#F69D26" transform="translate(306,275)"/>
<path d="M0 0 C3.25543229 0.34879632 4.01873107 1.02133261 6.25 3.5625 C6.8275 4.366875 7.405 5.17125 8 6 C2.33846154 4.52307692 2.33846154 4.52307692 0.625 1.875 C0.41875 1.25625 0.2125 0.6375 0 0 Z " fill="#599995" transform="translate(114,68)"/>
<path d="M0 0 C0.33 0.99 0.66 1.98 1 3 C-0.65 4.65 -2.3 6.3 -4 8 C-3.50168276 4.31245243 -2.89932357 2.39509338 0 0 Z " fill="#F7AC49" transform="translate(206,393)"/>
<path d="M0 0 C0.99 0 1.98 0 3 0 C1.90931332 3.77545388 1.0916909 6.47043472 -2 9 C-2.33 7.68 -2.66 6.36 -3 5 C-2.01 4.34 -1.02 3.68 0 3 C0 2.01 0 1.02 0 0 Z " fill="#F8B963" transform="translate(313,312)"/>
<path d="M0 0 C0.75 1.75 0.75 1.75 1 4 C-0.9375 6.25 -0.9375 6.25 -3 8 C-3.33 7.34 -3.66 6.68 -4 6 C-2.68 4.02 -1.36 2.04 0 0 Z " fill="#418D88" transform="translate(93,92)"/>
<path d="M0 0 C0.66 0.99 1.32 1.98 2 3 C-0.05233685 5.2477975 -1.00667261 6.0022242 -4 7 C-2.92598892 4.08482708 -2.22189824 2.22189824 0 0 Z " fill="#43908A" transform="translate(271,83)"/>
<path d="M0 0 C0.33 0 0.66 0 1 0 C0.67 2.97 0.34 5.94 0 9 C-0.66 9 -1.32 9 -2 9 C-1.125 2.25 -1.125 2.25 0 0 Z " fill="#F69D27" transform="translate(329,272)"/>
<path d="M0 0 C0.33 0.66 0.66 1.32 1 2 C-1.625 5.875 -1.625 5.875 -5 7 C-3.75023244 3.34683329 -3.32901247 2.21934164 0 0 Z " fill="#378882" transform="translate(183,39)"/>
<path d="M0 0 C0.33 0 0.66 0 1 0 C1.33 2.31 1.66 4.62 2 7 C1.34 7 0.68 7 0 7 C0 4.69 0 2.38 0 0 Z " fill="#00726B" transform="translate(0,329)"/>
</svg>
