<?xml version="1.0" encoding="UTF-8"?>
<svg version="1.1" xmlns="http://www.w3.org/2000/svg" width="781" height="521">
<path d="M0 0 C190.83818182 0 190.83818182 0 224.30859375 31.1484375 C240.80615639 48.44997493 244.66715521 70.61372652 244.3125 93.609375 C243.67749281 111.69649648 235.6996111 127.04111736 222.53466797 139.37255859 C215.18263992 145.84339119 207.07813863 150.28376374 198.23828125 154.40625 C195.00239604 155.78281007 195.00239604 155.78281007 193 158 C194.05316406 158.3403125 195.10632813 158.680625 196.19140625 159.03125 C217.60484028 166.13906004 235.64684047 176.12385192 246.1875 197 C255.58651386 218.43764578 253.61894646 243.20620034 245.44140625 264.6875 C233.79148676 291.4602147 211.68641345 307.94470121 185.3203125 318.46875 C178.15877585 321.0387544 170.95442261 322.77742175 163.5 324.25 C162.27361816 324.49508301 162.27361816 324.49508301 161.02246094 324.74511719 C108.22787509 334.45137386 53.67941611 327 0 327 C0 219.09 0 111.18 0 0 Z M76 58 C76 84.07 76 110.14 76 137 C84.415 137.061875 92.83 137.12375 101.5 137.1875 C104.12130859 137.21481201 106.74261719 137.24212402 109.44335938 137.27026367 C135.85173149 137.55555151 135.85173149 137.55555151 159.15234375 126.25390625 C167.26025342 118.00886492 168.34223697 107.93106074 168.4375 96.875 C168.44773193 95.95702637 168.45796387 95.03905273 168.46850586 94.09326172 C168.33970496 84.03598291 165.8898723 74.58036059 159 67 C150.44073726 60.53622531 139.47040335 57.86379742 128.90283203 57.88647461 C127.7056958 57.88659546 126.50855957 57.88671631 125.27514648 57.88684082 C123.41031616 57.89451477 123.41031616 57.89451477 121.5078125 57.90234375 C120.354021 57.90335083 119.20022949 57.90435791 118.01147461 57.90539551 C113.71597291 57.91061363 109.42048542 57.92457488 105.125 57.9375 C90.708125 57.9684375 90.708125 57.9684375 76 58 Z M76 189 C76 215.4 76 241.8 76 269 C85.8175 269.04125 95.635 269.0825 105.75 269.125 C108.82538086 269.14320801 111.90076172 269.16141602 115.06933594 269.18017578 C117.54101386 269.18602385 120.01269372 269.19111866 122.484375 269.1953125 C123.74008301 269.20554443 124.99579102 269.21577637 126.28955078 269.22631836 C141.69660541 269.22932873 156.62795342 267.32847552 168 256 C176.21522613 245.81168462 178.12099666 232.75133702 177 220 C175.61220197 210.62079834 172.4401648 202.27653508 164.875 196.1875 C156.43237095 190.75338019 146.03890503 188.86785112 136.16845703 188.88647461 C135.17119756 188.88629381 135.17119756 188.88629381 134.15379143 188.88610935 C132.02176329 188.88685014 129.88982481 188.89443996 127.7578125 188.90234375 C126.44675537 188.90335083 125.13569824 188.90435791 123.78491211 188.90539551 C118.89826581 188.9106184 114.01163201 188.92457966 109.125 188.9375 C98.19375 188.958125 87.2625 188.97875 76 189 Z " fill="#0EA49D" transform="translate(23,151)"/>
<path d="M0 0 C2.07949518 1.8365635 4.10358514 3.69627616 6.0703125 5.65234375 C4.96566185 11.49261475 1.6261397 16.67465671 -1.08422852 21.90478516 C-2.1043877 23.87759122 -3.11209593 25.85641205 -4.11914062 27.8359375 C-13.65202523 46.39921192 -13.65202523 46.39921192 -21.9296875 51.65234375 C-31.07018323 54.3500595 -37.79730311 50.91348418 -45.7421875 46.58984375 C-46.43143311 46.21456543 -47.12067871 45.83928711 -47.83081055 45.45263672 C-48.54406494 45.06479004 -49.25731934 44.67694336 -49.9921875 44.27734375 C-50.71124268 43.88562988 -51.43029785 43.49391602 -52.17114258 43.09033203 C-70.03478445 33.57486704 -91.35277331 28.56664147 -111.3046875 34.27734375 C-120.20664638 37.63613034 -126.82629204 41.87659465 -130.9296875 50.65234375 C-133.86393459 57.91809844 -134.28317892 66.74248126 -131.5546875 74.15234375 C-131.0184375 75.30734375 -130.4821875 76.46234375 -129.9296875 77.65234375 C-129.6203125 78.43609375 -129.3109375 79.21984375 -128.9921875 80.02734375 C-127.61708606 82.13044007 -126.1713489 82.54775698 -123.9296875 83.65234375 C-122.73556751 84.51828757 -121.54870821 85.39428652 -120.3671875 86.27734375 C-115.89510394 89.26776154 -111.26183047 91.39819051 -106.3203125 93.46875 C-105.48843918 93.81785934 -104.65656586 94.16696869 -103.79948425 94.5266571 C-95.60132206 97.89739454 -87.2358842 100.57884535 -78.7696228 103.18328857 C-45.84158043 113.36557966 -13.78164536 125.69717368 3.28637695 157.70629883 C14.54267215 180.03235157 13.62730667 208.80982305 6.12011719 232.19213867 C1.58723257 245.3960413 -4.75641441 257.07704202 -13.9296875 267.65234375 C-14.6928125 268.66296875 -15.4559375 269.67359375 -16.2421875 270.71484375 C-23.86029972 279.04161757 -33.19175092 285.08430445 -42.9296875 290.65234375 C-43.72632813 291.11382812 -44.52296875 291.5753125 -45.34375 292.05078125 C-76.99848946 309.12911148 -118.14936686 308.637637 -151.8515625 298.6640625 C-163.75919175 294.94933483 -175.29519219 290.73495099 -186.18847656 284.62304688 C-187.9587277 283.6361542 -189.74890679 282.69701077 -191.546875 281.76171875 C-201.08116115 276.69238268 -209.29613257 270.28589868 -216.9296875 262.65234375 C-216.54711694 259.69323863 -215.39220248 257.4764759 -213.84765625 254.95703125 C-213.41606201 254.24949707 -212.98446777 253.54196289 -212.53979492 252.81298828 C-211.83560425 251.68159424 -211.83560425 251.68159424 -211.1171875 250.52734375 C-210.63161377 249.74343262 -210.14604004 248.95952148 -209.64575195 248.15185547 C-208.08375054 245.64556794 -206.50883573 243.14785902 -204.9296875 240.65234375 C-204.40246094 239.81509766 -203.87523437 238.97785156 -203.33203125 238.11523438 C-201.77599618 235.65883994 -200.20055721 233.21618929 -198.6171875 230.77734375 C-197.89921997 229.64594971 -197.89921997 229.64594971 -197.16674805 228.49169922 C-193.44877036 222.84952192 -189.3729109 218.82348363 -182.5546875 217.27734375 C-173.39795039 215.59860861 -166.5794278 220.2449373 -158.9296875 224.65234375 C-139.45442787 236.24568141 -139.45442787 236.24568141 -117.9296875 242.65234375 C-116.8778125 242.81669922 -116.8778125 242.81669922 -115.8046875 242.984375 C-100.55407674 245.02686751 -83.65697842 244.14935778 -70.9296875 234.65234375 C-63.83145668 227.87477223 -61.89247359 219.53840052 -61.47607422 210.03393555 C-61.29526058 200.75058246 -62.41057069 194.10488015 -68.48046875 186.78125 C-77.3751833 177.92597986 -90.28949991 173.56980587 -102.09643555 170.21582031 C-159.18738038 153.97539164 -159.18738038 153.97539164 -177.9296875 137.65234375 C-178.79851562 136.90597656 -179.66734375 136.15960938 -180.5625 135.390625 C-196.81075989 120.35974238 -204.2925262 98.44697049 -205.25 76.7109375 C-205.99028951 48.81956747 -198.6465421 24.746093 -179.33544922 4.01733398 C-164.94400219 -10.82521737 -146.72528594 -19.94885668 -126.9296875 -25.34765625 C-125.7025 -25.68796875 -124.4753125 -26.02828125 -123.2109375 -26.37890625 C-82.93114279 -35.36695961 -32.47179799 -26.02073412 0 0 Z " fill="#0EA49D" transform="translate(513.9296875,176.34765625)"/>
<path d="M0 0 C26.69305027 4.71053828 47.91916462 13.39017605 64.12890625 35.96484375 C77.99655646 57.25313411 79.45752058 79.59816047 79.35644531 104.32226562 C79.35723764 106.83543468 79.35933934 109.34860361 79.36264038 111.86177063 C79.36721221 117.93519354 79.35805282 124.00845842 79.34235242 130.0818584 C79.32470166 137.15971354 79.32339094 144.23754484 79.32273683 151.31541854 C79.32105533 163.93540415 79.30531267 176.55533183 79.28125 189.17529297 C79.25791911 201.42041506 79.24381345 213.6655004 79.24023438 225.91064453 C79.24001161 226.6672967 79.23978884 227.42394887 79.23955932 228.20352989 C79.23911672 229.72784927 79.2386747 231.25216866 79.23823325 232.77648804 C79.23801369 233.52841723 79.23779412 234.28034642 79.2375679 235.05506134 C79.23724392 236.18012354 79.23724392 236.18012354 79.2369134 237.32791427 C79.23321863 249.01226249 79.22186594 260.6966048 79.2094375 272.38094655 C79.20500001 276.61490167 79.20156279 280.84885624 79.19881538 285.08281279 C79.1939809 292.41039415 79.18389816 299.737944 79.16798782 307.0655117 C79.16344992 309.50329011 79.16062266 311.94107235 79.15958023 314.37885475 C79.15784562 317.69038366 79.1499927 321.00184029 79.14044189 324.31335449 C79.14130838 325.29103743 79.14217486 326.26872037 79.1430676 327.27603006 C79.13730588 328.59568962 79.13730588 328.59568962 79.13142776 329.94200897 C79.13018127 330.70704349 79.12893477 331.47207801 79.1276505 332.26029539 C79 334 79 334 78 335 C52.26 335 26.52 335 0 335 C0 224.45 0 113.9 0 0 Z " fill="#0EA49D" transform="translate(568,144)"/>
<path d="M0 0 C0.6350647 0.56267578 0.6350647 0.56267578 1.28295898 1.13671875 C19.88114657 17.37976668 42.56922953 27.43847296 67.6015625 26.38671875 C79.45922774 25.52970099 91.15709547 23.03602046 101.8828125 17.85546875 C102.58148437 17.57316406 103.28015625 17.29085937 104 17 C104.66 17.33 105.32 17.66 106 18 C105.68546875 18.57105469 105.3709375 19.14210938 105.046875 19.73046875 C93.98599089 40.68617992 92.1006458 64.42163632 98.60205078 87.10009766 C102.53853855 99.63493622 108.59428263 110.96770086 117.75 120.51171875 C119 122 119 122 119 124 C117.73027344 123.90460938 116.46054687 123.80921875 115.15234375 123.7109375 C88.91493513 121.93634018 64.46951667 127.41237356 43.90234375 144.43359375 C36.70203899 150.80048504 31.26339302 157.66153722 26.41015625 165.9453125 C25.71212891 166.96238281 25.71212891 166.96238281 25 168 C24.34 168 23.68 168 23 168 C22.76925781 167.05640625 22.53851562 166.1128125 22.30078125 165.140625 C16.19852054 140.8366289 4.51327986 120.63626862 -17 107 C-26.89644887 101.1517411 -36.77920979 97.4505174 -48 95 C-46.68956943 91.06870829 -45.30988726 90.87931894 -41.6875 89 C-21.11660301 77.38147911 -8.53131894 57.22548054 -2 35 C1.13315227 23.69666596 0.19204774 11.62332 0 0 Z " fill="#F9AD3D" transform="translate(654,16)"/>
</svg>
