<?xml version="1.0" encoding="UTF-8"?>
<svg version="1.1" xmlns="http://www.w3.org/2000/svg" width="155" height="162">
<path d="M0 0 C3.91840745 1.46935213 6.35411794 2.9456899 9.3125 5.9375 C10.00988281 6.62714844 10.70726563 7.31679688 11.42578125 8.02734375 C13 10 13 10 13 13 C12.34 13 11.68 13 11 13 C11 13.66 11 14.32 11 15 C9.53125 16.4453125 9.53125 16.4453125 7.5 18.125 C3.09504091 21.86726613 -0.95072491 25.88060759 -5 30 C-5.845625 30.825 -6.69125 31.65 -7.5625 32.5 C-9.58053902 34.56978361 -11.44177742 36.67563696 -13.3125 38.875 C-16.30748972 42.34425056 -19.53874044 45.2635496 -23.03125 48.21875 C-25.6781785 50.61359007 -27.90107563 53.28791481 -30.1953125 56.015625 C-32.69273958 58.76171365 -35.49746673 61.05203918 -38.3984375 63.359375 C-40.25469349 65.26090552 -40.72100577 66.37538758 -41 69 C-40.33131686 72.11332248 -40.33131686 72.11332248 -37.9375 73.1875 C-37.298125 73.455625 -36.65875 73.72375 -36 74 C-36 74.66 -36 75.32 -36 76 C-35.071875 76.37125 -35.071875 76.37125 -34.125 76.75 C-31.64931313 78.20628639 -31.04874998 79.37812506 -30 82 C-26.23318786 81.43045162 -24.52194106 79.88765569 -21.87402344 77.21459961 C-21.07349548 76.41384506 -20.27296753 75.61309052 -19.44818115 74.78807068 C-18.59387512 73.91828079 -17.73956909 73.04849091 -16.859375 72.15234375 C-15.53610199 70.82270348 -15.53610199 70.82270348 -14.18609619 69.46620178 C-11.84621423 67.11236944 -9.51304602 64.75226246 -7.18286133 62.38885498 C-4.80185337 59.97711583 -2.41229147 57.57388521 -0.0234375 55.16992188 C4.6589678 50.45441941 9.33270728 45.73045844 14 41 C17.27178691 42.92242298 20.09444039 44.77865738 22.8125 47.4375 C23.41707031 48.01371094 24.02164063 48.58992188 24.64453125 49.18359375 C26 51 26 51 26 55 C25.34 55 24.68 55 24 55 C24 55.66 24 56.32 24 57 C23.34 57 22.68 57 22 57 C22 57.66 22 58.32 22 59 C21.34 59 20.68 59 20 59 C20 59.66 20 60.32 20 61 C18.125 63.125 18.125 63.125 16 65 C15.34 65 14.68 65 14 65 C14 65.66 14 66.32 14 67 C13.34 67 12.68 67 12 67 C12 67.66 12 68.32 12 69 C11.34 69 10.68 69 10 69 C10 69.66 10 70.32 10 71 C9.34 71 8.68 71 8 71 C8 71.66 8 72.32 8 73 C7.34 73 6.68 73 6 73 C6 73.66 6 74.32 6 75 C5.34 75 4.68 75 4 75 C4 75.66 4 76.32 4 77 C3.34 77 2.68 77 2 77 C2 77.66 2 78.32 2 79 C1.34 79 0.68 79 0 79 C0 79.66 0 80.32 0 81 C-0.66 81 -1.32 81 -2 81 C-2 81.66 -2 82.32 -2 83 C-2.66 83 -3.32 83 -4 83 C-4 83.66 -4 84.32 -4 85 C-4.66 85 -5.32 85 -6 85 C-6 85.66 -6 86.32 -6 87 C-6.66 87 -7.32 87 -8 87 C-8 87.66 -8 88.32 -8 89 C-8.66 89 -9.32 89 -10 89 C-10 89.66 -10 90.32 -10 91 C-10.66 91 -11.32 91 -12 91 C-12 91.66 -12 92.32 -12 93 C-12.66 93 -13.32 93 -14 93 C-14.495 94.98 -14.495 94.98 -15 97 C-14.360625 97.268125 -13.72125 97.53625 -13.0625 97.8125 C-11 99 -11 99 -10 102 C-9.0409375 102.4640625 -9.0409375 102.4640625 -8.0625 102.9375 C-5.54531085 104.2342338 -5.03113052 105.4221737 -4 108 C-3.34 108 -2.68 108 -2 108 C-2 108.66 -2 109.32 -2 110 C0.26619169 110.41697745 0.26619169 110.41697745 3 110 C5.06139055 108.4060962 6.73275676 106.90101868 8.5246582 105.04296875 C9.05208115 104.51627594 9.57950409 103.98958313 10.12290955 103.44692993 C11.86098285 101.70537687 13.58068345 99.94679434 15.30078125 98.1875 C16.50323445 96.97572012 17.70679733 95.76504045 18.91142273 94.55541992 C22.07735164 91.37041015 25.22797891 88.17067146 28.37567139 84.96765137 C31.59096378 81.70119071 34.82047624 78.44885747 38.04882812 75.1953125 C44.3798978 68.8106359 50.69489503 62.41031172 57 56 C60.59340736 58.07739821 63.14261766 59.99411131 65.8125 63.1875 C66.41707031 63.90292969 67.02164063 64.61835937 67.64453125 65.35546875 C68.09183594 65.89816406 68.53914062 66.44085938 69 67 C67.3255737 71.36769886 64.06484147 74.20122277 60.80615234 77.42089844 C60.1718782 78.05546463 59.53760406 78.69003082 58.8841095 79.34382629 C56.78942522 81.43711882 54.68774898 83.5232408 52.5859375 85.609375 C51.1310443 87.06053753 49.67659244 88.51214267 48.2225647 89.96417236 C44.39649074 93.78261418 40.56444838 97.59501149 36.73114014 101.40618896 C32.81974796 105.29711379 28.91401915 109.19371428 25.0078125 113.08984375 C17.34407973 120.73213399 9.67403095 128.36805174 2 136 C-2.36769886 134.3255737 -5.20122277 131.06484147 -8.42089844 127.80615234 C-9.05546463 127.1718782 -9.69003082 126.53760406 -10.34382629 125.8841095 C-12.43711882 123.78942522 -14.5232408 121.68774898 -16.609375 119.5859375 C-18.06053753 118.1310443 -19.51214267 116.67659244 -20.96417236 115.2225647 C-24.78261418 111.39649074 -28.59501149 107.56444838 -32.40618896 103.73114014 C-36.29711379 99.81974796 -40.19371428 95.91401915 -44.08984375 92.0078125 C-51.73213399 84.34407973 -59.36805174 76.67403095 -67 69 C-65.3255737 64.63230114 -62.06484147 61.79877723 -58.80615234 58.57910156 C-58.1718782 57.94453537 -57.53760406 57.30996918 -56.8841095 56.65617371 C-54.78942522 54.56288118 -52.68774898 52.4767592 -50.5859375 50.390625 C-49.1310443 48.93946247 -47.67659244 47.48785733 -46.2225647 46.03582764 C-42.39649074 42.21738582 -38.56444838 38.40498851 -34.73114014 34.59381104 C-30.81974796 30.70288621 -26.91401915 26.80628572 -23.0078125 22.91015625 C-15.34407973 15.26786601 -7.67403095 7.63194826 0 0 Z " fill="#E0C514" transform="translate(75,16)"/>
<path d="M0 0 C5.77876365 2.19422777 5.77876365 2.19422777 8 5 C8 5.66 8 6.32 8 7 C8.66 7 9.32 7 10 7 C10 7.66 10 8.32 10 9 C10.66 9 11.32 9 12 9 C12 9.66 12 10.32 12 11 C12.66 11 13.32 11 14 11 C14 11.66 14 12.32 14 13 C14.66 13 15.32 13 16 13 C16 13.66 16 14.32 16 15 C16.66 15 17.32 15 18 15 C20.125 16.875 20.125 16.875 22 19 C22 19.66 22 20.32 22 21 C22.66 21 23.32 21 24 21 C24 21.66 24 22.32 24 23 C24.66 23 25.32 23 26 23 C26 23.66 26 24.32 26 25 C26.66 25 27.32 25 28 25 C28 25.66 28 26.32 28 27 C28.66 27 29.32 27 30 27 C30 27.66 30 28.32 30 29 C31.32 29.66 32.64 30.32 34 31 C34 31.66 34 32.32 34 33 C34.66 33 35.32 33 36 33 C36 33.66 36 34.32 36 35 C36.66 35 37.32 35 38 35 C38 35.66 38 36.32 38 37 C38.66 37 39.32 37 40 37 C39.56165331 41.88032399 37.53432737 43.95275048 34.11303711 47.34106445 C33.35203957 48.10293816 33.35203957 48.10293816 32.57566833 48.88020325 C30.90220241 50.55089016 29.21503356 52.20697459 27.52734375 53.86328125 C26.36204958 55.02111241 25.19763743 56.17983191 24.03407288 57.33940125 C20.97350696 60.38471575 17.90111884 63.4178257 14.82611084 66.44854736 C11.68869195 69.54500328 8.5626064 72.65285447 5.43554688 75.75976562 C-0.69860204 81.85105232 -6.84528752 87.92949206 -13 94 C-16.59340736 91.92260179 -19.14261766 90.00588869 -21.8125 86.8125 C-22.41707031 86.09707031 -23.02164063 85.38164063 -23.64453125 84.64453125 C-24.09183594 84.10183594 -24.53914063 83.55914062 -25 83 C-23.5700913 79.72253191 -21.82662815 77.60479667 -19.26879883 75.12109375 C-18.50493362 74.37351807 -17.74106842 73.62594238 -16.95405579 72.85571289 C-16.13003769 72.05770264 -15.30601959 71.25969238 -14.45703125 70.4375 C-12.72679184 68.73740824 -10.9969871 67.03687401 -9.26757812 65.3359375 C-6.53348209 62.65778015 -3.79570484 59.98369021 -1.05004883 57.31738281 C1.59615701 54.74341297 4.22671543 52.15427434 6.85546875 49.5625 C8.10060493 48.36548462 8.10060493 48.36548462 9.37089539 47.14428711 C10.50250847 46.02292358 10.50250847 46.02292358 11.65698242 44.87890625 C12.32823654 44.2247876 12.99949066 43.57066895 13.69108582 42.89672852 C15.2424126 41.08642843 15.2424126 41.08642843 14.78488159 38.85479736 C13.89327779 36.74779881 12.91760657 35.57284005 11.27734375 33.984375 C10.73916016 33.45585938 10.20097656 32.92734375 9.64648438 32.3828125 C9.08251953 31.84398438 8.51855469 31.30515625 7.9375 30.75 C7.36966797 30.19570313 6.80183594 29.64140625 6.21679688 29.0703125 C4.81787531 27.70665786 3.40980886 26.35239583 2 25 C-1.27709958 26.42894156 -3.38583423 28.16824785 -5.86303711 30.73120117 C-6.6073851 31.49506638 -7.35173309 32.25893158 -8.11863708 33.04594421 C-8.91351028 33.86996231 -9.70838348 34.69398041 -10.52734375 35.54296875 C-12.2227192 37.27336284 -13.91870125 39.00316278 -15.61523438 40.73242188 C-18.28595224 43.46520936 -20.95177697 46.2022731 -23.60717773 48.94995117 C-26.17138621 51.59855072 -28.75388465 54.22812549 -31.33984375 56.85546875 C-32.13269272 57.68555954 -32.92554169 58.51565033 -33.74241638 59.37089539 C-34.48991653 60.12530411 -35.23741669 60.87971283 -36.00756836 61.65698242 C-36.98541542 62.6638636 -36.98541542 62.6638636 -37.98301697 63.69108582 C-40 65 -40 65 -42.74952698 64.7089386 C-43.86351112 64.35801399 -43.86351112 64.35801399 -45 64 C-45.495 62.515 -45.495 62.515 -46 61 C-46.66 61 -47.32 61 -48 61 C-48 60.34 -48 59.68 -48 59 C-48.66 59 -49.32 59 -50 59 C-50 58.34 -50 57.68 -50 57 C-50.66 57 -51.32 57 -52 57 C-52.64859009 55.18406677 -52.64859009 55.18406677 -53 53 C-51.12286967 50.67469469 -49.29398881 48.71372357 -47.1484375 46.66015625 C-46.53739166 46.05618515 -45.92634583 45.45221405 -45.29678345 44.8299408 C-43.33425565 42.89544018 -41.35512971 40.9789638 -39.375 39.0625 C-38.06266507 37.77524669 -36.75145278 36.48684779 -35.44140625 35.19726562 C-33.01911072 32.81579444 -30.59042001 30.44128201 -28.15380859 28.07446289 C-25.41103798 25.40733829 -22.69904372 22.71145882 -20 20 C-13.33333333 13.33333333 -6.66666667 6.66666667 0 0 Z " fill="#E0C618" transform="translate(89,30)"/>
<path d="M0 0 C3.59340736 2.07739821 6.14261766 3.99411131 8.8125 7.1875 C9.41707031 7.90292969 10.02164063 8.61835937 10.64453125 9.35546875 C11.09183594 9.89816406 11.53914063 10.44085938 12 11 C11.34 12.32 10.68 13.64 10 15 C9.9175 14.443125 9.835 13.88625 9.75 13.3125 C8.71796127 10.13038058 7.36934388 8.36934388 5 6 C1.37526891 4.64164329 1.37526891 4.64164329 -2 4 C-2.13284393 4.86284355 -2.13284393 4.86284355 -2.26837158 5.74311829 C-3.19909259 8.6141484 -4.58278853 9.97029421 -6.70605469 12.11010742 C-7.88297882 13.30605782 -7.88297882 13.30605782 -9.0836792 14.52616882 C-10.36483612 15.80292229 -10.36483612 15.80292229 -11.671875 17.10546875 C-12.54644348 17.98527908 -13.42101196 18.86508942 -14.32208252 19.77156067 C-16.64891686 22.10646656 -18.98320289 24.43362719 -21.31970215 26.7588501 C-22.74789726 28.18539968 -24.16908032 29.61856328 -25.58789062 31.05444336 C-28.31392127 33.81110623 -31.05321967 36.55385882 -33.796875 39.29296875 C-35.06588654 40.57883125 -35.06588654 40.57883125 -36.36053467 41.89067078 C-37.1577594 42.67851456 -37.95498413 43.46635834 -38.77636719 44.27807617 C-39.47284363 44.97438644 -40.16932007 45.67069672 -40.88690186 46.3881073 C-43.28016656 48.2137139 -45.03985892 48.64603144 -48 49 C-43.06002739 43.03881703 -37.71470138 37.58513698 -32.2265625 32.12890625 C-31.3028183 31.206577 -30.3790741 30.28424774 -29.42733765 29.33396912 C-26.99324569 26.90366186 -24.55616403 24.47637504 -22.1184082 22.04974365 C-19.6226689 19.56430636 -17.12982292 17.07597068 -14.63671875 14.58789062 C-9.7606114 9.72244904 -4.88133369 4.86019802 0 0 Z " fill="#E0C935" transform="translate(132,72)"/>
<path d="M0 0 C3.63272584 1.98890171 6.15933247 4.01410354 8.8125 7.1875 C9.41707031 7.90292969 10.02164063 8.61835937 10.64453125 9.35546875 C11.09183594 9.89816406 11.53914063 10.44085938 12 11 C11.34 12.32 10.68 13.64 10 15 C9.87625 14.1646875 9.87625 14.1646875 9.75 13.3125 C8.71796127 10.13038058 7.36934388 8.36934388 5 6 C1.37526891 4.64164329 1.37526891 4.64164329 -2 4 C-2.13148438 4.86044922 -2.13148438 4.86044922 -2.265625 5.73828125 C-3.20174973 8.62134625 -4.61553375 10.04902159 -6.75 12.1875 C-7.76320313 13.22970703 -7.76320313 13.22970703 -8.796875 14.29296875 C-11.24454151 16.18947631 -12.95663753 16.64352223 -16 17 C-11.01595832 10.96668638 -5.58084697 5.4815829 0 0 Z " fill="#E0C939" transform="translate(132,72)"/>
<path d="M0 0 C0.33 1.32 0.66 2.64 1 4 C0.01 4.33 -0.98 4.66 -2 5 C-3.01351664 6.65848177 -4.01120795 8.32665961 -5 10 C-7.5 12.8125 -7.5 12.8125 -10 15 C-10.99 15 -11.98 15 -13 15 C-12.67 17.64 -12.34 20.28 -12 23 C-13.65 21.68 -15.3 20.36 -17 19 C-15.60652624 15.84795019 -13.97514921 13.73828227 -11.5234375 11.328125 C-10.51796875 10.33232422 -10.51796875 10.33232422 -9.4921875 9.31640625 C-8.79351562 8.63449219 -8.09484375 7.95257813 -7.375 7.25 C-6.66859375 6.55261719 -5.9621875 5.85523437 -5.234375 5.13671875 C-3.49401297 3.41987512 -1.74915019 1.70788168 0 0 Z " fill="#E0C934" transform="translate(25,66)"/>
<path d="M0 0 C0.33 1.32 0.66 2.64 1 4 C-0.75 6.25 -0.75 6.25 -3 8 C-3.99 8 -4.98 8 -6 8 C-6 8.99 -6 9.98 -6 11 C-6.66 11 -7.32 11 -8 11 C-8 11.66 -8 12.32 -8 13 C-8.66 13 -9.32 13 -10 13 C-10.226875 13.598125 -10.45375 14.19625 -10.6875 14.8125 C-12.3611297 17.60188284 -14.08817726 18.6168842 -17 20 C-17.66 19.67 -18.32 19.34 -19 19 C-12.73 12.73 -6.46 6.46 0 0 Z " fill="#E2CC43" transform="translate(58,61)"/>
<path d="M0 0 C1.65 0.66 3.3 1.32 5 2 C1.25 4 1.25 4 -1 4 C-1 4.66 -1 5.32 -1 6 C-1.66 6 -2.32 6 -3 6 C-3 6.66 -3 7.32 -3 8 C-8.47619048 13 -8.47619048 13 -11 13 C-11 13.99 -11 14.98 -11 16 C-12.65 16.33 -14.3 16.66 -16 17 C-11.01595832 10.96668638 -5.58084697 5.4815829 0 0 Z " fill="#E6D662" transform="translate(75,16)"/>
<path d="M0 0 C0.33 0.66 0.66 1.32 1 2 C0.67 2.99 0.34 3.98 0 5 C-0.66 5 -1.32 5 -2 5 C-2 5.66 -2 6.32 -2 7 C-3.875 9.125 -3.875 9.125 -6 11 C-6.66 11 -7.32 11 -8 11 C-8 11.66 -8 12.32 -8 13 C-8.66 13 -9.32 13 -10 13 C-10 13.66 -10 14.32 -10 15 C-11.32 14.67 -12.64 14.34 -14 14 C-9.38 9.38 -4.76 4.76 0 0 Z " fill="#E7D662" transform="translate(58,33)"/>
<path d="M0 0 C1.32 0.33 2.64 0.66 4 1 C3.67 3.31 3.34 5.62 3 8 C2.34 8 1.68 8 1 8 C1 8.66 1 9.32 1 10 C0.34 10 -0.32 10 -1 10 C-1 10.66 -1 11.32 -1 12 C-1.66 12 -2.32 12 -3 12 C-3 12.66 -3 13.32 -3 14 C-4.65 14.33 -6.3 14.66 -8 15 C-7.06409496 13.8944811 -6.12620142 12.79064547 -5.1875 11.6875 C-4.66542969 11.07261719 -4.14335938 10.45773438 -3.60546875 9.82421875 C-2 8 -2 8 -0.28125 6.4375 C0.1415625 5.963125 0.564375 5.48875 1 5 C0.76956136 2.34533951 0.76956136 2.34533951 0 0 Z " fill="#EBDC70" transform="translate(103,66)"/>
<path d="M0 0 C0.33 0.66 0.66 1.32 1 2 C-0.25338175 5.41831386 -2.21356378 7.69123856 -5 10 C-7.75 10.75 -7.75 10.75 -10 11 C-6.79239749 7.19364503 -3.59253891 3.45436433 0 0 Z " fill="#E7D55C" transform="translate(66,80)"/>
<path d="M0 0 C5.21202675 2.52704327 8.3880132 6.61773359 12 11 C11.34 12.32 10.68 13.64 10 15 C9.89300781 14.41347656 9.78601563 13.82695313 9.67578125 13.22265625 C8.1272132 8.12938909 3.36197523 3.85206073 -1 1 C-0.67 0.67 -0.34 0.34 0 0 Z " fill="#EDE188" transform="translate(132,72)"/>
<path d="M0 0 C0.33 0.99 0.66 1.98 1 3 C-0.5625 5.625 -0.5625 5.625 -3 8 C-6.25 8.8125 -6.25 8.8125 -9 9 C-9.33 8.34 -9.66 7.68 -10 7 C-9.11054687 6.84724609 -9.11054687 6.84724609 -8.203125 6.69140625 C-5.63815889 5.88644348 -4.57256517 4.88433098 -2.75 2.9375 C-2.22921875 2.38964844 -1.7084375 1.84179688 -1.171875 1.27734375 C-0.78515625 0.85582031 -0.3984375 0.43429688 0 0 Z " fill="#E8D75D" transform="translate(55,91)"/>
<path d="M0 0 C0 3.10551666 -0.5393715 4.35261084 -2 7 C-2.66 7 -3.32 7 -4 7 C-4.33 7.99 -4.66 8.98 -5 10 C-6.65 10.33 -8.3 10.66 -10 11 C-6.79239749 7.19364503 -3.59253891 3.45436433 0 0 Z " fill="#E8D761" transform="translate(85,61)"/>
<path d="M0 0 C2.97 0.33 5.94 0.66 9 1 C8.01 2.32 7.02 3.64 6 5 C2.83884224 3.63016497 2.0072908 3.0109362 0 0 Z " fill="#E8D769" transform="translate(71,147)"/>
<path d="M0 0 C0.66 0 1.32 0 2 0 C2.33 2.64 2.66 5.28 3 8 C1.35 6.68 -0.3 5.36 -2 4 C-1.34 2.68 -0.68 1.36 0 0 Z " fill="#E5D462" transform="translate(10,81)"/>
<path d="M0 0 C0.33 0.66 0.66 1.32 1 2 C0.34 2 -0.32 2 -1 2 C-1 2.66 -1 3.32 -1 4 C-1.66 4 -2.32 4 -3 4 C-3 4.66 -3 5.32 -3 6 C-4.65 6.33 -6.3 6.66 -8 7 C-3.375 1.125 -3.375 1.125 0 0 Z " fill="#E4D153" transform="translate(103,74)"/>
<path d="M0 0 C-0.625 1.875 -0.625 1.875 -2 4 C-5.125 5.25 -5.125 5.25 -8 6 C-3.375 0 -3.375 0 0 0 Z " fill="#E1CC41" transform="translate(85,37)"/>
<path d="M0 0 C4.6875 3.61328125 4.6875 3.61328125 6 5 C6 5.99 6 6.98 6 8 C4 7 2 6 0 5 C0 3.35 0 1.7 0 0 Z " fill="#E9D869" transform="translate(82,21)"/>
<path d="M0 0 C0.33 1.32 0.66 2.64 1 4 C-1.94837771 5.80178638 -4.89978679 7.47639094 -8 9 C-7.04270084 7.87411986 -6.08412105 6.7493285 -5.125 5.625 C-4.59132813 4.99851562 -4.05765625 4.37203125 -3.5078125 3.7265625 C-2.38567993 2.44163349 -1.20628025 1.20628025 0 0 Z " fill="#EADC74" transform="translate(25,66)"/>
<path d="M0 0 C2 1.25 2 1.25 4 3 C4 4.32 4 5.64 4 7 C3.34 7 2.68 7 2 7 C2 7.66 2 8.32 2 9 C1.34 8.67 0.68 8.34 0 8 C0 5.36 0 2.72 0 0 Z " fill="#EADC78" transform="translate(97,64)"/>
<path d="M0 0 C0.33 0.66 0.66 1.32 1 2 C0.67 2.66 0.34 3.32 0 4 C0.66 4 1.32 4 2 4 C2.33 5.65 2.66 7.3 3 9 C1.35 7.35 -0.3 5.7 -2 4 C-1.34 2.68 -0.68 1.36 0 0 Z " fill="#E9DC74" transform="translate(66,109)"/>
<path d="M0 0 C0.33 1.32 0.66 2.64 1 4 C0.34 4 -0.32 4 -1 4 C-1 4.66 -1 5.32 -1 6 C-2.65 6.33 -4.3 6.66 -6 7 C-4.02 4.69 -2.04 2.38 0 0 Z " fill="#E9D96A" transform="translate(43,48)"/>
<path d="M0 0 C0 3.10551666 -0.5393715 4.35261084 -2 7 C-3.32 6.67 -4.64 6.34 -6 6 C-4.02 4.02 -2.04 2.04 0 0 Z " fill="#E9DA6D" transform="translate(94,81)"/>
<path d="M0 0 C0.33 0.99 0.66 1.98 1 3 C0 5 0 5 -3.0625 6.125 C-4.031875 6.41375 -5.00125 6.7025 -6 7 C-4.02 4.69 -2.04 2.38 0 0 Z " fill="#EADC73" transform="translate(32,59)"/>
</svg>
