<?xml version="1.0" encoding="UTF-8"?>
<svg version="1.1" xmlns="http://www.w3.org/2000/svg" width="437" height="462">
<path d="M0 0 C2.66523362 0.01610855 5.32895175 0.00002203 7.99414062 -0.01904297 C28.06832631 -0.04210376 46.70290809 3.69835536 65.72851562 9.95361328 C67.12336182 10.4113916 67.12336182 10.4113916 68.54638672 10.87841797 C69.42246582 11.17264648 70.29854492 11.466875 71.20117188 11.77001953 C71.98886963 12.03371338 72.77656738 12.29740723 73.58813477 12.5690918 C75.66601562 13.39111328 75.66601562 13.39111328 78.66601562 15.39111328 C77.16356133 18.93433438 75.10349298 21.16182852 72.35351562 23.82861328 C71.59425781 24.56982422 70.835 25.31103516 70.05273438 26.07470703 C69.26511719 26.83912109 68.4775 27.60353516 67.66601562 28.39111328 C65.99802358 30.05645351 64.3314027 31.72316801 62.66601562 33.39111328 C61.79203125 34.25349609 60.91804687 35.11587891 60.01757812 36.00439453 C55.19329956 40.78029208 50.48889634 45.55785082 46.20117188 50.83251953 C44.49849868 52.56118773 42.83055142 53.33590208 40.66601562 54.39111328 C39.98333425 55.71631831 39.31531152 57.0492351 38.66601562 58.39111328 C37.67601562 58.72111328 36.68601563 59.05111328 35.66601562 59.39111328 C34.97348796 60.71119951 34.31082076 62.04707141 33.66601562 63.39111328 C32.43368285 64.80507463 31.14635618 66.17206253 29.82226562 67.50048828 C28.69498047 68.63164062 28.69498047 68.63164062 27.54492188 69.78564453 C26.75988281 70.56294922 25.97484375 71.34025391 25.16601562 72.14111328 C23.98845703 73.33027344 23.98845703 73.33027344 22.78710938 74.54345703 C22.03558594 75.29240234 21.2840625 76.04134766 20.50976562 76.81298828 C19.82076172 77.49973633 19.13175781 78.18648438 18.421875 78.89404297 C16.66601562 80.39111328 16.66601562 80.39111328 14.66601562 80.39111328 C14.31023437 81.23416016 14.31023437 81.23416016 13.94726562 82.09423828 C12.37653866 84.9100537 10.45130098 86.87066744 8.16601562 89.14111328 C7.37195313 89.94033203 6.57789063 90.73955078 5.75976562 91.56298828 C3.66601562 93.39111328 3.66601562 93.39111328 1.66601562 93.39111328 C1.29476562 94.25736328 1.29476562 94.25736328 0.91601562 95.14111328 C-0.51698426 97.72051307 -2.11823114 99.4523292 -4.33398438 101.39111328 C-4.99398437 101.39111328 -5.65398437 101.39111328 -6.33398438 101.39111328 C-6.60210937 102.03048828 -6.87023437 102.66986328 -7.14648438 103.32861328 C-8.33398438 105.39111328 -8.33398438 105.39111328 -11.33398438 106.39111328 C-11.66398438 107.05111328 -11.99398437 107.71111328 -12.33398438 108.39111328 C-12.66398438 109.05111328 -12.99398437 109.71111328 -13.33398438 110.39111328 C-14.32398438 110.72111328 -15.31398437 111.05111328 -16.33398438 111.39111328 C-16.66398438 112.38111328 -16.99398437 113.37111328 -17.33398438 114.39111328 C-17.99398437 114.39111328 -18.65398437 114.39111328 -19.33398438 114.39111328 C-19.60210937 115.03048828 -19.87023437 115.66986328 -20.14648438 116.32861328 C-21.33398438 118.39111328 -21.33398438 118.39111328 -24.33398438 119.39111328 C-24.66398438 120.38111328 -24.99398437 121.37111328 -25.33398438 122.39111328 C-25.99398437 122.39111328 -26.65398437 122.39111328 -27.33398438 122.39111328 C-27.33398438 123.05111328 -27.33398438 123.71111328 -27.33398438 124.39111328 C-27.99398437 124.39111328 -28.65398437 124.39111328 -29.33398438 124.39111328 C-29.66398438 125.38111328 -29.99398437 126.37111328 -30.33398438 127.39111328 C-30.99398437 127.39111328 -31.65398437 127.39111328 -32.33398438 127.39111328 C-32.60210937 128.03048828 -32.87023437 128.66986328 -33.14648438 129.32861328 C-34.33398438 131.39111328 -34.33398438 131.39111328 -37.33398438 132.39111328 C-37.66398438 133.38111328 -37.99398437 134.37111328 -38.33398438 135.39111328 C-38.99398437 135.39111328 -39.65398437 135.39111328 -40.33398438 135.39111328 C-40.33398438 136.05111328 -40.33398438 136.71111328 -40.33398438 137.39111328 C-40.99398437 137.39111328 -41.65398437 137.39111328 -42.33398438 137.39111328 C-42.66398438 138.38111328 -42.99398437 139.37111328 -43.33398438 140.39111328 C-43.99398437 140.39111328 -44.65398437 140.39111328 -45.33398438 140.39111328 C-45.66398438 141.38111328 -45.99398437 142.37111328 -46.33398438 143.39111328 C-46.99398437 143.39111328 -47.65398437 143.39111328 -48.33398438 143.39111328 C-48.33398438 144.05111328 -48.33398438 144.71111328 -48.33398438 145.39111328 C-48.99398437 145.39111328 -49.65398437 145.39111328 -50.33398438 145.39111328 C-50.66398438 146.38111328 -50.99398437 147.37111328 -51.33398438 148.39111328 C-51.99398437 148.39111328 -52.65398437 148.39111328 -53.33398438 148.39111328 C-53.33398438 149.05111328 -53.33398438 149.71111328 -53.33398438 150.39111328 C-53.99398437 150.39111328 -54.65398437 150.39111328 -55.33398438 150.39111328 C-55.66398438 151.38111328 -55.99398437 152.37111328 -56.33398438 153.39111328 C-56.99398437 153.39111328 -57.65398437 153.39111328 -58.33398438 153.39111328 C-58.66398438 154.38111328 -58.99398437 155.37111328 -59.33398438 156.39111328 C-59.99398437 156.39111328 -60.65398437 156.39111328 -61.33398438 156.39111328 C-61.33398438 157.05111328 -61.33398438 157.71111328 -61.33398438 158.39111328 C-61.99398437 158.39111328 -62.65398437 158.39111328 -63.33398438 158.39111328 C-63.66398437 159.38111328 -63.99398437 160.37111328 -64.33398438 161.39111328 C-64.99398437 161.39111328 -65.65398437 161.39111328 -66.33398438 161.39111328 C-66.33398438 162.05111328 -66.33398438 162.71111328 -66.33398438 163.39111328 C-66.99398437 163.39111328 -67.65398437 163.39111328 -68.33398438 163.39111328 C-68.66398437 164.38111328 -68.99398437 165.37111328 -69.33398438 166.39111328 C-69.99398437 166.39111328 -70.65398437 166.39111328 -71.33398438 166.39111328 C-71.33398438 167.05111328 -71.33398438 167.71111328 -71.33398438 168.39111328 C-72.95263222 170.1044535 -74.63054978 171.76204418 -76.33398438 173.39111328 C-77.30144198 174.35333608 -78.2662664 175.31821322 -79.22851562 176.28564453 C-81.93033854 178.98746745 -84.63216146 181.68929036 -87.33398438 184.39111328 C-85.89367651 187.67953537 -84.11277133 189.86919497 -81.5897522 192.40950012 C-80.81026718 193.19896027 -80.03078217 193.98842041 -79.22767639 194.80180359 C-78.37153244 195.65861221 -77.51538849 196.51542084 -76.63330078 197.39819336 C-75.28187737 198.76210205 -75.28187737 198.76210205 -73.90315247 200.15356445 C-71.43492471 202.6437086 -68.96018096 205.12727512 -66.48351717 207.60902619 C-64.93701557 209.15917237 -63.39181993 210.71060837 -61.84705734 212.26248741 C-56.45973988 217.67428186 -51.06674154 223.08034745 -45.66894531 228.48168945 C-40.63331332 233.52096339 -35.61098553 238.57323814 -30.59448683 243.63155252 C-26.28818442 247.97249082 -21.97236793 252.30381405 -17.64906251 256.62781829 C-15.06637413 259.21130127 -12.48785513 261.79864396 -9.9189949 264.39588356 C-7.05756001 267.28822232 -4.17666269 270.16036875 -1.29345703 273.03100586 C-0.44136154 273.89793564 0.41073395 274.76486542 1.28865051 275.6580658 C2.07377518 276.43342682 2.85889984 277.20878784 3.66781616 278.00764465 C4.34734533 278.68918515 5.0268745 279.37072565 5.72699547 280.07291889 C7.57746903 281.6143244 7.57746903 281.6143244 9.85340309 281.29008007 C10.7506463 280.84509151 10.7506463 280.84509151 11.66601562 280.39111328 C11.99601563 279.40111328 12.32601562 278.41111328 12.66601562 277.39111328 C13.32601562 277.39111328 13.98601562 277.39111328 14.66601562 277.39111328 C14.66601562 276.73111328 14.66601562 276.07111328 14.66601562 275.39111328 C15.32601562 275.39111328 15.98601562 275.39111328 16.66601562 275.39111328 C16.99601563 274.40111328 17.32601562 273.41111328 17.66601562 272.39111328 C18.32601562 272.39111328 18.98601562 272.39111328 19.66601562 272.39111328 C19.66601562 271.73111328 19.66601562 271.07111328 19.66601562 270.39111328 C20.32601562 270.39111328 20.98601562 270.39111328 21.66601562 270.39111328 C21.99601563 269.40111328 22.32601562 268.41111328 22.66601562 267.39111328 C23.32601562 267.39111328 23.98601562 267.39111328 24.66601562 267.39111328 C24.99601563 266.40111328 25.32601562 265.41111328 25.66601562 264.39111328 C26.32601562 264.39111328 26.98601562 264.39111328 27.66601562 264.39111328 C27.66601562 263.73111328 27.66601562 263.07111328 27.66601562 262.39111328 C28.32601562 262.39111328 28.98601562 262.39111328 29.66601562 262.39111328 C29.99601563 261.40111328 30.32601562 260.41111328 30.66601562 259.39111328 C31.32601562 259.39111328 31.98601562 259.39111328 32.66601562 259.39111328 C32.66601562 258.73111328 32.66601562 258.07111328 32.66601562 257.39111328 C34.04101562 255.76611328 34.04101562 255.76611328 35.66601562 254.39111328 C36.32601562 254.39111328 36.98601562 254.39111328 37.66601562 254.39111328 C37.66601562 253.73111328 37.66601562 253.07111328 37.66601562 252.39111328 C39.04101562 250.76611328 39.04101562 250.76611328 40.66601562 249.39111328 C41.32601562 249.39111328 41.98601562 249.39111328 42.66601562 249.39111328 C42.99601563 248.40111328 43.32601562 247.41111328 43.66601562 246.39111328 C44.32601562 246.39111328 44.98601562 246.39111328 45.66601562 246.39111328 C45.66601562 245.73111328 45.66601562 245.07111328 45.66601562 244.39111328 C47.04101562 242.76611328 47.04101562 242.76611328 48.66601562 241.39111328 C49.32601562 241.39111328 49.98601562 241.39111328 50.66601562 241.39111328 C50.66601562 240.73111328 50.66601562 240.07111328 50.66601562 239.39111328 C52.3160439 238.03724392 53.98345433 236.70433186 55.66601562 235.39111328 C55.99601563 234.73111328 56.32601562 234.07111328 56.66601562 233.39111328 C57.32601562 233.39111328 57.98601562 233.39111328 58.66601562 233.39111328 C58.66601562 232.73111328 58.66601562 232.07111328 58.66601562 231.39111328 C60.04101562 229.76611328 60.04101562 229.76611328 61.66601562 228.39111328 C62.32601562 228.39111328 62.98601562 228.39111328 63.66601562 228.39111328 C63.66601562 227.73111328 63.66601562 227.07111328 63.66601562 226.39111328 C65.3160439 225.03724392 66.98345433 223.70433186 68.66601562 222.39111328 C68.99601562 221.73111328 69.32601563 221.07111328 69.66601562 220.39111328 C70.32601563 220.39111328 70.98601562 220.39111328 71.66601562 220.39111328 C71.66601562 219.73111328 71.66601562 219.07111328 71.66601562 218.39111328 C73.05664063 217.05908203 73.05664063 217.05908203 74.91601562 215.57861328 C77.1059654 213.76895419 78.82517379 212.19088204 80.60351562 209.95361328 C83.0964888 206.85628298 85.96953512 204.52951544 89.05664062 202.03955078 C91.01530466 200.41731084 91.01530466 200.41731084 90.66601562 197.39111328 C88.89803567 195.5553276 88.89803567 195.5553276 86.66601562 193.82861328 C85.29809448 192.72430194 83.95573193 191.58582816 82.66601562 190.39111328 C82.66601562 189.73111328 82.66601562 189.07111328 82.66601562 188.39111328 C81.67601562 188.06111328 80.68601562 187.73111328 79.66601562 187.39111328 C79.66601562 186.73111328 79.66601562 186.07111328 79.66601562 185.39111328 C79.00601562 185.39111328 78.34601563 185.39111328 77.66601562 185.39111328 C76.04101563 184.01611328 76.04101563 184.01611328 74.66601562 182.39111328 C74.66601562 181.73111328 74.66601562 181.07111328 74.66601562 180.39111328 C74.02664063 180.12298828 73.38726562 179.85486328 72.72851562 179.57861328 C70.66601562 178.39111328 70.66601562 178.39111328 69.66601562 175.39111328 C68.33995782 174.71008985 67.00567874 174.04496721 65.66601562 173.39111328 C64.02929681 171.62233647 62.59969966 169.76115354 61.13085938 167.85205078 C59.65679745 166.03803224 59.65679745 166.03803224 56.66601562 166.39111328 C56.66601562 167.05111328 56.66601562 167.71111328 56.66601562 168.39111328 C56.00601563 168.39111328 55.34601563 168.39111328 54.66601562 168.39111328 C54.40820312 168.97358826 54.15039062 169.55606323 53.88476562 170.15618896 C52.56205872 172.58174779 51.11473108 174.19625769 49.16601562 176.14990234 C48.451875 176.87034729 47.73773438 177.59079224 47.00195312 178.33306885 C46.23109375 179.09987976 45.46023437 179.86669067 44.66601562 180.65673828 C43.87453125 181.45013611 43.08304688 182.24353394 42.26757812 183.06097412 C40.59555826 184.73435382 38.92101465 186.40521509 37.24414062 188.07373047 C34.66889164 190.63824925 32.1045051 193.21328317 29.54101562 195.78955078 C27.91665678 197.41258855 26.29167793 199.03500609 24.66601562 200.65673828 C23.89515625 201.43164612 23.12429687 202.20655396 22.33007812 203.00494385 C21.25886719 204.0666983 21.25886719 204.0666983 20.16601562 205.14990234 C19.53695312 205.77737366 18.90789062 206.40484497 18.25976562 207.05133057 C16.66601562 208.39111328 16.66601562 208.39111328 14.66601562 208.39111328 C14.32570312 209.28830078 14.32570312 209.28830078 13.97851562 210.20361328 C12.3279043 212.95463216 10.46880753 213.91595965 7.66601562 215.39111328 C5.62481774 213.77516496 3.62528625 212.10547508 1.66601562 210.39111328 C1.66601562 209.73111328 1.66601562 209.07111328 1.66601562 208.39111328 C1.00601563 208.39111328 0.34601563 208.39111328 -0.33398438 208.39111328 C-1.68785373 206.741085 -3.0207658 205.07367458 -4.33398438 203.39111328 C-4.99398437 203.06111328 -5.65398437 202.73111328 -6.33398438 202.39111328 C-6.33398438 201.73111328 -6.33398438 201.07111328 -6.33398438 200.39111328 C-6.99398437 200.39111328 -7.65398437 200.39111328 -8.33398438 200.39111328 C-9.95898438 199.01611328 -9.95898438 199.01611328 -11.33398438 197.39111328 C-11.33398438 196.73111328 -11.33398438 196.07111328 -11.33398438 195.39111328 C-12.32398438 195.06111328 -13.31398437 194.73111328 -14.33398438 194.39111328 C-14.33398438 193.73111328 -14.33398438 193.07111328 -14.33398438 192.39111328 C-14.99398437 192.39111328 -15.65398437 192.39111328 -16.33398438 192.39111328 C-16.33398438 191.73111328 -16.33398438 191.07111328 -16.33398438 190.39111328 C-16.99398437 190.39111328 -17.65398437 190.39111328 -18.33398438 190.39111328 C-18.66398438 189.40111328 -18.99398437 188.41111328 -19.33398438 187.39111328 C-9.52945579 177.44649165 0.29236016 167.51923431 10.13446331 157.61179256 C14.70371821 153.01118337 19.26720834 148.40514244 23.81811523 143.78637695 C28.20760955 139.33184115 32.61146567 134.89198811 37.02579689 130.46206856 C38.71001153 128.7667406 40.38892335 127.066128 42.0624752 125.36027336 C44.40190487 122.97748776 46.75924067 120.61394613 49.12182617 118.25415039 C49.81450592 117.53989899 50.50718567 116.82564758 51.22085571 116.0897522 C51.86720474 115.45165115 52.51355377 114.81355011 53.17948914 114.15611267 C53.73533031 113.59474074 54.29117147 113.03336882 54.86385632 112.45498562 C56.66601562 111.39111328 56.66601562 111.39111328 59.27308369 111.63584232 C61.94378746 112.47878523 63.11351359 113.37159135 65.04101562 115.37548828 C65.63398438 115.98134766 66.22695313 116.58720703 66.83789062 117.21142578 C67.44117188 117.84822266 68.04445313 118.48501953 68.66601562 119.14111328 C69.5709375 120.07310547 69.5709375 120.07310547 70.49414062 121.02392578 C71.67660208 122.24237519 72.85566012 123.46413829 74.03100586 124.68945312 C78.35636602 129.21054316 78.35636602 129.21054316 83.10351562 133.26611328 C85.23914807 135.03712555 86.79177042 136.65031537 88.54101562 138.76611328 C91.12925461 141.8827008 93.92143853 144.46911455 97.05273438 147.03173828 C98.69720049 148.41739012 100.23566249 149.7835865 101.66601562 151.39111328 C101.66601562 152.05111328 101.66601562 152.71111328 101.66601562 153.39111328 C102.32601563 153.39111328 102.98601562 153.39111328 103.66601562 153.39111328 C104.99707031 154.74121094 104.99707031 154.74121094 106.58789062 156.68017578 C110.94590468 161.80366484 115.6657308 166.54171603 120.42871094 171.28417969 C121.93087862 172.7809226 123.42754293 174.28302327 124.92382812 175.78564453 C125.88444464 176.74560126 126.84537077 177.70524828 127.80664062 178.66455078 C128.66805664 179.52483887 129.52947266 180.38512695 130.41699219 181.27148438 C132.67475827 183.51755225 132.67475827 183.51755225 135.66601562 185.39111328 C135.66601562 186.05111328 135.66601562 186.71111328 135.66601562 187.39111328 C136.65601563 187.72111328 137.64601563 188.05111328 138.66601562 188.39111328 C138.66601562 189.05111328 138.66601562 189.71111328 138.66601562 190.39111328 C139.32601563 190.39111328 139.98601562 190.39111328 140.66601562 190.39111328 C140.66601562 191.05111328 140.66601562 191.71111328 140.66601562 192.39111328 C141.65601563 192.72111328 142.64601563 193.05111328 143.66601562 193.39111328 C143.66601562 194.05111328 143.66601562 194.71111328 143.66601562 195.39111328 C144.32601563 195.39111328 144.98601562 195.39111328 145.66601562 195.39111328 C145.66601562 196.05111328 145.66601562 196.71111328 145.66601562 197.39111328 C146.32601563 197.39111328 146.98601562 197.39111328 147.66601562 197.39111328 C146.76864995 201.09274669 145.21201103 202.94784647 142.36340332 205.29066467 C136.26177344 210.51198296 130.67323854 216.25249217 125.0078125 221.93579102 C123.74577979 223.19810623 122.48352598 224.46020044 121.22106934 225.72209167 C117.81445092 229.12842458 114.41091257 232.53781975 111.00794029 235.94779468 C107.44365788 239.51835174 103.87652087 243.08605467 100.30969238 246.65406799 C93.56474904 253.40211256 86.82235769 260.15270096 80.08089113 266.90421873 C72.40206186 274.59424674 64.72037418 282.28141674 57.03845119 289.96835411 C41.24446832 305.77277399 25.45405853 321.58075974 9.66601562 337.39111328 C5.58104811 335.52018174 2.82093334 332.7714091 -0.27148438 329.57861328 C-0.78388672 329.0571875 -1.29628906 328.53576172 -1.82421875 327.99853516 C-2.84139056 326.96326881 -3.85704106 325.92650533 -4.87109375 324.88818359 C-8.54556439 321.12786083 -12.20697443 317.64927903 -16.33398438 314.39111328 C-18.14648438 312.76611328 -18.14648438 312.76611328 -19.33398438 311.39111328 C-19.33398438 310.73111328 -19.33398438 310.07111328 -19.33398438 309.39111328 C-19.99398437 309.39111328 -20.65398437 309.39111328 -21.33398438 309.39111328 C-22.95898438 308.01611328 -22.95898438 308.01611328 -24.33398438 306.39111328 C-24.33398438 305.73111328 -24.33398438 305.07111328 -24.33398438 304.39111328 C-24.91148437 304.14361328 -25.48898438 303.89611328 -26.08398438 303.64111328 C-28.66338417 302.2081134 -30.39520029 300.60686652 -32.33398438 298.39111328 C-32.33398438 297.73111328 -32.33398438 297.07111328 -32.33398438 296.39111328 C-33.32398438 296.06111328 -34.31398437 295.73111328 -35.33398438 295.39111328 C-35.33398438 294.73111328 -35.33398438 294.07111328 -35.33398438 293.39111328 C-35.99398437 293.39111328 -36.65398437 293.39111328 -37.33398438 293.39111328 C-37.33398438 292.73111328 -37.33398438 292.07111328 -37.33398438 291.39111328 C-37.99398437 291.39111328 -38.65398437 291.39111328 -39.33398438 291.39111328 C-40.81445312 289.88720703 -40.81445312 289.88720703 -42.52148438 287.82861328 C-46.76600047 282.84285113 -51.11809433 278.13553736 -56.27148438 274.07861328 C-57.29242188 273.24330078 -57.29242188 273.24330078 -58.33398438 272.39111328 C-58.33398438 271.73111328 -58.33398438 271.07111328 -58.33398438 270.39111328 C-58.99398437 270.39111328 -59.65398437 270.39111328 -60.33398438 270.39111328 C-61.95898438 269.01611328 -61.95898438 269.01611328 -63.33398438 267.39111328 C-63.33398438 266.73111328 -63.33398438 266.07111328 -63.33398438 265.39111328 C-64.32398438 265.06111328 -65.31398438 264.73111328 -66.33398438 264.39111328 C-66.33398438 263.73111328 -66.33398438 263.07111328 -66.33398438 262.39111328 C-67.32398438 262.06111328 -68.31398438 261.73111328 -69.33398438 261.39111328 C-69.33398438 260.73111328 -69.33398438 260.07111328 -69.33398438 259.39111328 C-69.99398437 259.39111328 -70.65398437 259.39111328 -71.33398438 259.39111328 C-71.33398438 258.73111328 -71.33398438 258.07111328 -71.33398438 257.39111328 C-72.32398438 257.06111328 -73.31398438 256.73111328 -74.33398438 256.39111328 C-74.33398438 255.73111328 -74.33398438 255.07111328 -74.33398438 254.39111328 C-74.97335938 254.12298828 -75.61273438 253.85486328 -76.27148438 253.57861328 C-78.33398438 252.39111328 -78.33398438 252.39111328 -79.33398438 249.39111328 C-80.65434757 248.69911382 -81.99017344 248.03639957 -83.33398438 247.39111328 C-84.75400105 246.15145403 -86.12555682 244.85530404 -87.45996094 243.52392578 C-88.26048889 242.72970215 -89.06101685 241.93547852 -89.88580322 241.1171875 C-90.74010925 240.25883301 -91.59441528 239.40047852 -92.47460938 238.51611328 C-93.35679138 237.63584473 -94.23897339 236.75557617 -95.14788818 235.84863281 C-97.48609877 233.5121308 -99.81936638 231.17081909 -102.15112305 228.82788086 C-104.06089187 226.91290565 -105.9780253 225.00538928 -107.89517593 223.09780884 C-110.17650798 220.82542305 -112.45022632 218.54545097 -114.72460938 216.26611328 C-115.58701233 215.40775879 -116.44941528 214.5494043 -117.33795166 213.66503906 C-118.51983063 212.47370361 -118.51983063 212.47370361 -119.72558594 211.25830078 C-120.42411682 210.55817871 -121.12264771 209.85805664 -121.84234619 209.13671875 C-123.33398438 207.39111328 -123.33398438 207.39111328 -123.33398438 205.39111328 C-123.91301514 205.13370361 -124.4920459 204.87629395 -125.08862305 204.61108398 C-129.2214322 202.36560749 -132.31944874 198.85891268 -135.64648438 195.57861328 C-136.39994141 194.86640625 -137.15339844 194.15419922 -137.9296875 193.42041016 C-138.63673828 192.72367188 -139.34378906 192.02693359 -140.07226562 191.30908203 C-140.72235596 190.67768311 -141.37244629 190.04628418 -142.04223633 189.39575195 C-143.33398438 187.39111328 -143.33398438 187.39111328 -143.0378418 184.64624023 C-142.80556885 183.90204834 -142.5732959 183.15785645 -142.33398438 182.39111328 C-141.67398438 182.39111328 -141.01398438 182.39111328 -140.33398438 182.39111328 C-140.08648437 181.81361328 -139.83898437 181.23611328 -139.58398438 180.64111328 C-138.15098449 178.06171349 -136.54973761 176.32989736 -134.33398438 174.39111328 C-133.67398438 174.39111328 -133.01398438 174.39111328 -132.33398438 174.39111328 C-132.06585938 173.75173828 -131.79773438 173.11236328 -131.52148438 172.45361328 C-130.33398438 170.39111328 -130.33398438 170.39111328 -127.33398438 169.39111328 C-127.00398438 168.40111328 -126.67398438 167.41111328 -126.33398438 166.39111328 C-125.67398438 166.39111328 -125.01398438 166.39111328 -124.33398438 166.39111328 C-124.06585938 165.75173828 -123.79773438 165.11236328 -123.52148438 164.45361328 C-122.33398438 162.39111328 -122.33398438 162.39111328 -119.33398438 161.39111328 C-119.00398438 160.73111328 -118.67398438 160.07111328 -118.33398438 159.39111328 C-117.33398438 157.39111328 -117.33398438 157.39111328 -114.33398438 156.39111328 C-114.00398438 155.40111328 -113.67398438 154.41111328 -113.33398438 153.39111328 C-112.67398438 153.39111328 -112.01398438 153.39111328 -111.33398438 153.39111328 C-111.06585938 152.75173828 -110.79773438 152.11236328 -110.52148438 151.45361328 C-109.33398438 149.39111328 -109.33398438 149.39111328 -106.33398438 148.39111328 C-106.00398438 147.40111328 -105.67398438 146.41111328 -105.33398438 145.39111328 C-104.67398438 145.39111328 -104.01398438 145.39111328 -103.33398438 145.39111328 C-103.33398438 144.73111328 -103.33398438 144.07111328 -103.33398438 143.39111328 C-102.67398438 143.39111328 -102.01398438 143.39111328 -101.33398438 143.39111328 C-101.00398438 142.40111328 -100.67398438 141.41111328 -100.33398438 140.39111328 C-99.67398438 140.39111328 -99.01398438 140.39111328 -98.33398438 140.39111328 C-98.33398438 139.73111328 -98.33398438 139.07111328 -98.33398438 138.39111328 C-97.67398438 138.39111328 -97.01398438 138.39111328 -96.33398438 138.39111328 C-96.00398438 137.40111328 -95.67398438 136.41111328 -95.33398438 135.39111328 C-94.67398438 135.39111328 -94.01398438 135.39111328 -93.33398438 135.39111328 C-93.00398438 134.40111328 -92.67398438 133.41111328 -92.33398438 132.39111328 C-91.67398438 132.39111328 -91.01398438 132.39111328 -90.33398438 132.39111328 C-90.33398438 131.73111328 -90.33398438 131.07111328 -90.33398438 130.39111328 C-89.67398438 130.39111328 -89.01398438 130.39111328 -88.33398438 130.39111328 C-88.00398438 129.40111328 -87.67398438 128.41111328 -87.33398438 127.39111328 C-86.67398438 127.39111328 -86.01398438 127.39111328 -85.33398438 127.39111328 C-85.33398438 126.73111328 -85.33398438 126.07111328 -85.33398438 125.39111328 C-83.95898438 123.76611328 -83.95898438 123.76611328 -82.33398438 122.39111328 C-81.67398438 122.39111328 -81.01398438 122.39111328 -80.33398438 122.39111328 C-79.83898437 120.90611328 -79.83898437 120.90611328 -79.33398438 119.39111328 C-78.67398438 119.39111328 -78.01398438 119.39111328 -77.33398438 119.39111328 C-77.33398438 118.73111328 -77.33398438 118.07111328 -77.33398438 117.39111328 C-76.67398438 117.39111328 -76.01398438 117.39111328 -75.33398438 117.39111328 C-74.83898437 115.90611328 -74.83898437 115.90611328 -74.33398438 114.39111328 C-73.67398438 114.39111328 -73.01398438 114.39111328 -72.33398438 114.39111328 C-72.33398438 113.73111328 -72.33398438 113.07111328 -72.33398438 112.39111328 C-70.95898438 110.76611328 -70.95898438 110.76611328 -69.33398438 109.39111328 C-68.67398438 109.39111328 -68.01398438 109.39111328 -67.33398438 109.39111328 C-66.83898437 107.90611328 -66.83898437 107.90611328 -66.33398438 106.39111328 C-65.67398438 106.39111328 -65.01398438 106.39111328 -64.33398438 106.39111328 C-64.33398438 105.73111328 -64.33398438 105.07111328 -64.33398438 104.39111328 C-62.95898438 102.76611328 -62.95898438 102.76611328 -61.33398438 101.39111328 C-60.67398438 101.39111328 -60.01398438 101.39111328 -59.33398438 101.39111328 C-59.33398438 100.73111328 -59.33398438 100.07111328 -59.33398438 99.39111328 C-57.95898438 97.76611328 -57.95898438 97.76611328 -56.33398438 96.39111328 C-55.67398438 96.39111328 -55.01398438 96.39111328 -54.33398438 96.39111328 C-54.00398437 95.40111328 -53.67398438 94.41111328 -53.33398438 93.39111328 C-52.67398438 93.39111328 -52.01398438 93.39111328 -51.33398438 93.39111328 C-51.33398438 92.73111328 -51.33398438 92.07111328 -51.33398438 91.39111328 C-49.95898438 89.76611328 -49.95898438 89.76611328 -48.33398438 88.39111328 C-47.67398438 88.39111328 -47.01398438 88.39111328 -46.33398438 88.39111328 C-46.33398438 87.73111328 -46.33398438 87.07111328 -46.33398438 86.39111328 C-44.95898438 84.76611328 -44.95898438 84.76611328 -43.33398438 83.39111328 C-42.67398438 83.39111328 -42.01398438 83.39111328 -41.33398438 83.39111328 C-41.33398438 82.73111328 -41.33398438 82.07111328 -41.33398438 81.39111328 C-39.6839561 80.03724392 -38.01654567 78.70433186 -36.33398438 77.39111328 C-36.00398437 76.73111328 -35.67398438 76.07111328 -35.33398438 75.39111328 C-34.67398438 75.39111328 -34.01398438 75.39111328 -33.33398438 75.39111328 C-33.33398438 74.73111328 -33.33398438 74.07111328 -33.33398438 73.39111328 C-32.01367188 72.12939453 -32.01367188 72.12939453 -30.20898438 70.70361328 C-26.9027109 67.98750627 -24.24383525 65.06330809 -21.59570312 61.71142578 C-21.17933594 61.27572266 -20.76296875 60.84001953 -20.33398438 60.39111328 C-19.67398438 60.39111328 -19.01398438 60.39111328 -18.33398438 60.39111328 C-18.06585938 59.75173828 -17.79773438 59.11236328 -17.52148438 58.45361328 C-16.33398438 56.39111328 -16.33398438 56.39111328 -13.33398438 55.39111328 C-13.04523438 54.79298828 -12.75648438 54.19486328 -12.45898438 53.57861328 C-10.96927395 50.68195413 -8.88238442 49.41824968 -6.33398438 47.39111328 C-4.72416126 45.55979117 -3.18471408 43.68912737 -1.66601562 41.78173828 C-1.22644531 41.32283203 -0.786875 40.86392578 -0.33398438 40.39111328 C0.32601562 40.39111328 0.98601562 40.39111328 1.66601562 40.39111328 C1.99601563 39.40111328 2.32601562 38.41111328 2.66601562 37.39111328 C-0.39654398 37.36406418 -3.45886297 37.3442503 -6.52148438 37.32861328 C-7.81795898 37.31604492 -7.81795898 37.31604492 -9.140625 37.30322266 C-13.35386931 37.28707996 -17.22278209 37.36691903 -21.33398438 38.39111328 C-24.06104319 38.86348591 -26.78872945 39.33153243 -29.51757812 39.79345703 C-32.56006216 40.43908818 -35.3947529 41.3773243 -38.33398438 42.39111328 C-40.37482495 42.99806457 -42.41652358 43.60213673 -44.45898438 44.20361328 C-71.21178558 52.49788648 -94.963132 68.24730013 -112.84570312 89.84423828 C-113.33683594 90.35470703 -113.82796875 90.86517578 -114.33398438 91.39111328 C-114.99398437 91.39111328 -115.65398437 91.39111328 -116.33398438 91.39111328 C-116.59179688 92.11943359 -116.84960938 92.84775391 -117.11523438 93.59814453 C-118.38611199 96.5105724 -119.87429919 98.58483357 -121.83398438 101.07861328 C-130.95086 113.41125959 -137.5113138 126.87746113 -142.33398438 141.39111328 C-142.71167969 142.47650391 -143.089375 143.56189453 -143.47851562 144.68017578 C-148.34665753 159.37576519 -149.92360071 174.0629113 -149.83398438 189.45361328 C-149.83255432 190.25416138 -149.83112427 191.05470947 -149.82965088 191.8795166 C-149.76824407 205.85043352 -148.29738398 218.93885317 -144.33398438 232.39111328 C-144.11468262 233.16213379 -143.89538086 233.9331543 -143.66943359 234.72753906 C-137.44298682 256.02805024 -125.33692337 276.63676301 -109.91601562 292.57080078 C-108.33398438 294.39111328 -108.33398438 294.39111328 -108.33398438 296.39111328 C-107.69460937 296.65923828 -107.05523437 296.92736328 -106.39648438 297.20361328 C-104.33398438 298.39111328 -104.33398438 298.39111328 -103.33398438 301.39111328 C-102.02172177 302.09835376 -100.68503099 302.76111704 -99.33398438 303.39111328 C-98.20021696 304.35742352 -97.09810609 305.36151642 -96.02148438 306.39111328 C-89.98893931 311.79221438 -83.13573631 316.03581908 -76.33398438 320.39111328 C-75.39683594 320.99568359 -74.4596875 321.60025391 -73.49414062 322.22314453 C-67.98368482 325.66173859 -62.40461113 328.11822459 -56.33398438 330.39111328 C-54.81312506 331.03688543 -53.29229234 331.68272022 -51.77148438 332.32861328 C-16.91289427 346.21715391 24.30282613 346.14123874 59.13476562 331.98095703 C62.3496744 330.51786141 65.50915362 328.975312 68.66601562 327.39111328 C69.91131526 326.79050563 71.15743904 326.19160438 72.40429688 325.59423828 C79.19701048 322.38901833 79.19701048 322.38901833 85.38476562 318.18017578 C87.66601562 316.39111328 87.66601562 316.39111328 90.66601562 316.39111328 C90.66601562 315.73111328 90.66601562 315.07111328 90.66601562 314.39111328 C92.74804687 312.69970703 92.74804687 312.69970703 95.47851562 310.82861328 C96.37183594 310.20857422 97.26515625 309.58853516 98.18554688 308.94970703 C100.66601563 307.39111328 100.66601563 307.39111328 103.66601562 306.39111328 C103.99601562 305.40111328 104.32601563 304.41111328 104.66601562 303.39111328 C105.32601563 303.39111328 105.98601562 303.39111328 106.66601562 303.39111328 C106.66601562 302.73111328 106.66601562 302.07111328 106.66601562 301.39111328 C108.14305775 300.13883844 109.62428961 298.88944806 111.15820312 297.70751953 C112.93364507 296.27347237 112.93364507 296.27347237 114.66601562 293.39111328 C115.32601563 293.39111328 115.98601562 293.39111328 116.66601562 293.39111328 C117.06820312 292.52486328 117.06820312 292.52486328 117.47851562 291.64111328 C118.69530752 289.33561286 119.96935442 287.37055136 121.66601562 285.39111328 C122.32601563 285.39111328 122.98601562 285.39111328 123.66601562 285.39111328 C123.91351563 284.66923828 124.16101563 283.94736328 124.41601562 283.20361328 C125.78842573 280.11569054 127.54169101 278.01137398 129.66601562 275.39111328 C145.55126639 253.15176221 154.43971903 225.37411675 155.35351562 198.20361328 C155.39186523 197.1164502 155.43021484 196.02928711 155.46972656 194.90917969 C156.1532863 172.0166963 152.2595568 151.35953703 143.61914062 130.07080078 C142.66601562 127.39111328 142.66601562 127.39111328 142.66601562 124.39111328 C142.00601562 124.39111328 141.34601563 124.39111328 140.66601562 124.39111328 C140.3746875 123.70146484 140.08335937 123.01181641 139.78320312 122.30126953 C137.26187003 116.52123234 134.52289295 111.3637613 130.80273438 106.26611328 C129.66601562 104.39111328 129.66601562 104.39111328 129.66601562 101.39111328 C128.67601562 101.06111328 127.68601562 100.73111328 126.66601562 100.39111328 C125.97851563 98.32861328 125.97851563 98.32861328 125.66601562 96.39111328 C125.00601562 96.39111328 124.34601563 96.39111328 123.66601562 96.39111328 C123.00601562 94.74111328 122.34601563 93.09111328 121.66601562 91.39111328 C121.00601562 91.39111328 120.34601563 91.39111328 119.66601562 91.39111328 C116.66601562 87.92957482 116.66601562 87.92957482 116.66601562 85.39111328 C116.02664063 85.12298828 115.38726562 84.85486328 114.72851562 84.57861328 C112.66601562 83.39111328 112.66601562 83.39111328 111.66601562 80.39111328 C110.35818148 79.67571683 109.02009123 79.01457255 107.66601562 78.39111328 C106.38414125 77.43231294 105.13288633 76.43117371 103.91601562 75.39111328 C103.30242187 74.87548828 102.68882812 74.35986328 102.05664062 73.82861328 C100.66601562 72.39111328 100.66601562 72.39111328 100.66601562 70.39111328 C100.09367187 70.12556641 99.52132813 69.86001953 98.93164062 69.58642578 C96.55841443 68.33434437 94.54388276 66.89747809 92.41601562 65.26611328 C91.35640625 64.45787109 91.35640625 64.45787109 90.27539062 63.63330078 C89.74429687 63.22337891 89.21320313 62.81345703 88.66601562 62.39111328 C92.28312643 54.11531525 100.34276208 47.59398679 106.72070312 41.39892578 C108.56365713 39.4967604 110.13015649 37.54517986 111.66601562 35.39111328 C116.95378506 35.72159887 120.90702184 38.87463523 124.66601562 42.39111328 C124.66601562 43.05111328 124.66601562 43.71111328 124.66601562 44.39111328 C125.25253906 44.66052734 125.8390625 44.92994141 126.44335938 45.20751953 C128.66310841 46.38956515 130.34440931 47.67211712 132.22851562 49.32861328 C132.80730469 49.83263672 133.38609375 50.33666016 133.98242188 50.85595703 C137.36733141 53.94242907 137.36733141 53.94242907 138.66601562 55.39111328 C138.66601562 56.05111328 138.66601562 56.71111328 138.66601562 57.39111328 C139.32601563 57.39111328 139.98601562 57.39111328 140.66601562 57.39111328 C142.35742187 59.03564453 142.35742187 59.03564453 144.22851562 61.20361328 C144.84855469 61.91130859 145.46859375 62.61900391 146.10742188 63.34814453 C147.66601563 65.39111328 147.66601563 65.39111328 148.66601562 68.39111328 C149.32601563 68.39111328 149.98601562 68.39111328 150.66601562 68.39111328 C151.99121094 69.88476562 151.99121094 69.88476562 153.49414062 71.97705078 C154.04392578 72.73832275 154.59371094 73.49959473 155.16015625 74.28393555 C155.73958984 75.1030542 156.31902344 75.92217285 156.91601562 76.76611328 C157.50576172 77.59232178 158.09550781 78.41853027 158.703125 79.26977539 C162.63922877 84.82717385 166.35790715 90.43435587 169.66601562 96.39111328 C170.10171875 97.13232422 170.53742188 97.87353516 170.98632812 98.63720703 C173.60089966 103.15399678 175.72223293 107.69787969 177.57617188 112.57470703 C178.35368684 114.58398405 179.17958646 116.57481359 180.03710938 118.55126953 C195.09048829 153.85828554 196.91009963 192.03499543 189.66601562 229.39111328 C189.51116699 230.21321289 189.35631836 231.0353125 189.19677734 231.88232422 C180.68079962 275.96170392 151.74600589 317.30357357 115.66601562 343.39111328 C115.08271484 343.81344238 114.49941406 344.23577148 113.8984375 344.67089844 C94.825836 358.29493293 73.64894853 368.06914368 51.04101562 374.20361328 C50.37521484 374.38641846 49.70941406 374.56922363 49.0234375 374.75756836 C33.89838801 378.59021621 18.78426866 379.92057218 3.22851562 379.76611328 C2.37650574 379.76112823 1.52449585 379.75614319 0.64666748 379.75100708 C-11.88197452 379.66524668 -24.10342569 379.34722135 -36.33398438 376.39111328 C-37.28805176 376.16536621 -38.24211914 375.93961914 -39.22509766 375.70703125 C-85.15438382 364.5327061 -126.27364726 338.59617686 -153.33398438 299.39111328 C-153.83285156 298.68857422 -154.33171875 297.98603516 -154.84570312 297.26220703 C-171.20289772 273.64510689 -181.08526576 247.11506388 -185.8737793 218.94116211 C-186.17685707 217.26177362 -186.51741936 215.58865473 -186.89770508 213.92504883 C-188.79245509 205.23919827 -188.45521321 196.6499555 -188.14648438 187.82861328 C-188.12164978 187.02875 -188.09681519 186.22888672 -188.07122803 185.40478516 C-187.70377586 173.86834828 -186.96803213 162.66179837 -184.33398438 151.39111328 C-184.10710937 150.34697266 -183.88023437 149.30283203 -183.64648438 148.22705078 C-178.78906254 127.30701812 -171.10587822 105.62515678 -158.46289062 88.09033203 C-157.14985042 86.2746781 -157.14985042 86.2746781 -156.33398438 83.39111328 C-155.67398438 83.39111328 -155.01398438 83.39111328 -154.33398438 83.39111328 C-154.10710937 82.70662109 -153.88023437 82.02212891 -153.64648438 81.31689453 C-151.99969719 77.64593142 -149.79887224 74.73719101 -147.33398438 71.57861328 C-146.8828125 70.98113281 -146.43164062 70.38365234 -145.96679688 69.76806641 C-144.80760835 68.26763747 -143.57584519 66.82386824 -142.33398438 65.39111328 C-141.67398438 65.39111328 -141.01398438 65.39111328 -140.33398438 65.39111328 C-140.06972656 64.80233398 -139.80546875 64.21355469 -139.53320312 63.60693359 C-138.29029494 61.31038744 -136.98391956 59.78278162 -135.14648438 57.93798828 C-134.5303125 57.31923828 -133.91414063 56.70048828 -133.27929688 56.06298828 C-132.63734375 55.42876953 -131.99539062 54.79455078 -131.33398438 54.14111328 C-130.37105469 53.16658203 -130.37105469 53.16658203 -129.38867188 52.17236328 C-128.7725 51.55876953 -128.15632813 50.94517578 -127.52148438 50.31298828 C-126.95816406 49.75192383 -126.39484375 49.19085938 -125.81445312 48.61279297 C-124.33398438 47.39111328 -124.33398438 47.39111328 -122.33398438 47.39111328 C-122.00398438 46.40111328 -121.67398438 45.41111328 -121.33398438 44.39111328 C-119.18164062 42.59423828 -119.18164062 42.59423828 -116.39648438 40.64111328 C-115.39617187 39.93599609 -114.39585938 39.23087891 -113.36523438 38.50439453 C-112.36492187 37.80701172 -111.36460938 37.10962891 -110.33398438 36.39111328 C-109.49867187 35.78654297 -108.66335937 35.18197266 -107.80273438 34.55908203 C-101.55065869 30.06286526 -95.03366808 26.17941611 -88.33398438 22.39111328 C-87.47289063 21.87548828 -86.61179687 21.35986328 -85.72460938 20.82861328 C-78.23864321 16.47314206 -70.37526494 13.72347709 -62.18994141 11.0078125 C-60.70144786 10.51321441 -59.21799611 10.0034542 -57.73632812 9.48876953 C-55.61186442 8.7541419 -53.47842089 8.06518486 -51.33398438 7.39111328 C-49.85865234 6.91544922 -49.85865234 6.91544922 -48.35351562 6.43017578 C-32.45266636 1.56294229 -16.5861376 -0.11864625 0 0 Z " fill="#B58B4F" transform="translate(206.333984375,63.60888671875)"/>
<path d="M0 0 C0.66 0 1.32 0 2 0 C2.18792114 0.92111572 2.18792114 0.92111572 2.37963867 1.86083984 C2.96789554 4.70208052 3.57756299 7.5383377 4.1875 10.375 C4.38408203 11.34050781 4.58066406 12.30601563 4.78320312 13.30078125 C6.68102564 22.00156755 9.45819784 31.08448714 16.8125 36.6953125 C26.07548387 42.22002073 36.51481918 44.21621405 47 46 C47 46.99 47 47.98 47 49 C46.21238281 49.09796875 45.42476563 49.1959375 44.61328125 49.296875 C31.57477611 51.0867763 19.72022397 53.34641159 10.75 63.5625 C5.94489693 73.00109531 4.04167452 83.6833568 2 94 C1.01 93.67 0.02 93.34 -1 93 C-1.81705103 90.30853779 -2.44912402 87.74687319 -3 85 C-3.33526793 83.44460323 -3.67378524 81.88990316 -4.015625 80.3359375 C-4.17998047 79.58666992 -4.34433594 78.83740234 -4.51367188 78.06542969 C-5.1111508 75.5279439 -5.88436689 73.08307138 -6.75 70.625 C-8 67 -8 67 -8 64 C-8.66 64 -9.32 64 -10 64 C-10.70125 63.0925 -11.4025 62.185 -12.125 61.25 C-19.87691027 51.64486337 -35.73764395 50.2881732 -47 48 C-46.67 47.34 -46.34 46.68 -46 46 C-43.78810739 45.48219564 -41.55297248 45.06283095 -39.3125 44.6875 C-31.52609955 43.28111258 -24.34919487 40.97303878 -17 38 C-15.87658203 37.55333984 -15.87658203 37.55333984 -14.73046875 37.09765625 C-12.51775164 35.69410431 -11.99219852 34.39818385 -11 32 C-10.68160156 31.39800781 -10.36320312 30.79601562 -10.03515625 30.17578125 C-5.77587338 22.01643215 -3.60019951 13.69446548 -1.6484375 4.72265625 C-1 2 -1 2 0 0 Z " fill="#C9A25D" transform="translate(373,23)"/>
<path d="M0 0 C0.99 0 1.98 0 3 0 C3.21914063 1.02480469 3.43828125 2.04960938 3.6640625 3.10546875 C5.33085269 12.26122626 5.33085269 12.26122626 10.875 19.1484375 C16.10894722 21.24586488 21.53185959 22.65918201 27 24 C27 24.66 27 25.32 27 26 C26.20335937 26.17015625 25.40671875 26.3403125 24.5859375 26.515625 C17.35132904 28.17025565 12.30700179 29.69299821 7 35 C6.09941608 38.21220417 5.31798091 41.42387522 4.58789062 44.67773438 C4.14996187 46.47655725 3.58296231 48.24281467 3 50 C1.515 50.495 1.515 50.495 0 51 C-0.21914063 49.90300781 -0.43828125 48.80601562 -0.6640625 47.67578125 C-0.98315685 46.22108642 -1.30353782 44.76667341 -1.625 43.3125 C-1.76550781 42.59126953 -1.90601563 41.87003906 -2.05078125 41.12695312 C-3.5324732 34.6371424 -6.38622608 32.33146705 -11.9375 28.75 C-14.89570118 27.67429048 -17.8862746 27.39629232 -21 27 C-21.99 26.67 -22.98 26.34 -24 26 C-24 25.34 -24 24.68 -24 24 C-23.05898438 23.76925781 -22.11796875 23.53851563 -21.1484375 23.30078125 C-11.38863308 21.11406815 -11.38863308 21.11406815 -4 15 C-2.33083222 10.05588279 -1.09045395 5.09947584 0 0 Z " fill="#BD9656" transform="translate(402,104)"/>
<path d="M0 0 C0.99 0.33 1.98 0.66 3 1 C-11.52 15.52 -26.04 30.04 -41 45 C-41.495 43.515 -41.495 43.515 -42 42 C-40.00212602 38.8728929 -37.55538264 36.58590339 -34.73828125 34.23046875 C-30.69812722 30.72308734 -26.92687467 26.98996013 -23.1640625 23.19140625 C-22.55443161 22.57625153 -21.94480072 21.9610968 -21.31669617 21.32730103 C-18.76529768 18.74818777 -16.21771211 16.16537501 -13.67431641 13.57836914 C-11.80020162 11.67424016 -9.92006678 9.77622603 -8.0390625 7.87890625 C-7.46201569 7.28839981 -6.88496887 6.69789337 -6.29043579 6.0894928 C-4.89778729 4.68804268 -3.45334043 3.33840722 -2 2 C-1.34 2 -0.68 2 0 2 C0 1.34 0 0.68 0 0 Z " fill="#8C6A30" transform="translate(262,351)"/>
<path d="M0 0 C0.66 0.33 1.32 0.66 2 1 C-3.34106634 7.0566159 -8.84132328 12.88693274 -14.62890625 18.51953125 C-15.63334403 19.50239721 -16.63773821 20.48530773 -17.64208984 21.46826172 C-19.16173456 22.95448218 -20.68525292 24.43535547 -22.22296143 25.90289307 C-23.6841857 27.29772758 -25.12951149 28.70915868 -26.57421875 30.12109375 C-27.42588623 30.9402124 -28.27755371 31.75933105 -29.1550293 32.60327148 C-31.27050117 35.35139737 -31.42622748 36.6176423 -31 40 C-31.33 39.34 -31.66 38.68 -32 38 C-32.66 38 -33.32 38 -34 38 C-34.495 36.515 -34.495 36.515 -35 35 C-23.45 23.45 -11.9 11.9 0 0 Z " fill="#8C6B3D" transform="translate(222,216)"/>
<path d="M0 0 C0.66 0 1.32 0 2 0 C2 0.66 2 1.32 2 2 C1.34 2 0.68 2 0 2 C-0.40140953 2.88938515 -0.40140953 2.88938515 -0.81092834 3.79673767 C-2.01534954 6.02844157 -3.23185064 7.47372663 -5.02514648 9.25219727 C-5.63595566 9.86285538 -6.24676483 10.47351349 -6.87608337 11.10267639 C-7.5344368 11.75070724 -8.19279022 12.3987381 -8.87109375 13.06640625 C-9.54922623 13.74170883 -10.2273587 14.41701141 -10.92604065 15.11277771 C-13.09187184 17.26743094 -15.26454823 19.41503035 -17.4375 21.5625 C-18.89694306 23.01190808 -20.35593275 24.46177282 -21.81445312 25.91210938 C-25.03072483 29.10873938 -28.2513233 32.3009355 -31.47581482 35.48927307 C-32.98833345 36.98843646 -34.49529189 38.4930009 -36 40 C-36.99 39.67 -37.98 39.34 -39 39 C-38.34 39 -37.68 39 -37 39 C-36.731875 38.360625 -36.46375 37.72125 -36.1875 37.0625 C-35 35 -35 35 -32 34 C-31.67 33.01 -31.34 32.02 -31 31 C-30.34 31 -29.68 31 -29 31 C-28.731875 30.360625 -28.46375 29.72125 -28.1875 29.0625 C-27 27 -27 27 -24 26 C-23.67 25.34 -23.34 24.68 -23 24 C-22 22 -22 22 -19 21 C-18.67 20.01 -18.34 19.02 -18 18 C-17.34 18 -16.68 18 -16 18 C-15.731875 17.360625 -15.46375 16.72125 -15.1875 16.0625 C-14 14 -14 14 -11 13 C-10.67 12.01 -10.34 11.02 -10 10 C-9.34 10 -8.68 10 -8 10 C-8 9.34 -8 8.68 -8 8 C-7.34 8 -6.68 8 -6 8 C-5.67 7.01 -5.34 6.02 -5 5 C-4.34 5 -3.68 5 -3 5 C-3 4.34 -3 3.68 -3 3 C-2.34 3 -1.68 3 -1 3 C-0.67 2.01 -0.34 1.02 0 0 Z " fill="#9F7940" transform="translate(111,199)"/>
<path d="M0 0 C4.96610366 0.58196527 8.71404184 2.85500485 13 5.25 C20.15880438 9.15840421 27.27998343 12.32820296 35 15 C35 15.66 35 16.32 35 17 C35.66 17.33 36.32 17.66 37 18 C32.14941982 17.31803724 27.9920368 15.42577398 23.5625 13.4375 C22.77568848 13.086875 21.98887695 12.73625 21.17822266 12.375 C13.8366373 9.04020835 6.89826387 5.1700116 0 1 C0 0.67 0 0.34 0 0 Z " fill="#604322" transform="translate(108,414)"/>
<path d="M0 0 C-3.36214972 7.52238548 -10.02926796 13.27812766 -16.23828125 18.4921875 C-18.02990139 19.97242034 -18.02990139 19.97242034 -19.60546875 21.6953125 C-21 23 -21 23 -23 23 C-23 22.34 -23 21.68 -23 21 C-22.34 21 -21.68 21 -21 21 C-20.67 20.01 -20.34 19.02 -20 18 C-19.34 18 -18.68 18 -18 18 C-18 17.34 -18 16.68 -18 16 C-17.34 16 -16.68 16 -16 16 C-15.67 15.01 -15.34 14.02 -15 13 C-14.34 13 -13.68 13 -13 13 C-12.67 12.01 -12.34 11.02 -12 10 C-11.34 10 -10.68 10 -10 10 C-10 9.34 -10 8.68 -10 8 C-9.34 8 -8.68 8 -8 8 C-7.67 7.01 -7.34 6.02 -7 5 C-6.34 5 -5.68 5 -5 5 C-5 4.34 -5 3.68 -5 3 C-2.46153846 0 -2.46153846 0 0 0 Z " fill="#9A743F" transform="translate(244,318)"/>
<path d="M0 0 C1.04940487 3.14821462 0.98606526 3.9349491 0.22265625 7.01171875 C0.03896484 7.76904297 -0.14472656 8.52636719 -0.33398438 9.30664062 C-0.53314453 10.09232422 -0.73230469 10.87800781 -0.9375 11.6875 C-1.13279297 12.48478516 -1.32808594 13.28207031 -1.52929688 14.10351562 C-2.01228382 16.07080389 -2.5051963 18.03565054 -3 20 C-3.99 19.67 -4.98 19.34 -6 19 C-7.4053516 14.56204759 -8.29241839 10.67869431 -8 6 C-7.34 6 -6.68 6 -6 6 C-5.814375 6.9590625 -5.814375 6.9590625 -5.625 7.9375 C-5.41875 8.618125 -5.2125 9.29875 -5 10 C-4.34 10.33 -3.68 10.66 -3 11 C-2.86722656 10.37351562 -2.73445313 9.74703125 -2.59765625 9.1015625 C-2.42105469 8.28429687 -2.24445313 7.46703125 -2.0625 6.625 C-1.88847656 5.81289062 -1.71445312 5.00078125 -1.53515625 4.1640625 C-1 2 -1 2 0 0 Z " fill="#967441" transform="translate(378,97)"/>
<path d="M0 0 C0.99 0.33 1.98 0.66 3 1 C-4.59 8.59 -12.18 16.18 -20 24 C-20.33 23.01 -20.66 22.02 -21 21 C-20.34 21 -19.68 21 -19 21 C-18.67 20.01 -18.34 19.02 -18 18 C-17.34 18 -16.68 18 -16 18 C-15.67 17.01 -15.34 16.02 -15 15 C-14.34 15 -13.68 15 -13 15 C-13 14.34 -13 13.68 -13 13 C-12.34 13 -11.68 13 -11 13 C-10.67 12.01 -10.34 11.02 -10 10 C-9.34 10 -8.68 10 -8 10 C-7.67 9.01 -7.34 8.02 -7 7 C-6.34 7 -5.68 7 -5 7 C-5 6.34 -5 5.68 -5 5 C-4.34 5 -3.68 5 -3 5 C-2.67 4.01 -2.34 3.02 -2 2 C-1.34 2 -0.68 2 0 2 C0 1.34 0 0.68 0 0 Z " fill="#98723D" transform="translate(319,294)"/>
<path d="M0 0 C0.99 0.33 1.98 0.66 3 1 C-3.27 7.27 -9.54 13.54 -16 20 C-16.33 19.01 -16.66 18.02 -17 17 C-14.35209899 12.85545929 -10.67702627 9.87913739 -6.97265625 6.71484375 C-4.52202077 4.58448934 -2.2596163 2.33022931 0 0 Z " fill="#815D2E" transform="translate(237,376)"/>
<path d="M0 0 C0.66 0 1.32 0 2 0 C2.36504603 1.58086048 2.71660506 3.16483907 3.0625 4.75 C3.25972656 5.63171875 3.45695312 6.5134375 3.66015625 7.421875 C3.99825872 9.98679028 3.81158635 11.57091639 3 14 C2.01 12.02 1.02 10.04 0 8 C-0.19335938 8.85464844 -0.38671875 9.70929687 -0.5859375 10.58984375 C-0.97652344 12.24693359 -0.97652344 12.24693359 -1.375 13.9375 C-1.63023437 15.03964844 -1.88546875 16.14179687 -2.1484375 17.27734375 C-2.42945313 18.17582031 -2.71046875 19.07429688 -3 20 C-3.66 20.33 -4.32 20.66 -5 21 C-4.54809906 18.43621536 -4.08872754 15.87414878 -3.625 13.3125 C-3.43550781 12.2306543 -3.43550781 12.2306543 -3.2421875 11.12695312 C-2.52507241 7.200748 -1.660678 3.66071195 0 0 Z " fill="#9C7943" transform="translate(373,23)"/>
<path d="M0 0 C-1.41773462 3.54433654 -2.67612238 4.33806119 -6 6 C-6.2578125 6.56203125 -6.515625 7.1240625 -6.78125 7.703125 C-8.48003893 10.90468875 -10.94309826 13.23274015 -13.5 15.75 C-13.99886719 16.25660156 -14.49773437 16.76320313 -15.01171875 17.28515625 C-18.74658861 21 -18.74658861 21 -21 21 C-20.505 19.515 -20.505 19.515 -20 18 C-19.34 18 -18.68 18 -18 18 C-18 17.34 -18 16.68 -18 16 C-16.625 14.375 -16.625 14.375 -15 13 C-14.34 13 -13.68 13 -13 13 C-13 12.34 -13 11.68 -13 11 C-11.34997172 9.64613064 -9.6825613 8.31321858 -8 7 C-7.67 6.34 -7.34 5.68 -7 5 C-6.34 5 -5.68 5 -5 5 C-5 4.34 -5 3.68 -5 3 C-2.46153846 0 -2.46153846 0 0 0 Z " fill="#916E3A" transform="translate(270,292)"/>
<path d="M0 0 C0.33 0.99 0.66 1.98 1 3 C-3.29 7.29 -7.58 11.58 -12 16 C-12.99 15.67 -13.98 15.34 -15 15 C-10.05 10.05 -5.1 5.1 0 0 Z " fill="#8D6E40" transform="translate(245,193)"/>
<path d="M0 0 C1.32 0.33 2.64 0.66 4 1 C4 1.99 4 2.98 4 4 C4.58265625 4.08507812 5.1653125 4.17015625 5.765625 4.2578125 C8.63540954 5.21106261 9.79310536 6.59195626 11.75 8.875 C12.67039063 9.92300781 12.67039063 9.92300781 13.609375 10.9921875 C15 13 15 13 15 16 C14.34 15.67 13.68 15.34 13 15 C13 14.34 13 13.68 13 13 C12.34 13 11.68 13 11 13 C9.375 11.625 9.375 11.625 8 10 C8 9.34 8 8.68 8 8 C7.01 7.67 6.02 7.34 5 7 C5 6.34 5 5.68 5 5 C4.01 4.67 3.02 4.34 2 4 C2 3.34 2 2.68 2 2 C1.34 2 0.68 2 0 2 C0 1.34 0 0.68 0 0 Z " fill="#75552E" transform="translate(135,321)"/>
<path d="M0 0 C0.99 0.495 0.99 0.495 2 1 C2 1.66 2 2.32 2 3 C2.57621094 3.25910156 3.15242188 3.51820313 3.74609375 3.78515625 C6.17809787 5.09599382 8.00712421 6.59597834 10.0625 8.4375 C10.73410156 9.03433594 11.40570313 9.63117188 12.09765625 10.24609375 C13.7754479 11.79296942 15.40159243 13.37171566 17 15 C13 15 13 15 10.75 12.875 C9.8425 11.92625 8.935 10.9775 8 10 C5.88682723 8.46135837 3.74852408 6.97822032 1.57421875 5.52734375 C1.05472656 5.02332031 0.53523438 4.51929688 0 4 C0 2.68 0 1.36 0 0 Z " fill="#7F5C32" transform="translate(101,362)"/>
<path d="M0 0 C2.49361571 1.20381448 4.68143083 2.45428722 7 4 C7 4.66 7 5.32 7 6 C7.66 6 8.32 6 9 6 C9.33 6.66 9.66 7.32 10 8 C13.465 7.505 13.465 7.505 17 7 C15.68 8.65 14.36 10.3 13 12 C9.34435261 10.46563424 7.01301377 8.25017578 4.25 5.4375 C3.45078125 4.63183594 2.6515625 3.82617188 1.828125 2.99609375 C0 1 0 1 0 0 Z " fill="#7F5C30" transform="translate(203,389)"/>
<path d="M0 0 C1.6852084 4.07679159 0.16939007 6.83075593 -1.4375 10.75 C-1.91058594 11.92046875 -2.38367188 13.0909375 -2.87109375 14.296875 C-3.24363281 15.18890625 -3.61617188 16.0809375 -4 17 C-4.66 16.67 -5.32 16.34 -6 16 C-5.57448104 14.08063787 -5.13408062 12.16457126 -4.6875 10.25 C-4.32205078 8.64898437 -4.32205078 8.64898437 -3.94921875 7.015625 C-3.0245175 4.07789099 -1.99907642 2.30705738 0 0 Z " fill="#8C693A" transform="translate(391,306)"/>
<path d="M0 0 C4.93885023 1.37190284 6.3945587 3.71362883 9 8 C10.31543279 9.68083079 11.64316249 11.3524116 13 13 C12.67 13.66 12.34 14.32 12 15 C10.36932995 13.25500253 8.74548753 11.50441212 7.125 9.75 C6.66480469 9.25886719 6.20460938 8.76773437 5.73046875 8.26171875 C3.33815688 5.66137976 1.35854595 3.27924885 0 0 Z " fill="#72512C" transform="translate(59,370)"/>
<path d="M0 0 C0.66 0.33 1.32 0.66 2 1 C0.59106853 2.63171123 -0.82745958 4.25513945 -2.25 5.875 C-3.03890625 6.77992188 -3.8278125 7.68484375 -4.640625 8.6171875 C-6.74691403 10.74439993 -8.25651526 11.90512306 -11 13 C-11 12.34 -11 11.68 -11 11 C-10.34 11 -9.68 11 -9 11 C-8.67 10.01 -8.34 9.02 -8 8 C-7.34 8 -6.68 8 -6 8 C-6 7.34 -6 6.68 -6 6 C-5.34 6 -4.68 6 -4 6 C-3.67 5.01 -3.34 4.02 -3 3 C-2.34 3 -1.68 3 -1 3 C-0.67 2.01 -0.34 1.02 0 0 Z " fill="#916A39" transform="translate(232,328)"/>
<path d="M0 0 C4.29 0.99 8.58 1.98 13 3 C13 3.66 13 4.32 13 5 C8.545 5.495 8.545 5.495 4 6 C4.99 5.67 5.98 5.34 7 5 C7 4.34 7 3.68 7 3 C4.69 2.67 2.38 2.34 0 2 C0 1.34 0 0.68 0 0 Z " fill="#8E6F40" transform="translate(416,125)"/>
<path d="M0 0 C6.45512034 -0.56131481 11.15439723 1.36536213 17 4 C13.02623171 5.56393356 10.18622097 4.36145292 6.25 3.0625 C4.49429688 2.49208984 4.49429688 2.49208984 2.703125 1.91015625 C1.81109375 1.60980469 0.9190625 1.30945313 0 1 C0 0.67 0 0.34 0 0 Z " fill="#664825" transform="translate(145,432)"/>
<path d="M0 0 C4.14298667 0.59834725 7.18194377 2.00664285 10.8125 4.0625 C11.78832031 4.61035156 12.76414062 5.15820312 13.76953125 5.72265625 C14.50558594 6.14417969 15.24164063 6.56570313 16 7 C13 8 13 8 10.625 7.109375 C9.75875 6.66078125 8.8925 6.2121875 8 5.75 C6.700625 5.09257812 6.700625 5.09257812 5.375 4.421875 C3.20746767 3.12420762 1.67398683 1.87222211 0 0 Z " fill="#6E5029" transform="translate(108,414)"/>
<path d="M0 0 C2.475 0.495 2.475 0.495 5 1 C4.67 3.31 4.34 5.62 4 8 C3.01 8.33 2.02 8.66 1 9 C0.67 6.03 0.34 3.06 0 0 Z " fill="#8D6D3B" transform="translate(401,146)"/>
<path d="M0 0 C0.99 0.33 1.98 0.66 3 1 C0.03 3.97 -2.94 6.94 -6 10 C-6.66 9.34 -7.32 8.68 -8 8 C-7.0479279 6.99403703 -6.08812654 5.99538437 -5.125 5 C-4.59132813 4.443125 -4.05765625 3.88625 -3.5078125 3.3125 C-2 2 -2 2 0 2 C0 1.34 0 0.68 0 0 Z " fill="#84632E" transform="translate(262,351)"/>
<path d="M0 0 C0.90105469 0.00902344 1.80210937 0.01804687 2.73046875 0.02734375 C3.41753906 0.03894531 4.10460937 0.05054688 4.8125 0.0625 C4.8125 0.3925 4.8125 0.7225 4.8125 1.0625 C-0.26226794 2.32555335 -4.91546354 3.33286084 -10.1875 3.0625 C-7.02470604 -0.10029396 -4.26614261 -0.05540445 0 0 Z " fill="#644723" transform="translate(252.1875,436.9375)"/>
<path d="M0 0 C1.32 0 2.64 0 4 0 C4.268125 0.639375 4.53625 1.27875 4.8125 1.9375 C5.88667752 4.33131686 5.88667752 4.33131686 9 5 C9.33 6.65 9.66 8.3 10 10 C8.8274869 9.04882866 7.66212985 8.08882991 6.5 7.125 C5.8503125 6.59132813 5.200625 6.05765625 4.53125 5.5078125 C4.0259375 5.01023437 3.520625 4.51265625 3 4 C3 3.34 3 2.68 3 2 C2.01 1.67 1.02 1.34 0 1 C0 0.67 0 0.34 0 0 Z " fill="#664526" transform="translate(80,267)"/>
<path d="M0 0 C0.66 0.33 1.32 0.66 2 1 C-1.3 3.31 -4.6 5.62 -8 8 C-8 7.01 -8 6.02 -8 5 C-6.3203125 3.578125 -6.3203125 3.578125 -4.125 2.25 C-3.40570313 1.80140625 -2.68640625 1.3528125 -1.9453125 0.890625 C-1.30335938 0.59671875 -0.66140625 0.3028125 0 0 Z " fill="#77572B" transform="translate(324,403)"/>
<path d="M0 0 C0.99 0 1.98 0 3 0 C3.33 2.31 3.66 4.62 4 7 C3.01 6.67 2.02 6.34 1 6 C0.34 6.66 -0.32 7.32 -1 8 C-0.67 5.36 -0.34 2.72 0 0 Z " fill="#9B7844" transform="translate(402,104)"/>
<path d="M0 0 C1.7074998 1.28062485 3.37373596 2.61767557 5 4 C5 4.66 5 5.32 5 6 C5.99 6.33 6.98 6.66 8 7 C7.01 7.33 6.02 7.66 5 8 C2.5 5.6875 2.5 5.6875 0 3 C0 2.01 0 1.02 0 0 Z " fill="#7D5930" transform="translate(93,354)"/>
<path d="M0 0 C0.99 0.33 1.98 0.66 3 1 C0.69 3.31 -1.62 5.62 -4 8 C-4.33 7.01 -4.66 6.02 -5 5 C-4.360625 4.731875 -3.72125 4.46375 -3.0625 4.1875 C-0.66868314 3.11332248 -0.66868314 3.11332248 0 0 Z " fill="#957039" transform="translate(293,320)"/>
<path d="M0 0 C0.66 0 1.32 0 2 0 C1.125 7.625 1.125 7.625 0 11 C-0.66 11 -1.32 11 -2 11 C-1.34 7.37 -0.68 3.74 0 0 Z " fill="#8D6839" transform="translate(393,294)"/>
<path d="M0 0 C2.74277578 3.19990508 4.6302836 6.00499382 6 10 C5.34 10 4.68 10 4 10 C1.1605948 6.32547562 0 4.73113419 0 0 Z " fill="#785A31" transform="translate(74,327)"/>
<path d="M0 0 C3.36591866 1.44253657 5.51047079 3.33264727 8 6 C7.67 6.66 7.34 7.32 7 8 C4.35247996 5.42215154 2.05567935 3.08351902 0 0 Z " fill="#876334" transform="translate(195,381)"/>
<path d="M0 0 C0.66 0.33 1.32 0.66 2 1 C1.04882866 2.1725131 0.08882991 3.33787015 -0.875 4.5 C-1.40867188 5.1496875 -1.94234375 5.799375 -2.4921875 6.46875 C-2.98976562 6.9740625 -3.48734375 7.479375 -4 8 C-4.66 8 -5.32 8 -6 8 C-5.67 7.01 -5.34 6.02 -5 5 C-4.34 5 -3.68 5 -3 5 C-3 4.34 -3 3.68 -3 3 C-1.5 1.375 -1.5 1.375 0 0 Z " fill="#997340" transform="translate(137,173)"/>
<path d="M0 0 C0.66 0.33 1.32 0.66 2 1 C1.04882866 2.1725131 0.08882991 3.33787015 -0.875 4.5 C-1.40867188 5.1496875 -1.94234375 5.799375 -2.4921875 6.46875 C-2.98976562 6.9740625 -3.48734375 7.479375 -4 8 C-4.66 8 -5.32 8 -6 8 C-5.67 7.01 -5.34 6.02 -5 5 C-4.34 5 -3.68 5 -3 5 C-3 4.34 -3 3.68 -3 3 C-1.5 1.375 -1.5 1.375 0 0 Z " fill="#97753F" transform="translate(145,165)"/>
<path d="M0 0 C1.65 0 3.3 0 5 0 C5 0.99 5 1.98 5 3 C2.36 3 -0.28 3 -3 3 C-2.01 2.67 -1.02 2.34 0 2 C0 1.34 0 0.68 0 0 Z " fill="#806234" transform="translate(415,69)"/>
<path d="M0 0 C2.31 1.98 4.62 3.96 7 6 C6.01 6.33 5.02 6.66 4 7 C0 2.25 0 2.25 0 0 Z " fill="#9D7641" transform="translate(145,277)"/>
<path d="M0 0 C0.33 0.66 0.66 1.32 1 2 C1.66 2 2.32 2 3 2 C1.52307692 6.67692308 1.52307692 6.67692308 -1.125 8.3125 C-2.053125 8.6528125 -2.053125 8.6528125 -3 9 C-2.67 8.01 -2.34 7.02 -2 6 C-1.34 6 -0.68 6 0 6 C0 4.02 0 2.04 0 0 Z " fill="#7C5B31" transform="translate(351,259)"/>
<path d="M0 0 C0.66 0.33 1.32 0.66 2 1 C-1.465 3.97 -1.465 3.97 -5 7 C-3.92643531 2.70574125 -3.4915227 2.25259529 0 0 Z " fill="#9D7B43" transform="translate(188,123)"/>
</svg>
