<?xml version="1.0" encoding="UTF-8"?>
<svg version="1.1" xmlns="http://www.w3.org/2000/svg" width="256" height="256">
<path d="M0 0 C1.10616669 -0.01007584 1.10616669 -0.01007584 2.23468018 -0.02035522 C4.65872036 -0.03926337 7.08248257 -0.04325584 9.5065918 -0.04541016 C11.20281587 -0.05184343 12.89903884 -0.05857218 14.59526062 -0.06558228 C18.1467038 -0.07753733 21.69804984 -0.08126496 25.24951172 -0.08007812 C29.78204718 -0.07987512 34.31395436 -0.10716605 38.84634113 -0.14162254 C42.34926671 -0.16395069 45.85204254 -0.16791385 49.35503197 -0.16685867 C51.0250585 -0.16920616 52.69508969 -0.1779813 54.36504555 -0.19352341 C66.04013612 -0.29200503 74.52353632 0.74295933 83.7878418 8.33740234 C85.40303925 10.30236274 86.37790821 12.13493671 87.49365234 14.41259766 C87.8504155 15.13747375 88.20717865 15.86234985 88.57475281 16.60919189 C88.84487686 17.16403259 89.11500092 17.71887329 89.39331055 18.29052734 C90.11026093 18.29195236 90.8272113 18.29337738 91.56588745 18.29484558 C98.36191284 18.3127633 105.15742662 18.35463453 111.95312309 18.42261791 C115.44596618 18.45673641 118.93837896 18.48197395 122.43139648 18.48608398 C126.45827965 18.49122822 130.48388418 18.53649373 134.51049805 18.58349609 C135.74943817 18.57956345 136.9883783 18.5756308 138.26486206 18.57157898 C147.47420556 18.72482317 153.99217876 20.76962191 161.20581055 26.54052734 C169.50141152 36.96928285 170.69400777 46.45016339 170.66796875 59.43652344 C170.67232076 60.87121342 170.67750554 62.30590108 170.68345642 63.74058533 C170.69680565 67.62290906 170.69742961 71.5051352 170.69489312 75.3874774 C170.69382055 78.63531224 170.69871412 81.88312756 170.70349854 85.1309582 C170.71457981 92.7971186 170.71503903 100.46323 170.70898438 108.12939453 C170.70294621 116.02230844 170.71525473 123.915044 170.73655444 131.80792749 C170.75420247 138.59882278 170.76016673 145.38966147 170.7569167 152.18057883 C170.75510867 156.23013959 170.75769182 160.27957314 170.77163124 164.32911301 C170.78425709 168.13936884 170.78222088 171.94934784 170.76922035 175.75959969 C170.76686526 177.15230086 170.76955071 178.5450218 170.77784348 179.93770027 C170.82033986 187.63367184 170.4482178 194.17766314 167.39331055 201.29052734 C167.00143555 202.32177734 166.60956055 203.35302734 166.20581055 204.41552734 C162.12502173 210.88850271 155.60202964 215.74143656 148.39331055 218.29052734 C143.44984576 219.31652506 138.70707976 219.43864839 133.68505859 219.43579102 C132.40332764 219.44082893 132.40332764 219.44082893 131.09570312 219.44596863 C128.28213023 219.45543615 125.46861712 219.45741966 122.6550293 219.45849609 C120.68976314 219.46171172 118.72449723 219.46507602 116.75923157 219.46858215 C112.64286749 219.47456301 108.52652437 219.47642314 104.41015625 219.47583008 C99.15141409 219.47572855 93.89280723 219.48937624 88.6340971 219.50660229 C84.57531626 219.51775462 80.51656779 219.51974829 76.45777321 219.51922035 C74.51981961 219.52039576 72.58186504 219.52479276 70.64392662 219.53255272 C67.92577176 219.5424175 65.20790622 219.53944906 62.48974609 219.53344727 C61.69931412 219.53906677 60.90888214 219.54468628 60.09449768 219.55047607 C52.45461081 219.50789424 45.39160956 218.39744378 38.83081055 214.29052734 C37.98389648 213.77490234 37.13698242 213.25927734 36.2644043 212.72802734 C35.64694336 212.25365234 35.02948242 211.77927734 34.39331055 211.29052734 C34.39331055 210.63052734 34.39331055 209.97052734 34.39331055 209.29052734 C33.40331055 208.96052734 32.41331055 208.63052734 31.39331055 208.29052734 C26.42493912 201.46978622 25.36488054 195.36338306 25.3815918 187.09130859 C25.38328369 186.0063208 25.38497559 184.92133301 25.38671875 183.8034668 C25.38998169 182.55956177 25.38998169 182.55956177 25.39331055 181.29052734 C24.18384766 181.30623779 24.18384766 181.30623779 22.94995117 181.32226562 C19.26443654 181.36407431 15.578972 181.38993247 11.89331055 181.41552734 C10.62487305 181.43228516 9.35643555 181.44904297 8.04956055 181.46630859 C-3.00900916 181.52390531 -11.68934562 180.33210269 -20.60668945 173.29052734 C-25.73816489 167.3089893 -27.72125783 162.33559948 -27.75386047 154.51043701 C-27.76101578 153.33010391 -27.76817108 152.14977081 -27.77554321 150.93367004 C-27.77823212 149.64216537 -27.78092102 148.35066071 -27.78369141 147.02001953 C-27.78995939 145.64326304 -27.79660648 144.26650823 -27.80360413 142.88975525 C-27.82460677 138.37231618 -27.83500281 133.85487691 -27.8449707 129.33740234 C-27.84901965 127.77988925 -27.85313661 126.22237633 -27.85732079 124.66486359 C-27.87636395 117.34673761 -27.89059693 110.02862166 -27.89893275 102.71047568 C-27.9087029 94.2733218 -27.93502011 85.83643041 -27.97543365 77.399369 C-28.00562769 70.87097733 -28.02040473 64.34266077 -28.02371377 57.81420064 C-28.02606045 53.9182591 -28.03497091 50.02259828 -28.06017494 46.12673187 C-28.08351867 42.45929113 -28.08766397 38.79231469 -28.07741356 35.1248188 C-28.07668509 33.14633828 -28.09573172 31.16788101 -28.11547852 29.1894989 C-28.06533988 20.58532407 -27.01545876 15.13631836 -21.16918945 8.54052734 C-19.90075195 7.42677734 -19.90075195 7.42677734 -18.60668945 6.29052734 C-17.40012695 5.20771484 -17.40012695 5.20771484 -16.16918945 4.10302734 C-11.10781996 0.52303428 -6.05474516 -0.00801971 0 0 Z " fill="#F4BC17" transform="translate(57.606689453125,17.70947265625)"/>
<path d="M0 0 C1.10616669 -0.01007584 1.10616669 -0.01007584 2.23468018 -0.02035522 C4.65872036 -0.03926337 7.08248257 -0.04325584 9.5065918 -0.04541016 C11.20281587 -0.05184343 12.89903884 -0.05857218 14.59526062 -0.06558228 C18.1467038 -0.07753733 21.69804984 -0.08126496 25.24951172 -0.08007812 C29.78204718 -0.07987512 34.31395436 -0.10716605 38.84634113 -0.14162254 C42.34926671 -0.16395069 45.85204254 -0.16791385 49.35503197 -0.16685867 C51.0250585 -0.16920616 52.69508969 -0.1779813 54.36504555 -0.19352341 C66.04013612 -0.29200503 74.52353632 0.74295933 83.7878418 8.33740234 C85.40303925 10.30236274 86.37790821 12.13493671 87.49365234 14.41259766 C87.8504155 15.13747375 88.20717865 15.86234985 88.57475281 16.60919189 C88.84487686 17.16403259 89.11500092 17.71887329 89.39331055 18.29052734 C90.11026093 18.29195236 90.8272113 18.29337738 91.56588745 18.29484558 C98.36191284 18.3127633 105.15742662 18.35463453 111.95312309 18.42261791 C115.44596618 18.45673641 118.93837896 18.48197395 122.43139648 18.48608398 C126.45827965 18.49122822 130.48388418 18.53649373 134.51049805 18.58349609 C135.74943817 18.57956345 136.9883783 18.5756308 138.26486206 18.57157898 C147.5982823 18.72688782 154.25223799 20.7533612 161.39331055 26.85302734 C163.1422923 28.98459886 164.22625497 30.82616445 165.39331055 33.29052734 C164.13321167 33.28386551 162.87311279 33.27720367 161.5748291 33.27033997 C149.68670312 33.20946622 137.79860885 33.16452454 125.91036224 33.13509083 C119.79881788 33.11944986 113.68739956 33.09823996 107.57592773 33.06420898 C101.67557032 33.03156002 95.77533398 33.01366252 89.87489319 33.00589561 C87.62628779 33.00036209 85.37768885 32.98955646 83.12913513 32.97333717 C79.97421054 32.95148968 76.81978326 32.94856353 73.66479492 32.94995117 C72.7397818 32.93916534 71.81476868 32.92837952 70.86172485 32.91726685 C64.26253764 32.94857577 58.58906769 33.85270198 53.1862793 37.97412109 C52.65647461 38.55291016 52.12666992 39.13169922 51.58081055 39.72802734 C51.01491211 40.34162109 50.44901367 40.95521484 49.8659668 41.58740234 C45.40381646 46.74787329 44.26896165 49.98650278 44.2663269 56.83610535 C44.26350708 57.96450836 44.26068726 59.09291138 44.25778198 60.25550842 C44.25980621 61.48933762 44.26183044 62.72316681 44.26391602 63.99438477 C44.2621637 65.29724426 44.26041138 66.60010376 44.25860596 67.94244385 C44.25404679 71.51502085 44.25581556 75.08756897 44.25898504 78.66014647 C44.26151912 82.40488624 44.25916793 86.14962354 44.25759888 89.8943634 C44.25577912 96.18828779 44.25817724 102.48220044 44.26293945 108.77612305 C44.26836989 116.03668894 44.26662752 123.29722669 44.26111305 130.55779189 C44.25656227 136.80085146 44.25594133 143.04390259 44.25855172 149.28696328 C44.26010522 153.0112363 44.26033401 156.73549614 44.25701523 160.4597683 C44.25356737 164.6197613 44.25835829 168.77970655 44.26391602 172.93969727 C44.26087967 174.77525932 44.26087967 174.77525932 44.25778198 176.64790344 C44.27333066 182.94772848 44.55518497 189.04509053 45.39331055 195.29052734 C46.05331055 195.29052734 46.71331055 195.29052734 47.39331055 195.29052734 C48.63407131 196.7925009 49.87252871 198.2966505 51.0847168 199.82177734 C52.64866016 201.5771287 54.19591189 202.47667599 56.39331055 203.29052734 C56.39331055 203.95052734 56.39331055 204.61052734 56.39331055 205.29052734 C57.05331055 205.29052734 57.71331055 205.29052734 58.39331055 205.29052734 C58.39331055 205.95052734 58.39331055 206.61052734 58.39331055 207.29052734 C58.92698242 207.43748047 59.4606543 207.58443359 60.01049805 207.73583984 C66.30893222 209.63190826 72.13562659 212.2846729 77.39331055 216.29052734 C77.72331055 217.28052734 78.05331055 218.27052734 78.39331055 219.29052734 C74.41420715 219.34920953 70.43521702 219.38435124 66.45581055 219.41552734 C65.33883789 219.43228516 64.22186523 219.44904297 63.07104492 219.46630859 C54.22050905 219.5182179 46.48875504 219.08423282 38.83081055 214.29052734 C37.98389648 213.77490234 37.13698242 213.25927734 36.2644043 212.72802734 C35.64694336 212.25365234 35.02948242 211.77927734 34.39331055 211.29052734 C34.39331055 210.63052734 34.39331055 209.97052734 34.39331055 209.29052734 C33.40331055 208.96052734 32.41331055 208.63052734 31.39331055 208.29052734 C26.42493912 201.46978622 25.36488054 195.36338306 25.3815918 187.09130859 C25.38328369 186.0063208 25.38497559 184.92133301 25.38671875 183.8034668 C25.38998169 182.55956177 25.38998169 182.55956177 25.39331055 181.29052734 C24.18384766 181.30623779 24.18384766 181.30623779 22.94995117 181.32226562 C19.26443654 181.36407431 15.578972 181.38993247 11.89331055 181.41552734 C10.62487305 181.43228516 9.35643555 181.44904297 8.04956055 181.46630859 C-3.00900916 181.52390531 -11.68934562 180.33210269 -20.60668945 173.29052734 C-25.73816489 167.3089893 -27.72125783 162.33559948 -27.75386047 154.51043701 C-27.76101578 153.33010391 -27.76817108 152.14977081 -27.77554321 150.93367004 C-27.77823212 149.64216537 -27.78092102 148.35066071 -27.78369141 147.02001953 C-27.78995939 145.64326304 -27.79660648 144.26650823 -27.80360413 142.88975525 C-27.82460677 138.37231618 -27.83500281 133.85487691 -27.8449707 129.33740234 C-27.84901965 127.77988925 -27.85313661 126.22237633 -27.85732079 124.66486359 C-27.87636395 117.34673761 -27.89059693 110.02862166 -27.89893275 102.71047568 C-27.9087029 94.2733218 -27.93502011 85.83643041 -27.97543365 77.399369 C-28.00562769 70.87097733 -28.02040473 64.34266077 -28.02371377 57.81420064 C-28.02606045 53.9182591 -28.03497091 50.02259828 -28.06017494 46.12673187 C-28.08351867 42.45929113 -28.08766397 38.79231469 -28.07741356 35.1248188 C-28.07668509 33.14633828 -28.09573172 31.16788101 -28.11547852 29.1894989 C-28.06533988 20.58532407 -27.01545876 15.13631836 -21.16918945 8.54052734 C-19.90075195 7.42677734 -19.90075195 7.42677734 -18.60668945 6.29052734 C-17.40012695 5.20771484 -17.40012695 5.20771484 -16.16918945 4.10302734 C-11.10781996 0.52303428 -6.05474516 -0.00801971 0 0 Z " fill="#F1B719" transform="translate(57.606689453125,17.70947265625)"/>
<path d="M0 0 C7.65012324 -0.11643903 15.30015328 -0.20498914 22.95096397 -0.25906086 C26.50457694 -0.28502821 30.0575786 -0.32018483 33.61083984 -0.37719727 C37.70676148 -0.44249683 41.80205261 -0.46628629 45.8984375 -0.48828125 C47.1592514 -0.51408768 48.42006531 -0.5398941 49.71908569 -0.56648254 C59.17775148 -0.56945809 65.76876363 1.38581894 73 7.5625 C74.74898176 9.69407152 75.83294442 11.53563711 77 14 C75.73990112 13.99333817 74.47980225 13.98667633 73.18151855 13.97981262 C61.29339257 13.91893888 49.40529831 13.87399719 37.5170517 13.84456348 C31.40550733 13.82892252 25.29408902 13.80771261 19.18261719 13.77368164 C13.28225977 13.74103267 7.38202344 13.72313518 1.48158264 13.71536827 C-0.76702276 13.70983474 -3.0156217 13.69902912 -5.26417542 13.68280983 C-8.41910001 13.66096233 -11.57352729 13.65803619 -14.72851562 13.65942383 C-15.65352875 13.648638 -16.57854187 13.63785217 -17.53158569 13.6267395 C-24.1307729 13.65804843 -29.80424286 14.56217464 -35.20703125 18.68359375 C-35.73683594 19.26238281 -36.26664063 19.84117188 -36.8125 20.4375 C-37.37839844 21.05109375 -37.94429687 21.6646875 -38.52734375 22.296875 C-42.98949408 27.45734594 -44.12434889 30.69597544 -44.12698364 37.545578 C-44.13121338 39.23818253 -44.13121338 39.23818253 -44.13552856 40.96498108 C-44.13350433 42.19881027 -44.1314801 43.43263947 -44.12939453 44.70385742 C-44.13114685 46.00671692 -44.13289917 47.30957642 -44.13470459 48.6519165 C-44.13926376 52.2244935 -44.13749499 55.79704162 -44.1343255 59.36961913 C-44.13179143 63.11435889 -44.13414261 66.8590962 -44.13571167 70.60383606 C-44.13753142 76.89776044 -44.13513331 83.1916731 -44.13037109 89.4855957 C-44.12494066 96.74616159 -44.12668303 104.00669935 -44.1321975 111.26726454 C-44.13674828 117.51032411 -44.13736922 123.75337525 -44.13475883 129.99643594 C-44.13320533 133.72070896 -44.13297654 137.4449688 -44.13629532 141.16924095 C-44.13974318 145.32923395 -44.13495226 149.4891792 -44.12939453 153.64916992 C-44.13141876 154.87287796 -44.13344299 156.096586 -44.13552856 157.3573761 C-44.11997989 163.65720114 -43.83812557 169.75456319 -43 176 C-42.34 176 -41.68 176 -41 176 C-39.75923923 177.50197356 -38.52078183 179.00612315 -37.30859375 180.53125 C-35.74465039 182.28660135 -34.19739866 183.18614864 -32 184 C-32 184.66 -32 185.32 -32 186 C-31.34 186 -30.68 186 -30 186 C-30 186.66 -30 187.32 -30 188 C-29.46632812 188.14695313 -28.93265625 188.29390625 -28.3828125 188.4453125 C-22.08437833 190.34138092 -16.25768395 192.99414556 -11 197 C-10.67 197.99 -10.34 198.98 -10 200 C-13.9791034 200.05868218 -17.95809353 200.0938239 -21.9375 200.125 C-23.05447266 200.14175781 -24.17144531 200.15851563 -25.32226562 200.17578125 C-34.17280149 200.22769055 -41.9045555 199.79370547 -49.5625 195 C-50.40941406 194.484375 -51.25632812 193.96875 -52.12890625 193.4375 C-52.74636719 192.963125 -53.36382812 192.48875 -54 192 C-54 191.34 -54 190.68 -54 190 C-54.99 189.67 -55.98 189.34 -57 189 C-56.95875 188.071875 -56.9175 187.14375 -56.875 186.1875 C-56.72863661 182.84190281 -56.72863661 182.84190281 -59 180 C-60.20762129 174.840695 -60.21662637 169.64322821 -60.31640625 164.37109375 C-60.33723267 163.43577316 -60.35805908 162.50045258 -60.3795166 161.53678894 C-60.44531179 158.50377167 -60.5042559 155.47067096 -60.5625 152.4375 C-60.60536869 150.35790977 -60.64825613 148.27831993 -60.69116211 146.19873047 C-61.00390499 130.46340761 -61.1170607 114.73816121 -61 99 C-64.96 99 -68.92 99 -73 99 C-75 95 -75 95 -74.8125 92.4375 C-73.90600402 89.71801205 -73.25788735 88.73071542 -71 87 C-68.51953125 86.70703125 -68.51953125 86.70703125 -65.8125 86.8125 C-64.91144531 86.83957031 -64.01039062 86.86664063 -63.08203125 86.89453125 C-62.05142578 86.94673828 -62.05142578 86.94673828 -61 87 C-61.00444122 86.2616391 -61.00888245 85.5232782 -61.01345825 84.76254272 C-61.05360669 77.78898047 -61.08402082 70.8154356 -61.10362434 63.84178734 C-61.11404167 60.256942 -61.12816316 56.67219252 -61.15087891 53.08740234 C-61.17268078 49.62498666 -61.18458404 46.16266293 -61.18975449 42.70018387 C-61.19522384 40.7426678 -61.21082504 38.78518848 -61.22659302 36.82772827 C-61.22674408 35.62693634 -61.22689514 34.42614441 -61.22705078 33.18896484 C-61.231492 32.13639496 -61.23593323 31.08382507 -61.24050903 29.99935913 C-60.97940766 26.74319545 -60.03916412 24.08177163 -59 21 C-59.33 20.34 -59.66 19.68 -60 19 C-58.73826346 15.21479038 -56.9107325 13.71668367 -54 11 C-53.113125 10.154375 -52.22625 9.30875 -51.3125 8.4375 C-41.409734 0.60951157 -30.33174558 1.51516305 -18.375 1.75 C-16.58986381 1.77009777 -14.80470575 1.78834274 -13.01953125 1.8046875 C-8.6791404 1.84841914 -4.3398154 1.91726411 0 2 C0 1.34 0 0.68 0 0 Z " fill="#E1931E" transform="translate(146,37)"/>
<path d="M0 0 C1.10616669 -0.01007584 1.10616669 -0.01007584 2.23468018 -0.02035522 C4.65872036 -0.03926337 7.08248257 -0.04325584 9.5065918 -0.04541016 C11.20281587 -0.05184343 12.89903884 -0.05857218 14.59526062 -0.06558228 C18.1467038 -0.07753733 21.69804984 -0.08126496 25.24951172 -0.08007812 C29.78204718 -0.07987512 34.31395436 -0.10716605 38.84634113 -0.14162254 C42.34926671 -0.16395069 45.85204254 -0.16791385 49.35503197 -0.16685867 C51.0250585 -0.16920616 52.69508969 -0.1779813 54.36504555 -0.19352341 C64.95190555 -0.28282559 73.2739053 0.23854546 81.95581055 6.85302734 C82.76018555 7.65740234 83.56456055 8.46177734 84.39331055 9.29052734 C84.39331055 10.28052734 84.39331055 11.27052734 84.39331055 12.29052734 C83.48621841 12.29639359 82.57912628 12.30225983 81.64454651 12.30830383 C73.06766697 12.36637064 64.49104398 12.43852704 55.91441441 12.52624226 C51.5057873 12.57084056 47.09725036 12.61011948 42.68847656 12.63696289 C38.42835372 12.66310159 34.16857984 12.70357749 29.90867424 12.75371361 C28.28895366 12.77031123 26.66917282 12.78186952 25.04937935 12.78814125 C16.65462622 12.82391362 9.26777242 13.01850497 1.39331055 16.29052734 C0.69859146 16.40459427 0.00387238 16.51866119 -0.7118988 16.63618469 C-2.75596242 17.10570185 -2.75596242 17.10570185 -3.56351662 19.01826096 C-3.90776365 19.76810886 -4.25201069 20.51795677 -4.60668945 21.29052734 C-5.02475829 22.07624587 -5.44282713 22.8619644 -5.87356472 23.67149258 C-9.38633603 30.67646519 -10.32533326 36.34344881 -10.23779297 44.12084961 C-10.24494827 45.24756073 -10.25210358 46.37427185 -10.25947571 47.53512573 C-10.27626032 51.22615218 -10.25701966 54.91594654 -10.2355957 58.60693359 C-10.23642527 61.19042562 -10.23888798 63.77391758 -10.24290466 66.35740662 C-10.24575563 71.75806051 -10.2316657 77.15826584 -10.20361328 82.55883789 C-10.17155275 88.7785023 -10.171589 94.99753948 -10.18882805 101.2172485 C-10.20475939 107.23318632 -10.19781741 113.24883534 -10.18089104 119.26478386 C-10.17572632 121.81035795 -10.17617013 124.35595007 -10.18243599 126.90152168 C-10.18791553 130.46460324 -10.1674239 134.02663754 -10.14013672 137.58959961 C-10.1466626 138.63040176 -10.15318848 139.67120392 -10.15991211 140.74354553 C-10.04077931 149.94039017 -7.72309783 157.30034634 -1.60668945 164.29052734 C-1.60668945 164.95052734 -1.60668945 165.61052734 -1.60668945 166.29052734 C-0.65793945 166.37302734 0.29081055 166.45552734 1.26831055 166.54052734 C2.81518555 166.91177734 2.81518555 166.91177734 4.39331055 167.29052734 C5.07701504 168.61520481 5.7429524 169.94916367 6.39331055 171.29052734 C8.38448463 171.98310963 10.38542414 172.64800369 12.39331055 173.29052734 C14.76831055 175.41552734 14.76831055 175.41552734 16.39331055 177.29052734 C16.06331055 178.28052734 15.73331055 179.27052734 15.39331055 180.29052734 C7.96525332 183.35017949 -3.22229444 181.99813885 -10.60668945 179.29052734 C-18.05980008 175.84433983 -22.94574447 171.72048949 -26.60668945 164.29052734 C-27.64209562 160.99444741 -27.73950696 157.95551288 -27.75386047 154.51043701 C-27.76101578 153.33010391 -27.76817108 152.14977081 -27.77554321 150.93367004 C-27.77823212 149.64216537 -27.78092102 148.35066071 -27.78369141 147.02001953 C-27.78995939 145.64326304 -27.79660648 144.26650823 -27.80360413 142.88975525 C-27.82460677 138.37231618 -27.83500281 133.85487691 -27.8449707 129.33740234 C-27.84901965 127.77988925 -27.85313661 126.22237633 -27.85732079 124.66486359 C-27.87636395 117.34673761 -27.89059693 110.02862166 -27.89893275 102.71047568 C-27.9087029 94.2733218 -27.93502011 85.83643041 -27.97543365 77.399369 C-28.00562769 70.87097733 -28.02040473 64.34266077 -28.02371377 57.81420064 C-28.02606045 53.9182591 -28.03497091 50.02259828 -28.06017494 46.12673187 C-28.08351867 42.45929113 -28.08766397 38.79231469 -28.07741356 35.1248188 C-28.07668509 33.14633828 -28.09573172 31.16788101 -28.11547852 29.1894989 C-28.06533988 20.58532407 -27.01545876 15.13631836 -21.16918945 8.54052734 C-19.90075195 7.42677734 -19.90075195 7.42677734 -18.60668945 6.29052734 C-17.40012695 5.20771484 -17.40012695 5.20771484 -16.16918945 4.10302734 C-11.10781996 0.52303428 -6.05474516 -0.00801971 0 0 Z " fill="#E0911F" transform="translate(57.606689453125,17.70947265625)"/>
<path d="M0 0 C2.484375 0.953125 2.484375 0.953125 4.03125 3.28125 C4.42828125 4.24546875 4.8253125 5.2096875 5.234375 6.203125 C5.64171875 7.15703125 6.0490625 8.1109375 6.46875 9.09375 C7.40095543 11.71826683 8.02402312 14.21102901 8.484375 16.953125 C13.56741186 17.06633356 13.56741186 17.06633356 18.484375 15.953125 C20.00204039 15.83679771 21.5248096 15.77816261 23.046875 15.765625 C24.22443359 15.74435547 24.22443359 15.74435547 25.42578125 15.72265625 C27.484375 15.953125 27.484375 15.953125 29.484375 17.953125 C29.66267395 25.24852366 27.18331259 32.28516155 24.484375 38.953125 C23.72863891 41.22033328 22.99169986 43.4926552 22.265625 45.76953125 C21.49047194 47.93608406 20.52925337 49.90601087 19.484375 51.953125 C14.02181225 52.07693649 8.56007012 52.16756326 3.09643555 52.2277832 C1.23886891 52.25289202 -0.61859927 52.28698634 -2.47583008 52.33032227 C-5.14949858 52.39113624 -7.82185865 52.4193702 -10.49609375 52.44140625 C-11.7370002 52.48011589 -11.7370002 52.48011589 -13.00297546 52.51960754 C-17.22012486 52.52164824 -18.98710196 52.35158182 -22.453125 49.73852539 C-24.42265375 47.07868241 -25.55053255 45.0355704 -26.53515625 41.8984375 C-26.83486328 40.95355469 -27.13457031 40.00867188 -27.44335938 39.03515625 C-27.73533203 38.05933594 -28.02730469 37.08351562 -28.328125 36.078125 C-28.63943359 35.11003906 -28.95074219 34.14195313 -29.27148438 33.14453125 C-33.03377757 20.98943015 -33.03377757 20.98943015 -30.515625 15.953125 C-29.2575 15.9325 -27.999375 15.911875 -26.703125 15.890625 C-25.99542969 15.87902344 -25.28773438 15.86742188 -24.55859375 15.85546875 C-22.515625 15.953125 -22.515625 15.953125 -19.515625 16.953125 C-16.79231012 17.18501122 -14.26523231 17.08405868 -11.515625 16.953125 C-8.26627563 13.70377563 -7.80414424 9.2803371 -6.61328125 4.921875 C-5.25533555 1.24913929 -4.02449031 -0.0749905 0 0 Z " fill="#E1921F" transform="translate(166.515625,77.046875)"/>
<path d="M0 0 C1.09123169 -0.01606293 2.18246338 -0.03212585 3.3067627 -0.04867554 C8.27725595 -0.09307467 13.24761687 -0.13415369 18.21826172 -0.15722656 C20.84497918 -0.17382869 23.4716507 -0.20117381 26.09814453 -0.23925781 C29.87881984 -0.29380275 33.6584383 -0.31586323 37.43945312 -0.33056641 C38.61761597 -0.35323578 39.79577881 -0.37590515 41.00964355 -0.39926147 C42.10087524 -0.39641144 43.19210693 -0.3935614 44.31640625 -0.390625 C45.27776489 -0.39871185 46.23912354 -0.40679871 47.22961426 -0.41513062 C49.65820312 0.19287109 49.65820312 0.19287109 51.49987793 2.5027771 C53.06858622 6.14594465 52.6428406 8.39498369 51.65820312 12.19287109 C50.44212341 13.87756348 50.44212341 13.87756348 48.65820312 15.19287109 C46.19837952 15.58728027 46.19837952 15.58728027 43.24047852 15.61279297 C41.57844139 15.63666077 41.57844139 15.63666077 39.88282776 15.66101074 C38.68592819 15.66121216 37.48902863 15.66141357 36.25585938 15.66162109 C35.0266124 15.66923462 33.79736542 15.67684814 32.53086853 15.68469238 C29.26240852 15.69827775 25.99435647 15.69609304 22.72589111 15.69030762 C19.40689718 15.69455069 16.08829899 15.74189922 12.76953125 15.77880859 C10.24414465 15.78401556 7.71875134 15.78670379 5.19335938 15.78662109 C3.40104637 15.81121399 3.40104637 15.81121399 1.57252502 15.83630371 C-6.66572517 15.76731346 -6.66572517 15.76731346 -10.09790039 12.85107422 C-11.59392049 9.65408366 -11.87263944 7.68126507 -11.34179688 4.19287109 C-8.41727235 0.15424198 -4.68325123 0.0626494 0 0 Z " fill="#E1941E" transform="translate(144.341796875,179.80712890625)"/>
<path d="M0 0 C1.21370773 0.00707474 2.42741547 0.01414948 3.67790222 0.0214386 C7.55022087 0.04940236 11.42108792 0.11215034 15.29296875 0.17578125 C17.91990098 0.20086129 20.54685589 0.22367496 23.17382812 0.24414062 C29.60986935 0.29923595 36.04506534 0.3828847 42.48046875 0.48828125 C42.97546875 1.97328125 42.97546875 1.97328125 43.48046875 3.48828125 C44.47046875 3.81828125 45.46046875 4.14828125 46.48046875 4.48828125 C46.91136362 8.1939771 46.80211293 9.99679671 44.73461914 13.15600586 C40.49181376 17.1065061 34.53420123 16.17902906 29.1015625 16.1171875 C27.29523094 16.12080544 27.29523094 16.12080544 25.45240784 16.12449646 C22.90972598 16.12351797 20.36702283 16.11012426 17.82446289 16.08520508 C13.92846515 16.05087374 10.03473209 16.06455449 6.13867188 16.08398438 C3.66795908 16.07708677 1.19725214 16.06741518 -1.2734375 16.0546875 C-2.44016495 16.05964737 -3.6068924 16.06460724 -4.80897522 16.06971741 C-5.89367599 16.05388107 -6.97837677 16.03804474 -8.09594727 16.02172852 C-9.04905289 16.01552994 -10.00215851 16.00933136 -10.98414612 16.00294495 C-14.26897672 15.33614958 -15.46741634 14.08975102 -17.51953125 11.48828125 C-18.25254397 7.66032593 -17.91387487 6.08696507 -15.7668457 2.82739258 C-11.51278268 -1.17494518 -5.45250406 -0.11952387 0 0 Z " fill="#E09120" transform="translate(150.51953125,149.51171875)"/>
<path d="M0 0 C0.33 0 0.66 0 1 0 C1.0294985 3.77081636 1.04696364 7.54160231 1.0625 11.3125 C1.07087891 12.36501953 1.07925781 13.41753906 1.08789062 14.50195312 C1.10912731 21.40387656 0.72349505 28.13534225 0 35 C-3.96 35 -7.92 35 -12 35 C-14 31 -14 31 -13.8125 28.4375 C-13 26 -13 26 -10 23 C-6.7 23 -3.4 23 0 23 C0 15.41 0 7.82 0 0 Z " fill="#E8A51B" transform="translate(85,101)"/>
<path d="M0 0 C1.21370773 0.00707474 2.42741547 0.01414948 3.67790222 0.0214386 C7.55022087 0.04940236 11.42108792 0.11215034 15.29296875 0.17578125 C17.91990098 0.20086129 20.54685589 0.22367496 23.17382812 0.24414062 C29.60986935 0.29923595 36.04506534 0.3828847 42.48046875 0.48828125 C42.97546875 1.47828125 42.97546875 1.47828125 43.48046875 2.48828125 C42.80030701 2.47717819 42.12014526 2.46607513 41.41937256 2.45463562 C34.3469352 2.34410803 27.2747427 2.2686408 20.20166016 2.21362305 C17.56125933 2.18846246 14.92092825 2.15433062 12.28076172 2.11108398 C8.48778078 2.05050462 4.69571977 2.02208595 0.90234375 2 C-0.28006897 1.97419357 -1.46248169 1.94838715 -2.6807251 1.92179871 C-9.09677696 1.72557665 -9.09677696 1.72557665 -14.29589844 5.01879883 C-15.85491205 7.43622105 -15.85491205 7.43622105 -14.70703125 9.92578125 C-14.31515625 10.77140625 -13.92328125 11.61703125 -13.51953125 12.48828125 C-10.55060414 13.47792362 -8.50803217 13.64101852 -5.40551758 13.69360352 C-3.84423882 13.72352135 -3.84423882 13.72352135 -2.25141907 13.75404358 C-1.1294664 13.77075607 -0.00751373 13.78746857 1.1484375 13.8046875 C2.29838699 13.8254686 3.44833649 13.84624969 4.63313293 13.86766052 C8.31135 13.93311467 11.98963923 13.99202199 15.66796875 14.05078125 C18.15951271 14.09397038 20.65104934 14.1375848 23.14257812 14.18164062 C29.25513176 14.28879186 35.36775739 14.39056608 41.48046875 14.48828125 C41.48046875 14.81828125 41.48046875 15.14828125 41.48046875 15.48828125 C33.72097921 15.58961487 25.96165999 15.65971908 18.20166016 15.70800781 C15.56129581 15.728136 12.9209761 15.75544112 10.28076172 15.79003906 C6.48784374 15.83850175 2.69551459 15.86123845 -1.09765625 15.87890625 C-2.87127533 15.90987396 -2.87127533 15.90987396 -4.6807251 15.94146729 C-5.78156433 15.94176941 -6.88240356 15.94207153 -8.01660156 15.94238281 C-8.98478821 15.95126526 -9.95297485 15.96014771 -10.95050049 15.96929932 C-14.27881032 15.34611598 -15.45420872 14.12022769 -17.51953125 11.48828125 C-18.25254397 7.66032593 -17.91387487 6.08696507 -15.7668457 2.82739258 C-11.51278268 -1.17494518 -5.45250406 -0.11952387 0 0 Z " fill="#E7A41A" transform="translate(150.51953125,149.51171875)"/>
<path d="M0 0 C0.33 0 0.66 0 1 0 C1.00808685 0.55852661 1.01617371 1.11705322 1.02450562 1.69250488 C1.11091273 7.53318106 1.21042981 13.37353189 1.31738281 19.21386719 C1.35554216 21.39024366 1.39041724 23.56668041 1.421875 25.74316406 C1.46780969 28.8810777 1.5257566 32.0185811 1.5859375 35.15625 C1.59748871 36.12115356 1.60903992 37.08605713 1.62094116 38.0802002 C1.742553 43.71317665 2.43694395 48.5854232 4 54 C4.34665557 55.66394675 4.68676972 57.32943851 5 59 C2 58 2 58 0.38671875 55.5546875 C-1.36340636 51.0684513 -1.79589981 46.89605557 -2.1875 42.125 C-2.26935547 41.24585938 -2.35121094 40.36671875 -2.43554688 39.4609375 C-2.63443586 37.30825676 -2.81870311 35.15423365 -3 33 C-2.01 33 -1.02 33 0 33 C0 22.11 0 11.22 0 0 Z " fill="#E6A419" transform="translate(85,165)"/>
<path d="M0 0 C6.6 0 13.2 0 20 0 C19 2 19 2 17.359375 2.62109375 C14.29728012 3.11285402 11.35003047 3.0935003 8.25 3.0625 C7.07953125 3.05347656 5.9090625 3.04445312 4.703125 3.03515625 C3.81109375 3.02355469 2.9190625 3.01195312 2 3 C2 2.34 2 1.68 2 1 C1.34 0.67 0.68 0.34 0 0 Z " fill="#E79616" transform="translate(54,196)"/>
<path d="M0 0 C0.66 0 1.32 0 2 0 C2.4813341 1.72856459 2.95996971 3.45788071 3.4375 5.1875 C3.70433594 6.15042969 3.97117187 7.11335937 4.24609375 8.10546875 C4.92880018 10.72663697 5.49892195 13.338935 6 16 C3 15 3 15 1.3125 12.5 C-0.30973403 8.17404258 -0.27356283 4.55938053 0 0 Z " fill="#F4AC2B" transform="translate(84,208)"/>
<path d="M0 0 C0.53625 0.2475 1.0725 0.495 1.625 0.75 C0.89925781 1.13800781 0.17351562 1.52601562 -0.57421875 1.92578125 C-3.67500144 3.94539843 -5.76262527 6.15070366 -8.1875 8.9375 C-8.97769531 9.83855469 -9.76789063 10.73960938 -10.58203125 11.66796875 C-11.17371094 12.35503906 -11.76539062 13.04210937 -12.375 13.75 C-12.705 13.09 -13.035 12.43 -13.375 11.75 C-11.03413638 6.36950749 -6.58394119 -0.69304644 0 0 Z " fill="#ECA51C" transform="translate(115.375,51.25)"/>
<path d="M0 0 C4.83256305 0.41421969 6.82679218 2.46413986 10 6 C5.32538149 6.32613618 2.83325617 5.70582788 -1 3 C-0.67 2.01 -0.34 1.02 0 0 Z " fill="#BD8020" transform="translate(210,40)"/>
<path d="M0 0 C0.99 0 1.98 0 3 0 C3 2.97 3 5.94 3 9 C2.34 9 1.68 9 1 9 C0.67 9.99 0.34 10.98 0 12 C0 8.04 0 4.08 0 0 Z " fill="#F69912" transform="translate(83,199)"/>
<path d="M0 0 C1.32 0.66 2.64 1.32 4 2 C4 2.66 4 3.32 4 4 C5.32 4.66 6.64 5.32 8 6 C8 6.66 8 7.32 8 8 C5.03824877 7.38722388 3.61941217 6.74627478 1 5 C1 4.34 1 3.68 1 3 C0.34 2.67 -0.32 2.34 -1 2 C-0.67 1.34 -0.34 0.68 0 0 Z " fill="#E89E21" transform="translate(91,224)"/>
<path d="M0 0 C3.63 0 7.26 0 11 0 C11 0.66 11 1.32 11 2 C6.545 2.495 6.545 2.495 2 3 C2 2.34 2 1.68 2 1 C1.34 0.67 0.68 0.34 0 0 Z " fill="#F4A721" transform="translate(54,196)"/>
<path d="M0 0 C0.66 0.33 1.32 0.66 2 1 C2 1.66 2 2.32 2 3 C-3.94 3 -9.88 3 -16 3 C-16 2.67 -16 2.34 -16 2 C-14.92878906 1.93941406 -13.85757813 1.87882812 -12.75390625 1.81640625 C-11.35675609 1.73201463 -9.95962143 1.64736594 -8.5625 1.5625 C-7.50192383 1.50352539 -7.50192383 1.50352539 -6.41992188 1.44335938 C-2.91309581 1.52375562 -2.91309581 1.52375562 0 0 Z " fill="#EBB11F" transform="translate(144,36)"/>
<path d="M0 0 C0.99 0 1.98 0 3 0 C3.33 1.65 3.66 3.3 4 5 C4.99 5.33 5.98 5.66 7 6 C3.7 6 0.4 6 -3 6 C-1.68 5.34 -0.36 4.68 1 4 C0.67 2.68 0.34 1.36 0 0 Z " fill="#F3AE11" transform="translate(72,193)"/>
<path d="M0 0 C2.64 0 5.28 0 8 0 C8 0.66 8 1.32 8 2 C4.71303767 2.79953138 3.28976808 3.09658936 0 2 C0 1.34 0 0.68 0 0 Z " fill="#FCC219" transform="translate(76,196)"/>
<path d="M0 0 C0.66 0 1.32 0 2 0 C2.33 2.31 2.66 4.62 3 7 C2.01 7 1.02 7 0 7 C0 4.69 0 2.38 0 0 Z " fill="#EE9D29" transform="translate(84,208)"/>
</svg>
