<?xml version="1.0" encoding="UTF-8"?>
<svg version="1.1" xmlns="http://www.w3.org/2000/svg" width="392" height="400">
<path d="M0 0 C16.93833721 -0.87612089 33.07183398 1.99668851 46.3125 13.3125 C57.72639712 24.17267128 61.31650593 38.56415317 62 54 C62.57137314 86.15097408 53.93213037 118.2588639 46.87890625 149.41796875 C29.19334112 225.10157985 29.19334112 225.10157985 50.203125 297.6796875 C54.29074137 303.9051523 59.01027607 309.50104711 64.15234375 314.87890625 C66 317 66 317 67.00390625 319.15234375 C68.29431856 321.54593208 69.55401913 321.88819051 72 323 C73.48049831 324.18107168 74.93670782 325.3928794 76.375 326.625 C94.88276354 341.55586048 116.37254401 347.20927924 140 346 C144.36876357 345.49322343 148.68112015 344.82827833 153 344 C151.97261719 343.38253906 150.94523438 342.76507813 149.88671875 342.12890625 C122.75918547 325.63434147 101.8564135 303.77673706 93.7421875 272.46875 C90.29028509 256.33564823 90.88802332 241.06925663 92.625 224.8125 C92.80142385 223.11442815 92.97777263 221.4163485 93.15405273 219.71826172 C94.37952631 208.07435264 95.80093917 196.45973815 97.27636719 184.84521484 C101.71438946 149.8559796 104.26619334 115.41299188 104.36746979 80.14108658 C104.37488052 77.91095502 104.38674561 75.6808827 104.39935303 73.45077515 C105.01905213 37.66951507 105.01905213 37.66951507 94.92749023 3.81030273 C94.38631813 2.73763405 94.38631813 2.73763405 93.83421326 1.64329529 C93.55892288 1.10100784 93.28363251 0.5587204 93 0 C103.21559445 -0.09351095 113.43108374 -0.16416995 123.64702225 -0.20724869 C128.39292994 -0.22794532 133.13854055 -0.25592623 137.88427734 -0.30175781 C142.48145123 -0.34586657 147.0783431 -0.36927099 151.67571259 -0.37950897 C153.41202981 -0.38678573 155.14833518 -0.40098677 156.88452911 -0.42292023 C184.92201169 -0.76237695 209.62146242 6.36408941 230.3125 25.75 C246.79591351 43.04673983 253.70958242 65.52481183 253.46801758 89.05249023 C253.00985883 104.22463958 249.03413446 116.94761922 242.8046875 130.6953125 C240.16422064 136.71293243 238.70978486 142.63678057 238.625 149.25 C238.59664062 150.24515625 238.56828125 151.2403125 238.5390625 152.265625 C239.84415337 162.83907308 244.83704002 171.90459524 249.875 181.125 C255.40788782 191.4771879 260.012599 201.63055794 263 213 C263.33386719 214.14855469 263.66773438 215.29710937 264.01171875 216.48046875 C271.02356119 244.5595663 264.92919187 273.8340787 250.35546875 298.30859375 C247.05275823 303.6221243 243.15678025 308.33629533 239 313 C238.28070313 313.85078125 237.56140625 314.7015625 236.8203125 315.578125 C228.95502219 324.70298137 219.8931791 331.70467538 209.68286133 337.99438477 C206.81414636 339.76889397 204.23924614 341.45685617 202 344 C227.04268622 348.80270695 251.51606928 345.3326363 273 331 C284.66168091 322.78422791 295.54430334 312.19694066 303 300 C303.65484375 298.96617187 304.3096875 297.93234375 304.984375 296.8671875 C324.4806872 265.18109064 322.8128634 227.74711388 316.88671875 192.33203125 C316.67168701 191.04635254 316.45665527 189.76067383 316.23510742 188.43603516 C313.54632531 172.67487401 310.00223304 157.09606381 306.5 141.5 C302.70637203 124.606303 298.96703499 107.73499611 296.09375 90.65625 C295.89245483 89.46737183 295.69115967 88.27849365 295.48376465 87.05358887 C291.99921894 65.5304948 289.62755813 39.77930274 302.25 20.6875 C311.66385097 8.21564648 324.71252808 2.15406716 340 0 C345.69405372 -0.40029933 351.28853741 -0.19038209 357 0 C357 9.57 357 19.14 357 29 C355 27 355 27 353.3125 23.625 C351.07709986 19.68017623 348.24447767 17.54572514 344 16 C337.74772893 14.36946168 332.66084819 14.85231958 327 18 C319.62904972 23.3139409 317.09719097 33.11124658 315.625 41.6875 C311.87021226 75.15250145 325.97578742 109.86208556 336.29586792 141.17266846 C351.53379615 187.43176971 369.54069263 242.18074229 346.25097656 288.77197266 C329.79198825 320.26885614 300.82862224 342.73358693 267.36914062 353.67626953 C240.45981529 361.88919792 211.55071345 362.92239176 184.375 355.1875 C178.63406994 353.66031665 174.64725374 354.51224074 169 356 C166.31449663 356.54035912 163.63019137 357.06160688 160.9375 357.5625 C159.64714844 357.81128906 158.35679687 358.06007813 157.02734375 358.31640625 C120.64085399 364.77142578 81.15048297 356.74229771 50.59765625 335.734375 C44.03163522 330.90070186 37.93066959 325.58851557 32 320 C31.07960938 319.15888672 31.07960938 319.15888672 30.140625 318.30078125 C10.85368988 300.0312762 -1.35303935 272.68819012 -2.203125 246.21484375 C-2.77320012 208.24351099 8.7278443 172.5170124 20.20385742 136.73510742 C40.47761847 81.82440355 40.47761847 81.82440355 34.46484375 25.75 C27.97027947 13.55753799 18.16110418 7.9121099 5.53125 3.04296875 C3 2 3 2 0 0 Z M132 12 C132.32613281 12.680625 132.65226563 13.36125 132.98828125 14.0625 C156.21571442 65.58766148 137.85358216 145.5418176 131.3125 199.4375 C124.17767858 257.25221616 124.17767858 257.25221616 146.8828125 309.453125 C147.58148438 310.29359375 148.28015625 311.1340625 149 312 C149.76054687 312.92296875 150.52109375 313.8459375 151.3046875 314.796875 C157.20144358 321.61676542 163.5493059 326.94153725 171 332 C171.83917969 332.61875 172.67835938 333.2375 173.54296875 333.875 C175.95760563 335.28946449 175.95760563 335.28946449 178.52734375 334.37109375 C201.99642784 321.35743101 218.25880502 299.00905664 226.0078125 273.59765625 C233.97075461 244.72415357 231.59108908 216.63577072 219.4375 189.3125 C208.15261727 163.90529994 210.92383897 143.62442978 216.62939453 117.07080078 C222.01500319 91.78281937 223.22515234 65.64240225 209 43 C206.24431015 39.37780439 203.25671359 36.17349263 200 33 C199.33613281 32.30390625 198.67226562 31.6078125 197.98828125 30.890625 C187.37317105 20.45748812 173.2946875 15.80505509 159 13 C158.0821875 12.8040625 157.164375 12.608125 156.21875 12.40625 C151.51834657 11.8129952 146.85694167 11.89582301 142.125 11.9375 C140.66320312 11.94426758 140.66320312 11.94426758 139.171875 11.95117188 C136.78118566 11.96289094 134.3906256 11.97929781 132 12 Z " fill="#BC8C81" transform="translate(17,26)"/>
<path d="M0 0 C4.95 0 9.9 0 15 0 C15 0.33 15 0.66 15 1 C13.02 1 11.04 1 9 1 C9 1.66 9 2.32 9 3 C4.545 2.01 4.545 2.01 0 1 C0 0.67 0 0.34 0 0 Z " fill="#B99E97" transform="translate(17,26)"/>
<path d="" fill="#DAD1CC" transform="translate(0,0)"/>
</svg>
