<?xml version="1.0" encoding="UTF-8"?>
<svg version="1.1" xmlns="http://www.w3.org/2000/svg" width="512" height="512">
<path d="M0 0 C13.95490259 6.93323727 27.42835083 14.82779018 40.92919922 22.59619141 C44.75131915 24.79324008 48.59149826 26.954737 52.44458008 29.09692383 C55.59133175 30.85049762 58.72265101 32.63049776 61.85107422 34.41650391 C62.85525391 34.98498047 63.85943359 35.55345703 64.89404297 36.13916016 C77.4699824 43.64215364 85.89216294 54.43015187 93.85107422 66.41650391 C94.2398877 66.98723633 94.62870117 67.55796875 95.02929688 68.14599609 C99.20813839 74.3037304 102.61829869 79.69616118 103.40185547 87.19775391 C104.01356453 90.21906475 104.96997402 91.95343908 106.85107422 94.41650391 C110.0443278 95.81883329 110.0443278 95.81883329 113.84326172 96.62744141 C114.53712479 96.80103683 115.23098785 96.97463226 115.94587708 97.15348816 C117.43163428 97.5237102 118.91954064 97.88539346 120.40927124 98.23928833 C124.30077366 99.16683732 128.17416401 100.16531666 132.05029297 101.15478516 C132.81563858 101.34844162 133.58098419 101.54209808 134.36952209 101.74162292 C143.72499099 104.12054016 152.83523658 106.96825588 161.85107422 110.41650391 C162.54668457 110.66029785 163.24229492 110.9040918 163.95898438 111.15527344 C176.81304708 115.78717376 182.04757816 125.04867767 188.36962891 136.69775391 C189.75905776 139.2476352 191.200848 141.7565037 192.67138672 144.26025391 C208.7416571 171.85798281 208.7416571 171.85798281 205.85107422 184.41650391 C203.73518406 189.47624125 200.93789631 193.91370838 197.85107422 198.41650391 C197.15957275 199.42559814 197.15957275 199.42559814 196.45410156 200.45507812 C183.86733286 218.59964079 170.07536571 235.94512774 156.47509766 253.33398438 C154.85647682 255.40957604 153.24735042 257.49222761 151.64013672 259.57666016 C150.6480296 260.85667038 149.65584631 262.13662156 148.66357422 263.41650391 C148.21780029 263.99843506 147.77202637 264.58036621 147.31274414 265.17993164 C142.69723878 271.10850741 142.69723878 271.10850741 138.86376953 271.74804688 C128.89562501 271.89399043 119.30092186 269.59133718 109.60107422 267.54150391 C108.63799347 267.34087341 107.67491272 267.14024292 106.68264771 266.93353271 C67.1642768 258.68530833 28.65078878 247.70831135 -9.29345703 233.9440918 C-10.48841797 233.51088623 -11.68337891 233.07768066 -12.91455078 232.63134766 C-13.95385742 232.25099365 -14.99316406 231.87063965 -16.06396484 231.47875977 C-19.400995 230.32970799 -22.7482535 229.35849547 -26.14892578 228.41650391 C-26.74318359 229.01599854 -27.33744141 229.61549316 -27.94970703 230.2331543 C-30.19158685 232.49224917 -32.43584109 234.74895263 -34.68164062 237.00415039 C-35.64644037 237.97392664 -36.61033473 238.94460461 -37.57324219 239.91625977 C-42.62663285 245.01434743 -47.70834423 249.9799413 -53.16064453 254.64868164 C-57.1716327 258.21493475 -60.88563201 262.09280414 -64.64892578 265.91650391 C-69.74666651 271.09607033 -74.84938917 276.17045398 -80.39111328 280.87744141 C-82.22715245 282.4849957 -83.94090656 284.17425789 -85.64892578 285.91650391 C-89.31168017 289.62842278 -93.189148 293.02606412 -97.14892578 296.41650391 C-98.21550151 297.3355781 -99.28189337 298.25486569 -100.34814453 299.17431641 C-103.3584957 301.76700767 -106.37748223 304.3493796 -109.40136719 306.92626953 C-110.5065462 307.86871332 -111.61054318 308.81254656 -112.71289062 309.75830078 C-142.51266885 335.29815693 -142.51266885 335.29815693 -154.58642578 336.04150391 C-158.59149829 335.33885961 -160.33842756 334.31216874 -163.14892578 331.41650391 C-163.47892578 330.75650391 -163.80892578 330.09650391 -164.14892578 329.41650391 C-165.16857422 329.15869141 -166.18822266 328.90087891 -167.23876953 328.63525391 C-171.84796236 327.42397634 -175.02692802 324.84493816 -178.71142578 321.91650391 C-180.13223912 320.81877423 -181.55413243 319.7224411 -182.97705078 318.62744141 C-183.68152344 318.0818457 -184.38599609 317.53625 -185.11181641 316.97412109 C-188.01133875 314.75708459 -190.97830371 312.64393645 -193.96142578 310.54150391 C-213.98134426 296.33921626 -233.40797734 281.41588714 -252.38720703 265.85351562 C-254.00750632 264.53185797 -255.64015807 263.22538212 -257.27392578 261.92041016 C-261.6489423 258.41432053 -265.95738273 254.83539736 -270.08642578 251.04150391 C-270.77607422 250.41501953 -271.46572266 249.78853516 -272.17626953 249.14306641 C-277.86790611 241.2762103 -278.81245587 232.62459439 -278.64892578 223.16650391 C-278.63901611 222.04622803 -278.62910645 220.92595215 -278.61889648 219.77172852 C-278.37244705 208.44063761 -276.68273767 197.44833103 -274.14892578 186.41650391 C-273.94090332 185.45083496 -273.73288086 184.48516602 -273.51855469 183.49023438 C-272.14082523 177.68942133 -270.9265416 174.27403679 -266.14892578 170.41650391 C-265.05222614 169.39517068 -263.96282595 168.36596392 -262.87939453 167.33056641 C-261.69965227 166.23287016 -260.51862182 165.13655704 -259.33642578 164.04150391 C-258.4039502 163.1767041 -258.4039502 163.1767041 -257.45263672 162.29443359 C-253.7090185 158.83231983 -249.93091352 155.42061298 -246.07080078 152.08837891 C-243.73787504 150.05892318 -241.44381333 147.9888569 -239.14892578 145.91650391 C-233.81329942 141.10635589 -228.43305698 136.35670153 -222.96142578 131.70166016 C-217.20627736 126.80076025 -211.49985412 121.87468749 -205.96142578 116.72900391 C-201.43694477 112.52621081 -196.74078841 108.59961177 -191.93017578 104.72900391 C-188.90873094 102.21679134 -186.02454195 99.59246302 -183.14892578 96.91650391 C-178.51646917 92.60651285 -173.72770062 88.56588995 -168.79736328 84.59619141 C-166.17617459 82.43892992 -163.65738297 80.2033939 -161.14892578 77.91650391 C-156.84900787 73.99759138 -152.38973031 70.32479521 -147.86767578 66.66650391 C-145.22744849 64.48148821 -142.68162858 62.22479 -140.14892578 59.91650391 C-135.90240892 56.05117045 -131.51879468 52.40252144 -127.05517578 48.79150391 C-123.94499909 46.24985414 -120.88990704 43.65056669 -117.83642578 41.04150391 C-112.75780363 36.71316717 -107.56480226 32.55756266 -102.29663086 28.46289062 C-98.63432551 25.60887047 -95.06087167 22.6761414 -91.52392578 19.66650391 C-80.46045325 10.39032133 -68.80723529 1.73581828 -56.83642578 -6.33349609 C-56.25723389 -6.72730469 -55.67804199 -7.12111328 -55.08129883 -7.52685547 C-36.55592016 -19.76340546 -17.93274281 -8.66825676 0 0 Z " fill="#444B53" transform="translate(306.14892578125,120.58349609375)"/>
<path d="M0 0 C0.82161621 0.36689941 1.64323242 0.73379883 2.48974609 1.11181641 C3.37968262 1.50191895 4.26961914 1.89202148 5.18652344 2.29394531 C24.11250797 10.75989453 42.32260655 20.80537807 60.11474609 31.42431641 C58.80379115 34.37743579 57.4806433 36.2519625 55.02490234 38.34228516 C54.41114746 38.86967285 53.79739258 39.39706055 53.16503906 39.94042969 C52.50906738 40.4919873 51.8530957 41.04354492 51.17724609 41.61181641 C50.50064941 42.18915527 49.82405273 42.76649414 49.12695312 43.36132812 C44.41802563 47.36586694 39.65094527 51.29733837 34.84912109 55.18994141 C31.78454031 57.69414171 28.75812389 60.23978939 25.73974609 62.79931641 C25.19705078 63.25951172 24.65435547 63.71970703 24.09521484 64.19384766 C22.43447435 65.60331772 20.77446947 67.01364882 19.11474609 68.42431641 C13.00586574 73.61650662 6.89963969 78.80555221 0.67724609 83.86181641 C-4.18734015 87.82004597 -8.94587568 91.89080702 -13.69580078 95.98486328 C-17.19741742 98.99663628 -20.73302983 101.95483332 -24.32275391 104.86181641 C-33.14843135 112.03430648 -41.72194355 119.5234205 -50.13525391 127.17431641 C-53.36399012 130.10615734 -56.66785276 132.88689552 -60.07275391 135.61181641 C-66.14563572 140.52015412 -71.78044429 145.8593224 -77.45947266 151.21337891 C-79.89183554 153.50396828 -82.34957909 155.74772408 -84.88525391 157.92431641 C-89.46434428 161.86353389 -93.83630772 166.0256531 -98.2409668 170.15722656 C-101.89699382 173.58243803 -105.58060138 176.9678174 -109.32275391 180.29931641 C-112.92185245 183.51173494 -116.35678289 186.83488793 -119.70556641 190.30712891 C-121.61674562 192.16350728 -123.57359356 193.89462257 -125.59228516 195.63134766 C-130.0945615 199.54247907 -134.27052031 203.73397677 -138.44775391 207.98681641 C-142.45201254 212.0631589 -146.46350113 216.13729646 -150.66259766 220.01416016 C-151.18974365 220.50650146 -151.71688965 220.99884277 -152.26000977 221.50610352 C-153.88525391 222.42431641 -153.88525391 222.42431641 -155.84863281 222.23730469 C-158.09062015 221.34233731 -159.76015681 220.27213111 -161.69384766 218.82666016 C-162.79853394 218.0072998 -162.79853394 218.0072998 -163.92553711 217.17138672 C-164.71661865 216.57422852 -165.5077002 215.97707031 -166.32275391 215.36181641 C-167.15315186 214.74274414 -167.9835498 214.12367188 -168.83911133 213.48583984 C-176.06046632 208.08717453 -183.21805857 202.60409591 -190.37695312 197.12304688 C-196.40477463 192.51869525 -202.51174705 188.05784399 -208.70947266 183.68603516 C-213.84222395 180.03060711 -218.86429085 176.23142026 -223.88525391 172.42431641 C-222.32824266 168.53178829 -219.87091284 166.36288664 -216.76025391 163.61181641 C-216.265979 163.17168213 -215.7717041 162.73154785 -215.26245117 162.27807617 C-213.80920787 160.98690636 -212.34738062 159.70541791 -210.88525391 158.42431641 C-210.17498047 157.80041016 -209.46470703 157.17650391 -208.73291016 156.53369141 C-207.46140665 155.42080081 -206.18797116 154.31011361 -204.91259766 153.20166016 C-202.55036218 151.13072154 -200.21729538 149.02918793 -197.88525391 146.92431641 C-192.53735405 142.10310366 -187.14223175 137.34537614 -181.66259766 132.67431641 C-176.10402911 127.93352318 -170.57587417 123.18345424 -165.19775391 118.23681641 C-161.70265502 115.02786596 -158.1424155 111.96365804 -154.44775391 108.98681641 C-150.45301137 105.76488324 -146.63973282 102.41774029 -142.88525391 98.92431641 C-138.25277011 94.61435203 -133.46403157 90.57370473 -128.53369141 86.60400391 C-125.91250272 84.44674242 -123.3937111 82.2112064 -120.88525391 79.92431641 C-116.66511447 76.08239701 -112.30498206 72.4631642 -107.86962891 68.87353516 C-104.49763498 66.10620506 -101.1887324 63.27269875 -97.88525391 60.42431641 C-92.95012541 56.17456708 -87.96876102 51.99497269 -82.91259766 47.88916016 C-79.87168798 45.41327111 -76.8472099 42.91844921 -73.82470703 40.42016602 C-59.5265016 28.61075392 -45.08295917 17.0696355 -30.13525391 6.08642578 C-28.16204982 4.62878977 -26.20984714 3.14759309 -24.26025391 1.65869141 C-22.74431641 0.55267578 -22.74431641 0.55267578 -21.19775391 -0.57568359 C-20.36888672 -1.19443359 -19.54001953 -1.81318359 -18.68603516 -2.45068359 C-12.37465553 -4.98579842 -5.98720821 -2.53871491 0 0 Z " fill="#FED01D" transform="translate(280.88525390625,127.57568359375)"/>
<path d="M0 0 C11.10063768 3.9468934 19.39302806 15.02904148 25.9375 24.3125 C26.68447144 25.35349854 26.68447144 25.35349854 27.4465332 26.41552734 C27.89988037 27.07891113 28.35322754 27.74229492 28.8203125 28.42578125 C29.22910645 29.01786377 29.63790039 29.60994629 30.05908203 30.2199707 C31.0420266 32.54228077 30.68830927 33.67516837 29.8125 36 C28.46484375 37.67578125 28.46484375 37.67578125 26.75 39.3125 C26.11191406 39.92480469 25.47382813 40.53710938 24.81640625 41.16796875 C22.96838357 42.85748656 21.08989883 44.49725748 19.1875 46.125 C15.37305496 49.40512589 11.84687123 52.92525326 8.3125 56.5 C4.92245464 59.92846492 1.56055865 63.32260849 -2.125 66.4375 C-6.03019956 69.74572637 -9.59031168 73.36513493 -13.1875 77 C-17.35396694 81.21010629 -21.54035402 85.2724121 -26.06640625 89.09765625 C-29.05889221 91.78152487 -31.86183259 94.64234089 -34.6875 97.5 C-38.07756381 100.92844551 -41.43943957 104.32260699 -45.125 107.4375 C-49.03019979 110.74572658 -52.59030926 114.36513741 -56.1875 118 C-60.3325809 122.18844516 -64.49666362 126.2267072 -69 130.03125 C-72.83585947 133.48352352 -76.41035526 137.20411148 -80.03930664 140.87133789 C-83.72547518 144.58139411 -87.48191984 148.12447227 -91.4765625 151.50390625 C-93.2460251 153.05117606 -94.86724448 154.68475308 -96.5 156.375 C-100.15381235 160.0949447 -104.17156879 163.28198693 -108.23046875 166.546875 C-111.31398677 169.10493223 -114.25715756 171.77029447 -117.1875 174.5 C-121.79726888 178.78983162 -126.56535488 182.8041271 -131.47265625 186.75390625 C-134.29423495 189.0883059 -136.99340712 191.51990598 -139.6875 194 C-144.13477112 198.09351091 -148.73467463 201.92442499 -153.4375 205.71875 C-157.22655407 208.86194258 -160.82019352 212.20158595 -164.44140625 215.53515625 C-167.10625166 217.92707297 -169.83581825 220.19254884 -172.625 222.4375 C-176.61973986 225.65943101 -180.43304349 229.00655495 -184.1875 232.5 C-188.78552983 236.77837278 -193.53665409 240.78667596 -198.4375 244.71875 C-202.4312831 248.03177461 -206.19753063 251.57043059 -209.97265625 255.12890625 C-212.1875 257 -212.1875 257 -214.1875 257 C-221.47143073 226.81462768 -221.47143073 226.81462768 -222.90625 214.16748047 C-223.18840955 211.99299047 -223.60523201 209.87296236 -224.03125 207.72265625 C-224.910756 201.91216038 -224.93624849 197.47324395 -221.43847656 192.52636719 C-216.20746612 186.45931888 -210.27298943 181.18839588 -204.1875 176 C-199.34137105 171.81881503 -194.65562829 167.58357203 -190.1875 163 C-186.25359416 159.01161994 -182.24817595 155.20836942 -177.98046875 151.57421875 C-176.13320371 149.9523281 -174.40993286 148.25339795 -172.6875 146.5 C-170.42952057 144.20673964 -168.12753496 142.03571972 -165.6875 139.9375 C-161.58239448 136.40165716 -157.63754759 132.70664762 -153.6875 129 C-149.20814765 124.80023102 -144.71894588 120.63304829 -140.0625 116.62890625 C-137.79998819 114.66334911 -135.59059317 112.64326691 -133.375 110.625 C-129.93371795 107.51471149 -126.42428702 104.53521688 -122.8125 101.625 C-118.79923716 98.38047483 -114.96334616 95.01252817 -111.1875 91.5 C-106.65758675 87.28976858 -101.98457836 83.32362154 -97.16796875 79.4453125 C-93.6145946 76.52996228 -90.15026267 73.52188157 -86.6875 70.5 C-81.53194306 66.00470029 -76.31238152 61.61375993 -70.99609375 57.30859375 C-67.6845152 54.58655909 -64.43436941 51.79860269 -61.1875 49 C-56.19813907 44.70022006 -51.14528656 40.49514438 -46.03125 36.34375 C-42.71063406 33.60697862 -39.44706291 30.80893615 -36.1875 28 C-31.18483155 23.68968626 -26.12454004 19.46535864 -20.99609375 15.3046875 C-17.12617115 12.12909037 -13.31546874 8.88509886 -9.51342773 5.62866211 C-2.91102651 0 -2.91102651 0 0 0 Z " fill="#D8B119" transform="translate(358.1875,169)"/>
<path d="M0 0 C2.62622856 0.80895683 5.18580432 1.65639949 7.765625 2.58984375 C9.29347216 3.12810478 10.82147382 3.66592742 12.34960938 4.20336914 C13.14778076 4.48632843 13.94595215 4.76928772 14.76831055 5.06082153 C40.94920434 14.30945085 67.45049217 22.97422677 95 27 C98.14353655 37.67748728 100.02394925 48.52284525 101.75 59.5 C101.86250092 60.20286133 101.97500183 60.90572266 102.09091187 61.62988281 C103.22663664 68.7668841 104.33617974 75.75345899 104 83 C52.34175981 75.52010652 1.11709413 60.07315992 -47 40 C-47 37 -47 37 -44.4375 34.109375 C-43.29991543 32.98120446 -42.15351702 31.86187494 -41 30.75 C-40.39986084 30.16081787 -39.79972168 29.57163574 -39.18139648 28.96459961 C-35.64010393 25.51118269 -32.0104224 22.21074203 -28.234375 19.015625 C-24.33520229 15.49818948 -20.68437238 11.72291018 -17.01000977 7.97290039 C-15.3575819 6.29636641 -13.68323611 4.64551654 -12 3 C-11.17886719 2.17886719 -10.35773438 1.35773438 -9.51171875 0.51171875 C-5.96889409 -1.62058785 -4.01644045 -0.79350376 0 0 Z " fill="#E9E9E9" transform="translate(329,291)"/>
<path d="M0 0 C0.82628906 0.1846582 1.65257812 0.36931641 2.50390625 0.55957031 C3.82068359 0.83269043 3.82068359 0.83269043 5.1640625 1.11132812 C8.1233604 1.75648799 11.06273083 2.46136093 14.00390625 3.18457031 C15.08542969 3.44818359 16.16695313 3.71179688 17.28125 3.98339844 C34.96257923 8.34751843 52.44544618 13.15384872 69.50390625 19.55957031 C67.87684917 24.64038046 64.82641611 28.51206501 61.69140625 32.74707031 C60.51292158 34.35897692 59.3345391 35.97095824 58.15625 37.58300781 C57.55151855 38.40639648 56.94678711 39.22978516 56.32373047 40.078125 C54.00351104 43.2418908 51.69874513 46.416582 49.40063477 49.59643555 C48.3076733 51.10681268 47.21053422 52.61417601 46.10913086 54.1184082 C43.61586364 57.53996716 41.21090607 60.96496021 39.00390625 64.57910156 C33.83533485 72.96839545 33.83533485 72.96839545 30.48046875 74.45800781 C27.98067126 74.57881587 25.95628798 74.08673618 23.50390625 73.55957031 C21.89201416 73.25490845 21.89201416 73.25490845 20.24755859 72.9440918 C11.44276776 71.25683012 2.86188043 69.15120854 -5.74609375 66.62207031 C-6.38620392 66.43581085 -7.02631409 66.24955139 -7.68582153 66.05764771 C-24.48532752 61.15608852 -40.99496446 55.37383094 -57.49609375 49.55957031 C-56.0485227 46.51363145 -54.81593803 44.74711056 -52.18359375 42.62207031 C-48.23817943 39.29469904 -44.61624855 35.73071321 -40.99609375 32.05957031 C-37.60658099 28.63065579 -34.24408577 25.2369055 -30.55859375 22.12207031 C-25.96619751 18.23469012 -21.80098428 13.91520179 -17.59399414 9.62036133 C-16.45257517 8.46219704 -15.30125595 7.31369592 -14.13964844 6.17578125 C-13.08323474 5.13694307 -12.04996617 4.07373346 -11.04785156 2.98242188 C-7.35352566 -0.70173383 -4.83599814 -0.86184107 0 0 Z " fill="#E9E9E9" transform="translate(394.49609375,227.4404296875)"/>
<path d="M0 0 C2.71813366 1.29385105 5.14934537 2.7166224 7.58984375 4.4765625 C8.28110352 4.97438232 8.97236328 5.47220215 9.68457031 5.98510742 C10.79977051 6.79685425 10.79977051 6.79685425 11.9375 7.625 C12.72092773 8.19259033 13.50435547 8.76018066 14.31152344 9.3449707 C21.44018271 14.53716517 28.44545597 19.88621793 35.44311523 25.25292969 C39.84602456 28.62252397 44.26099758 31.95962679 48.78710938 35.16235352 C49.9142698 35.9603304 51.03559093 36.76663106 52.15039062 37.58178711 C54.91150144 39.59210616 57.68602252 41.40791607 60.671875 43.0546875 C65.08659185 45.65391805 69.1063413 48.11039754 70.68603516 53.21826172 C71.63485588 58.76262782 71.68507538 64.34542286 71.83251953 69.95654297 C72.11707264 75.12744532 73.05530173 80.16492156 74 85.25 C74.16701416 86.17707764 74.33402832 87.10415527 74.50610352 88.05932617 C75.60003832 94.0535265 76.78832123 100.028615 78 106 C71.77715718 101.929085 65.72238557 97.67919562 59.75 93.25 C58.91863525 92.63511719 58.08727051 92.02023437 57.23071289 91.38671875 C51.02141741 86.78305806 44.86419926 82.11967788 38.76513672 77.37060547 C36.73493725 75.79418226 34.69757768 74.22723348 32.66015625 72.66015625 C24.52474532 66.38814427 16.48327406 60.04762521 8.71484375 53.32421875 C7.09246671 51.93527726 5.44573791 50.57297721 3.75390625 49.26953125 C-0.60631298 45.88832175 -3.07239324 42.55720775 -4 37 C-4.84028558 24.70743513 -4.21005578 11.63956599 0 0 Z " fill="#FDCF1D" transform="translate(48,314)"/>
<path d="M0 0 C3.65124456 3.39934032 6.14402935 6.60005528 8.48046875 11 C9.08697266 12.134375 9.69347656 13.26875 10.31835938 14.4375 C10.77891724 15.31535156 10.77891724 15.31535156 11.2487793 16.2109375 C12.18737753 17.99976658 13.13831969 19.78156447 14.09179688 21.5625 C21.0939551 34.74303313 21.0939551 34.74303313 20.85546875 37.93359375 C14.14124519 54.15196939 0.216113 68.96321185 -10.4765625 82.7109375 C-12.42589445 85.23072876 -14.32399324 87.78473874 -16.2109375 90.3515625 C-17.03053955 91.46204956 -17.03053955 91.46204956 -17.86669922 92.5949707 C-18.93877331 94.05052361 -20.00569005 95.50989212 -21.06689453 96.97338867 C-22.33044583 98.68501827 -23.65961494 100.34784817 -25 102 C-25.66 102 -26.32 102 -27 102 C-27.15855469 100.6903125 -27.31710937 99.380625 -27.48046875 98.03125 C-29.05287272 85.56284846 -31.24041125 73.34072119 -33.9140625 61.0625 C-34.1927417 59.72493652 -34.1927417 59.72493652 -34.47705078 58.36035156 C-34.89236544 56.48581276 -35.41293249 54.63465869 -35.96875 52.796875 C-36.01875543 48.32138928 -33.52583246 45.70268712 -30.875 42.25 C-30.33311035 41.51483154 -29.7912207 40.77966309 -29.23291016 40.0222168 C-28.08383424 38.46412261 -26.92788368 36.91107839 -25.765625 35.36279297 C-23.47529211 32.29782592 -21.24180091 29.19386881 -19.00927734 26.08666992 C-17.38929552 23.83239285 -15.76189828 21.58364158 -14.1328125 19.3359375 C-10.72360894 14.62538262 -7.34594985 9.89257139 -3.98193359 5.1496582 C-1.10613031 1.10613031 -1.10613031 1.10613031 0 0 Z " fill="#C5C5C5" transform="translate(475,261)"/>
<path d="M0 0 C4.29 1.65 8.58 3.3 13 5 C11.16836238 8.66327525 9.76513559 10.48119276 6.9296875 13.30078125 C6.115 14.11353516 5.3003125 14.92628906 4.4609375 15.76367188 C3.60757813 16.60478516 2.75421875 17.44589844 1.875 18.3125 C1.04484375 19.14201172 0.2146875 19.97152344 -0.640625 20.82617188 C-4.34351476 24.50294408 -8.06432169 28.11099046 -12.0234375 31.51171875 C-16.76600248 35.59179814 -21.11399616 40.04359481 -25.5 44.5 C-30.59774073 49.67956642 -35.70046338 54.75395007 -41.2421875 59.4609375 C-43.07822666 61.06849179 -44.79198078 62.75775398 -46.5 64.5 C-50.16275439 68.21191888 -54.04022222 71.60956022 -58 75 C-59.06657573 75.9190742 -60.13296759 76.83836178 -61.19921875 77.7578125 C-64.20956992 80.35050376 -67.22855645 82.93287569 -70.25244141 85.50976562 C-71.35762041 86.45220942 -72.4616174 87.39604265 -73.56396484 88.34179688 C-103.36374307 113.88165302 -103.36374307 113.88165302 -115.4375 114.625 C-119.46094353 113.91913271 -121.21400213 112.95484623 -124 110 C-124.33 109.01 -124.66 108.02 -125 107 C-123.4840625 105.9171875 -123.4840625 105.9171875 -121.9375 104.8125 C-115.66010359 100.1072205 -109.84256692 94.85081575 -103.94042969 89.69042969 C-100.97629818 87.1081893 -97.98875424 84.55365553 -95 82 C-90.15055485 77.85174545 -85.31924197 73.68330076 -80.5 69.5 C-75.10745021 64.8190444 -69.69553564 60.16164336 -64.26953125 55.51953125 C-59.99861157 51.8628562 -55.74593331 48.18564521 -51.5 44.5 C-46.68075482 40.31669645 -41.84910464 36.14865561 -37 32 C-30.29394394 26.26153607 -23.6224056 20.48386993 -16.95703125 14.69824219 C-13.49371496 11.69289936 -10.02794381 8.69038904 -6.5625 5.6875 C-5.29295848 4.58725143 -4.02342624 3.48699216 -2.75390625 2.38671875 C-1.84511719 1.59910156 -0.93632812 0.81148438 0 0 Z " fill="#000000" transform="translate(267,342)"/>
<path d="M0 0 C6.82249948 0.46981284 12.15168239 1.90842681 18.375 4.6875 C19.26493652 5.07760254 20.15487305 5.46770508 21.07177734 5.86962891 C39.99776187 14.33557813 58.20786046 24.38106166 76 35 C74.68904505 37.95311939 73.3658972 39.82764609 70.91015625 41.91796875 C70.29640137 42.44535645 69.68264648 42.97274414 69.05029297 43.51611328 C68.39432129 44.0676709 67.73834961 44.61922852 67.0625 45.1875 C66.38590332 45.76483887 65.70930664 46.34217773 65.01220703 46.93701172 C60.30327953 50.94155053 55.53619918 54.87302197 50.734375 58.765625 C47.66979421 61.2698253 44.6433778 63.81547298 41.625 66.375 C41.08230469 66.83519531 40.53960937 67.29539062 39.98046875 67.76953125 C38.31972826 69.17900132 36.65972338 70.58933242 35 72 C28.89111965 77.19219022 22.78489359 82.38123581 16.5625 87.4375 C11.69791376 91.39572956 6.93937822 95.46649061 2.18945312 99.56054688 C-1.31216351 102.57231987 -4.84777593 105.53051691 -8.4375 108.4375 C-17.26317744 115.60999007 -25.83668965 123.0991041 -34.25 130.75 C-37.47873622 133.68184093 -40.78259885 136.46257911 -44.1875 139.1875 C-50.26038181 144.09583771 -55.89519038 149.43500599 -61.57421875 154.7890625 C-64.00658163 157.07965188 -66.46432519 159.32340768 -69 161.5 C-73.57909037 165.43921748 -77.95105382 169.60133669 -82.35571289 173.73291016 C-86.01173991 177.15812162 -89.69534747 180.54350099 -93.4375 183.875 C-97.12184371 187.16350513 -100.61482689 190.59066412 -104.078125 194.109375 C-105.94973642 195.95055372 -107.880918 197.66806581 -109.875 199.375 C-114.84921847 203.64569355 -119.40943584 208.32477379 -124 213 C-124.33 212.01 -124.66 211.02 -125 210 C-124.28714844 209.29875 -123.57429687 208.5975 -122.83984375 207.875 C-121.87225677 206.91680707 -120.90481687 205.95846561 -119.9375 205 C-119.23850586 204.31357422 -119.23850586 204.31357422 -118.52539062 203.61328125 C-115.82391001 200.93017806 -113.26222237 198.17593298 -110.78320312 195.28540039 C-107.13973255 191.10541824 -103.30468989 187.15984805 -99.37890625 183.24609375 C-98.67531479 182.54154556 -97.97172333 181.83699738 -97.24681091 181.11109924 C-95.76985352 179.63346633 -94.29165258 178.15707543 -92.81225586 176.68188477 C-90.56834915 174.44333519 -88.32983296 172.19949527 -86.09179688 169.95507812 C-84.64615382 168.51009596 -83.20020055 167.06542408 -81.75390625 165.62109375 C-81.0953212 164.96048447 -80.43673615 164.29987518 -79.75819397 163.61924744 C-75.87228171 159.75254973 -71.87745444 156.07020875 -67.7184906 152.49830627 C-65.5388061 150.5978973 -63.51306537 148.57500584 -61.5 146.5 C-58.19081007 143.08898884 -54.70038253 139.97211232 -51.11425781 136.86035156 C-47.70794925 133.86311469 -44.42061297 130.74282119 -41.125 127.625 C-35.94662532 122.7477214 -30.7379089 117.91597932 -25.4296875 113.1796875 C-22.55606865 110.60174648 -19.71536744 107.98944417 -16.875 105.375 C-13.63795153 102.3976865 -10.3886189 99.44046814 -7.0625 96.5625 C-2.92777651 92.97792683 1.07581126 89.25645083 5.08837891 85.53662109 C8.30443515 82.55748871 11.54099925 79.60592142 14.8125 76.6875 C36.78019873 59.88323352 36.78019873 59.88323352 50.3125 38 C42.48272166 20.1033638 15.84110402 9.35356425 -1 2 C-0.67 1.34 -0.34 0.68 0 0 Z " fill="#E3BB1A" transform="translate(265,124)"/>
<path d="M0 0 C2.82847039 2.60517009 3.8665852 4.1995112 4.5 8 C3.63816271 13.17102376 0.30051989 15.90504576 -3.765625 18.91015625 C-5.25540837 19.96802623 -6.75049468 21.01845635 -8.25 22.0625 C-13.05870331 25.44962734 -17.84373622 28.83438647 -22.4609375 32.48046875 C-23.5142627 33.30502563 -23.5142627 33.30502563 -24.58886719 34.14624023 C-25.90951079 35.18644501 -27.2207677 36.23872288 -28.52050781 37.30493164 C-33.01849598 40.81636107 -36.26454443 41.86157872 -42 42 C-44.99795835 40.66048669 -46.52779875 39.9444025 -48 37 C-48.375 33.6875 -48.375 33.6875 -48 30 C-44.42115371 25.88196783 -40.18178891 22.71893495 -35.8125 19.5 C-35.12776611 18.99170654 -34.44303223 18.48341309 -33.73754883 17.9597168 C-31.49604485 16.30049379 -29.24867001 14.6494961 -27 13 C-26.19014648 12.40396973 -25.38029297 11.80793945 -24.54589844 11.19384766 C-22.09713263 9.39447035 -19.64343504 7.60207676 -17.1875 5.8125 C-16.41704346 5.24789062 -15.64658691 4.68328125 -14.8527832 4.1015625 C-14.13179443 3.57949219 -13.41080566 3.05742187 -12.66796875 2.51953125 C-12.03141357 2.05651611 -11.3948584 1.59350098 -10.73901367 1.11645508 C-6.9450755 -1.31927134 -4.22849393 -1.20814112 0 0 Z " fill="#424953" transform="translate(489,149)"/>
<path d="M0 0 C2.89589121 1.67656859 5.52468589 3.66611288 8.1875 5.6875 C8.95835938 6.26040771 9.72921875 6.83331543 10.5234375 7.42358398 C12.16476667 8.64351312 13.80320237 9.8673433 15.43896484 11.09472656 C18.05017666 13.03732876 20.6862983 14.94067456 23.33203125 16.8359375 C25.05473882 18.07805383 26.77739645 19.32023941 28.5 20.5625 C29.31879639 21.14539795 30.13759277 21.7282959 30.98120117 22.32885742 C31.74021729 22.88162354 32.4992334 23.43438965 33.28125 24.00390625 C33.95220703 24.48674072 34.62316406 24.9695752 35.31445312 25.46704102 C37.22296194 27.20277781 38.09456796 28.59140027 39 31 C38.92526438 35.18519447 38.60878514 37.28378219 35.875 40.5 C31.9994791 42.52201091 30.23206358 42.0210831 26 41 C23.22402457 39.5209907 20.76123336 37.69965753 18.25 35.8125 C17.52989746 35.2865625 16.80979492 34.760625 16.06787109 34.21875 C14.5218999 33.08717991 12.98019198 31.94976655 11.44238281 30.80712891 C8.90105208 28.92678803 6.3397595 27.07652809 3.7734375 25.23046875 C2.05675228 23.98772392 0.34059446 22.74425018 -1.375 21.5 C-2.18936523 20.91323486 -3.00373047 20.32646973 -3.84277344 19.72192383 C-4.60364258 19.16400146 -5.36451172 18.6060791 -6.1484375 18.03125 C-6.82052246 17.54205078 -7.49260742 17.05285156 -8.18505859 16.54882812 C-11.19155733 13.98315312 -12.84970899 12.00909676 -13.4375 8.0625 C-12.89613959 4.27297711 -11.68326641 2.68326641 -9 0 C-5.29935196 -1.23354935 -3.76718022 -1.04029066 0 0 Z " fill="#424953" transform="translate(48,132)"/>
<path d="M0 0 C4.05388545 0.06941585 6.10119075 0.11669774 9.34375 2.7265625 C12.35833008 8.88679137 10.40015093 15.86681575 9.20703125 22.359375 C9.04132126 23.26984589 8.87561127 24.18031677 8.70487976 25.11837769 C8.35283654 27.03352317 7.99712327 28.94799728 7.63793945 30.86181641 C7.09474299 33.78372113 6.57946314 36.7097329 6.06445312 39.63671875 C5.7178597 41.50292328 5.36960828 43.36882081 5.01953125 45.234375 C4.87034744 46.10530792 4.72116364 46.97624084 4.56745911 47.87356567 C3.52796761 53.19435488 2.28861716 56.25633419 -2.21875 59.6640625 C-6.47960958 60.42493028 -8.44981496 60.09658846 -12.21875 57.9765625 C-17.30899333 49.54584698 -12.19976841 34.96453124 -10.37231445 25.57714844 C-9.90212566 23.14270837 -9.45567835 20.704614 -9.00976562 18.265625 C-8.70976269 16.70024622 -8.40838059 15.13513099 -8.10546875 13.5703125 C-7.97613449 12.84944458 -7.84680023 12.12857666 -7.71354675 11.38586426 C-6.72326947 6.46831321 -5.20850174 1.55888256 0 0 Z " fill="#424953" transform="translate(357.21875,55.3359375)"/>
<path d="M0 0 C0.86420563 0.21484543 1.72841125 0.42969086 2.61880493 0.65104675 C4.42683168 1.10353922 6.23342391 1.56180018 8.03857422 2.02563477 C10.79926921 2.7330843 13.56497588 3.41751285 16.33203125 4.09960938 C18.09669514 4.54422176 19.86103083 4.99013931 21.625 5.4375 C22.85940323 5.74238091 22.85940323 5.74238091 24.1187439 6.05342102 C31.5790808 7.99539703 31.5790808 7.99539703 34.4140625 10.91796875 C35.52678988 14.92378733 35.85058153 17.00524714 34.0390625 20.79296875 C32.4140625 22.91796875 32.4140625 22.91796875 31.4140625 23.91796875 C22.1710221 24.71316959 13.66476721 22.41694604 4.75390625 20.23754883 C2.15945413 19.60434403 -0.43919362 18.99139754 -3.0390625 18.38085938 C-4.70601359 17.98165455 -6.37269069 17.5813035 -8.0390625 17.1796875 C-8.80792786 16.99830734 -9.57679321 16.81692719 -10.36895752 16.63005066 C-14.76275603 15.5439995 -18.64557546 14.23021094 -22.5859375 11.91796875 C-24.19275805 8.70432765 -24.04744258 5.40336534 -23.5859375 1.91796875 C-19.34034152 -5.80129667 -6.96385058 -1.79789981 0 0 Z " fill="#424953" transform="translate(23.5859375,205.08203125)"/>
<path d="M0 0 C3.75 0.3125 3.75 0.3125 6.6875 1.8125 C9.0346821 4.65756921 9.25692471 6.33669896 9.15356445 9.97119141 C8.33825611 14.70126219 5.76328229 18.64966411 3.375 22.75 C2.83496338 23.70559814 2.29492676 24.66119629 1.73852539 25.64575195 C0.09301641 28.54500505 -1.57647543 31.42934888 -3.25 34.3125 C-4.22324737 36.01528727 -5.19593842 37.71839269 -6.16796875 39.421875 C-7.04768807 40.94894989 -7.92909825 42.47505242 -8.8125 44 C-9.41940674 45.04982056 -9.41940674 45.04982056 -10.03857422 46.12084961 C-11.85719098 49.20233048 -13.55438318 51.94547839 -16.25 54.3125 C-18.40625 54.7109375 -18.40625 54.7109375 -20.75 54.6875 C-21.91015625 54.69910156 -21.91015625 54.69910156 -23.09375 54.7109375 C-25.76095315 54.21808474 -26.60865925 53.43776188 -28.25 51.3125 C-29.58926732 47.53103934 -29.85211585 45.62070288 -28.15991211 41.9440918 C-27.66241455 41.07953369 -27.16491699 40.21497559 -26.65234375 39.32421875 C-26.10376709 38.35403809 -25.55519043 37.38385742 -24.98999023 36.38427734 C-24.41579346 35.37059082 -23.84159668 34.3569043 -23.25 33.3125 C-22.17085504 31.30150693 -21.09794183 29.28715746 -20.03125 27.26953125 C-19.49113281 26.25826172 -18.95101563 25.24699219 -18.39453125 24.20507812 C-17.29330509 22.14256785 -16.19698784 20.07742946 -15.10546875 18.00976562 C-5.74577136 0.55247802 -5.74577136 0.55247802 0 0 Z " fill="#434954" transform="translate(431.25,90.6875)"/>
<path d="M0 0 C6.52046624 2.06420719 10.34621276 10.2344038 13.84765625 15.6015625 C14.46020264 16.53363525 15.07274902 17.46570801 15.70385742 18.42602539 C16.93252464 20.29799584 18.15872549 22.17158765 19.38232422 24.046875 C20.89714556 26.35813102 22.43090229 28.65462975 23.9765625 30.9453125 C24.78815582 32.16379923 25.59938577 33.38252811 26.41015625 34.6015625 C27.10753906 35.64183594 27.80492187 36.68210938 28.5234375 37.75390625 C30.1940218 40.84220726 30.85349512 43.17255835 31.09765625 46.6640625 C29.86122222 49.52738341 28.76613086 51.15694383 26.28515625 53.0390625 C23.18451621 53.92495965 21.18149096 53.56351429 18.09765625 52.6640625 C14.11576665 49.31614477 11.51525592 45.00918303 8.7109375 40.6875 C8.20845993 39.92104156 7.70598236 39.15458313 7.1882782 38.36489868 C5.59105993 35.92586943 4.0006765 33.48246345 2.41015625 31.0390625 C1.32919279 29.38774795 0.247817 27.73670324 -0.83398438 26.0859375 C-1.86104322 24.51586445 -2.88774833 22.94555993 -3.9140625 21.375 C-4.39944992 20.63228851 -4.88483734 19.88957703 -5.38493347 19.12435913 C-5.83242447 18.43669464 -6.27991547 17.74903015 -6.7409668 17.04052734 C-7.33242744 16.13262955 -7.33242744 16.13262955 -7.93583679 15.20639038 C-10.03272777 11.86022365 -10.29106042 9.6289725 -9.90234375 5.6640625 C-7.45989882 0.98270971 -5.25096723 0.10439299 0 0 Z " fill="#424953" transform="translate(115.90234375,88.3359375)"/>
<path d="M0 0 C0.72058594 0.14179688 1.44117188 0.28359375 2.18359375 0.4296875 C2.94671875 0.56503906 3.70984375 0.70039063 4.49609375 0.83984375 C5.19734375 0.99324219 5.89859375 1.14664063 6.62109375 1.3046875 C7.63171875 1.4903125 8.64234375 1.6759375 9.68359375 1.8671875 C10.32296875 2.0115625 10.96234375 2.1559375 11.62109375 2.3046875 C10.02693872 6.21678058 7.48216043 8.67686836 4.49609375 11.6171875 C3.99891846 12.10791748 3.50174316 12.59864746 2.98950195 13.10424805 C0.33693796 15.70202292 -2.36343651 18.21249306 -5.19140625 20.6171875 C-9.79938867 24.5410983 -13.98073703 28.88127439 -18.234375 33.1796875 C-21.86310308 36.83187719 -25.56003037 40.31407125 -29.4921875 43.640625 C-33.30373263 47.00236046 -36.8239563 50.67567609 -40.37890625 54.3046875 C-42.17126692 53.82812338 -43.96277522 53.34835252 -45.75390625 52.8671875 C-46.75164062 52.60035156 -47.749375 52.33351563 -48.77734375 52.05859375 C-51.37890625 51.3046875 -51.37890625 51.3046875 -53.37890625 50.3046875 C-52.03531993 47.22701441 -50.66894471 45.46816608 -48.06640625 43.3671875 C-44.12099193 40.03981623 -40.49906105 36.4758304 -36.87890625 32.8046875 C-33.48939349 29.37577297 -30.12689827 25.98202269 -26.44140625 22.8671875 C-21.84901001 18.97980731 -17.68379678 14.66031897 -13.47680664 10.36547852 C-3.73231649 0.47803068 -3.73231649 0.47803068 0 0 Z " fill="#C5C5C5" transform="translate(390.37890625,226.6953125)"/>
<path d="M0 0 C3.26597905 0.80217029 6.40497434 1.71980768 9.5625 2.875 C6.60376754 9.9466957 -0.45705164 15.25039782 -6.1875 20.125 C-10.80608936 24.06769823 -15.0052368 28.41685478 -19.27294922 32.72998047 C-23.50149802 36.98609927 -27.84102302 41.01395934 -32.4375 44.875 C-36.0675 43.555 -39.6975 42.235 -43.4375 40.875 C-43.4375 37.875 -43.4375 37.875 -40.875 34.984375 C-39.73741543 33.85620446 -38.59101702 32.73687494 -37.4375 31.625 C-36.83736084 31.03581787 -36.23722168 30.44663574 -35.61889648 29.83959961 C-32.07760393 26.38618269 -28.4479224 23.08574203 -24.671875 19.890625 C-20.77270229 16.37318948 -17.12187238 12.59791018 -13.44750977 8.84790039 C-4.56327785 -0.16593738 -4.56327785 -0.16593738 0 0 Z " fill="#C5C5C5" transform="translate(325.4375,290.125)"/>
<path d="M0 0 C2.28240789 2.28240789 2.43900487 3.22811882 3.03515625 6.32421875 C3.20466797 7.18853516 3.37417969 8.05285156 3.54882812 8.94335938 C3.71833984 9.84892578 3.88785156 10.75449219 4.0625 11.6875 C4.23587891 12.57373047 4.40925781 13.45996094 4.58789062 14.37304688 C5.52718946 19.23508798 6.34862903 24.09121466 7 29 C0.58940777 24.80723558 -5.6482442 20.42119976 -11.8125 15.875 C-12.64458984 15.26785156 -13.47667969 14.66070312 -14.33398438 14.03515625 C-15.13771484 13.44347656 -15.94144531 12.85179687 -16.76953125 12.2421875 C-17.48729736 11.7147998 -18.20506348 11.18741211 -18.94458008 10.64404297 C-21.12719917 8.8982588 -23.05983515 7.00921277 -25 5 C-22.40125125 5.44549979 -20.19408057 5.9057323 -17.8125 7.0625 C-13.51661944 8.49446019 -9.4409055 9.12114663 -5 8 C-2.66097747 5.61939484 -1.29655866 3.05714883 0 0 Z " fill="#E1BA1B" transform="translate(119,391)"/>
<path d="M0 0 C2.25245881 2.68841859 3.88213958 4.64641875 5 8 C1.7 7.34 -1.6 6.68 -5 6 C-3.35 4.02 -1.7 2.04 0 0 Z " fill="#000000" transform="translate(408,208)"/>
</svg>
